<svg id="Capa_1" enable-background="new 0 0 512 512" height="512" viewBox="0 0 512 512" width="512" xmlns="http://www.w3.org/2000/svg"><g><g><circle cx="256" cy="256" fill="#69d173" r="256"/></g><g><g><path d="m403.261 85.881c-21.34-18.489-46.201-33.016-73.433-42.472h-147.656c-27.232 9.456-52.093 23.984-73.433 42.473l-73.729 127.7c-2.621 13.739-4.01 27.915-4.01 42.418s1.389 28.679 4.01 42.418l73.728 127.701c21.34 18.489 46.201 33.016 73.433 42.473h147.657c27.232-9.456 52.093-23.984 73.433-42.472l73.728-127.701c2.622-13.74 4.011-27.916 4.011-42.419s-1.389-28.679-4.01-42.418z" fill="#ebeaec"/></g><g><path d="m391.993 117.021c-1.272 0-2.562-.324-3.743-1.006l-77.145-44.539c-3.587-2.071-4.816-6.658-2.745-10.245 2.07-3.587 6.656-4.817 10.245-2.745l77.145 44.539c3.587 2.071 4.816 6.658 2.745 10.245-1.389 2.405-3.91 3.751-6.502 3.751z" fill="#dad9dd"/></g><g><path d="m120.007 117.021c-2.592 0-5.113-1.345-6.502-3.751-2.071-3.587-.842-8.174 2.745-10.245l77.144-44.539c3.587-2.071 8.174-.843 10.245 2.745 2.071 3.587.842 8.174-2.745 10.245l-77.144 44.539c-1.181.682-2.471 1.006-3.743 1.006z" fill="#dad9dd"/></g><g><path d="m450.855 308.039c-4.143 0-7.5-3.358-7.5-7.5v-89.078c0-4.142 3.357-7.5 7.5-7.5s7.5 3.358 7.5 7.5v89.078c0 4.142-3.357 7.5-7.5 7.5z" fill="#dad9dd"/></g><g><path d="m108.726 85.902-73.737 127.716c-2.616 13.726-3.989 27.893-3.989 42.382 0 14.503 1.389 28.679 4.01 42.418l73.728 127.701c21.34 18.489 46.201 33.016 73.433 42.473h147.657v.011c27.241-9.459 52.101-24.008 73.446-42.506l27.33-47.338c-28.078 12.593-59.204 19.606-91.97 19.606-124.264 0-225-100.736-225-225 0-40.92 10.927-79.287 30.018-112.347-12.443 7.186-24.133 15.531-34.926 24.884z" fill="#dad9dd"/></g><g><path d="m61.144 308.039c-4.142 0-7.5-3.358-7.5-7.5v-89.078c0-4.142 3.358-7.5 7.5-7.5s7.5 3.358 7.5 7.5v89.078c0 4.142-3.358 7.5-7.5 7.5z" fill="#cbcbcf"/></g><g><path d="m197.137 454.521c-1.272 0-2.562-.324-3.743-1.006l-77.144-44.539c-3.587-2.071-4.816-6.658-2.745-10.245 2.07-3.587 6.657-4.817 10.245-2.745l77.144 44.539c3.587 2.071 4.816 6.658 2.745 10.245-1.389 2.405-3.91 3.751-6.502 3.751z" fill="#cbcbcf"/></g><g><path d="m314.862 454.521c-2.592 0-5.113-1.345-6.502-3.751-2.071-3.587-.842-8.174 2.745-10.245l77.145-44.539c3.585-2.072 8.174-.843 10.245 2.745 2.071 3.587.842 8.174-2.745 10.245l-77.145 44.539c-1.18.682-2.47 1.006-3.743 1.006z" fill="#cbcbcf"/></g><path d="m428.048 346.671-157.048-90.671 157.048-90.671c3.587-2.071 4.816-6.658 2.745-10.245-2.07-3.588-6.66-4.817-10.245-2.745l-157.048 90.671v-181.343c0-4.142-3.357-7.5-7.5-7.5-4.142 0-7.5 3.358-7.5 7.5v181.343l-157.047-90.672c-3.588-2.072-8.175-.842-10.245 2.745-2.071 3.587-.842 8.174 2.745 10.245l157.047 90.672-157.047 90.671c-3.587 2.071-4.816 6.658-2.745 10.245 1.389 2.406 3.91 3.751 6.502 3.751 1.272 0 2.562-.324 3.743-1.006l157.047-90.671v181.343c0 4.142 3.358 7.5 7.5 7.5 4.143 0 7.5-3.358 7.5-7.5v-181.343l157.048 90.671c1.182.682 2.471 1.006 3.743 1.006 2.592 0 5.113-1.346 6.502-3.751 2.071-3.587.842-8.174-2.745-10.245z" fill="#dad9dd"/><g><path d="m189.671 209.045 58.829-33.965c4.641-2.679 10.359-2.679 15 0l58.829 33.965c4.641 2.679 7.5 7.631 7.5 12.99v67.93c0 5.359-2.859 10.311-7.5 12.99l-58.829 33.965c-4.641 2.68-10.359 2.68-15 0l-58.829-33.965c-4.641-2.68-7.5-7.631-7.5-12.99v-67.93c0-5.359 2.859-10.311 7.5-12.99z" fill="#7c5577"/></g><g><path d="m256 31c-25.863 0-50.7 4.377-73.829 12.408v21.557c0 5.359 2.859 10.311 7.5 12.99l58.829 33.965c4.641 2.679 10.359 2.679 15 0l58.829-33.965c4.641-2.679 7.5-7.631 7.5-12.99v-21.557c-23.129-8.031-47.966-12.408-73.829-12.408z" fill="#7c5577"/></g><g><path d="m322.329 434.045-58.829-33.965c-4.641-2.679-10.359-2.679-15 0l-58.829 33.965c-4.641 2.679-7.5 7.631-7.5 12.99v21.557c23.129 8.031 47.966 12.408 73.829 12.408s50.7-4.377 73.829-12.408v-21.557c0-5.359-2.859-10.311-7.5-12.99z" fill="#603256"/></g><g><path d="m34.997 213.654 18.648 10.766c4.641 2.679 10.359 2.679 15 0l58.829-33.965c4.641-2.679 7.5-7.631 7.5-12.99v-67.929c0-5.359-2.859-10.311-7.5-12.99l-18.629-10.756c-37.528 32.473-64.19 77.154-73.848 127.864z" fill="#7c5577"/></g><g><path d="m113.635 173.365c0-27.048 4.778-52.978 13.528-76.999l-18.311-10.572c-37.529 32.472-64.209 77.143-73.868 127.852l18.66 10.774c4.641 2.679 10.359 2.679 15 0l46.303-26.733c-.859-7.991-1.312-16.103-1.312-24.322z" fill="#603256"/></g><g><path d="m458.356 287.58c-4.641-2.679-10.359-2.679-15 0l-58.829 33.965c-4.641 2.679-7.5 7.631-7.5 12.99v67.929c0 5.359 2.859 10.311 7.5 12.99l18.628 10.755c37.528-32.473 64.19-77.154 73.848-127.864z" fill="#7c5577"/></g><g><path d="m377.027 395.096v7.369c0 5.359 2.859 10.311 7.5 12.99l18.622 10.751c18.987-16.43 35.2-35.981 47.833-57.859-22.485 12.984-47.427 22.187-73.955 26.749z" fill="#603256"/></g><g><path d="m127.473 321.545-58.829-33.965c-4.641-2.679-10.359-2.679-15 0l-18.648 10.766c9.659 50.709 36.321 95.39 73.848 127.864l18.628-10.755c4.641-2.679 7.5-7.631 7.5-12.99v-67.929c.001-5.36-2.858-10.312-7.499-12.991z" fill="#603256"/></g><g><path d="m403.155 85.79-18.628 10.755c-4.641 2.679-7.5 7.631-7.5 12.99v67.929c0 5.359 2.859 10.311 7.5 12.99l58.829 33.965c4.641 2.679 10.359 2.679 15 0l18.648-10.766c-9.659-50.709-36.321-95.39-73.849-127.863z" fill="#7c5577"/></g></g></g></svg>