<svg id="Capa_1" enable-background="new 0 0 512 512" height="512" viewBox="0 0 512 512" width="512" xmlns="http://www.w3.org/2000/svg"><g><g><path d="m19.903 156.879c-12.815 30.488-19.903 63.976-19.903 99.121 0 141.385 114.615 256 256 256s256-114.615 256-256c0-35.145-7.088-68.633-19.903-99.121z" fill="#603256"/></g><g><path d="m45.958 404.34 21.887-8v65.763h-21.887c-15.951 0-28.881-12.931-28.881-28.881 0-15.951 12.931-28.882 28.881-28.882z" fill="#f9d987"/></g><g><path d="m466.042 404.34-21.887-7v64.763h21.887c15.951 0 28.881-12.931 28.881-28.881 0-15.951-12.931-28.882-28.881-28.882z" fill="#f9d987"/></g><g><path d="m466.042 288.814-21.887-7v72.763l21.887-8c15.951 0 28.881-12.931 28.881-28.881 0-15.951-12.931-28.882-28.881-28.882z" fill="#f9d987"/></g><g><path d="m466.042 173.289-21.887-6v70.763l21.887-7c15.951 0 28.881-12.931 28.881-28.881 0-15.952-12.931-28.882-28.881-28.882z" fill="#f9d987"/></g><g><path d="m45.958 288.814 21.887-5v68.763l-21.887-6c-15.951 0-28.881-12.931-28.881-28.881 0-15.951 12.931-28.882 28.881-28.882z" fill="#f9d987"/></g><g><path d="m45.958 173.289 21.887-4v65.763l-21.887-4c-15.951 0-28.881-12.931-28.881-28.881 0-15.952 12.931-28.882 28.881-28.882z" fill="#f9d987"/></g><g><path d="m492.097 156.879c-11.609-27.618-27.928-52.763-47.942-74.448v90.858h21.887c11.483 0 21.401-6.703 26.055-16.41z" fill="#ffcb37"/></g><g><path d="m466.042 231.051h-21.887v57.763h21.887c15.951 0 28.881-12.931 28.881-28.881 0-15.951-12.931-28.882-28.881-28.882z" fill="#ffcb37"/></g><g><path d="m466.042 346.577h-21.887v57.763h21.887c15.951 0 28.881-12.931 28.881-28.881 0-15.951-12.931-28.882-28.881-28.882z" fill="#ffcb37"/></g><g><path d="m19.903 156.879c4.655 9.706 14.572 16.409 26.055 16.409h21.887v-90.857c-20.014 21.685-36.334 46.831-47.942 74.448z" fill="#ffcb37"/></g><g><path d="m45.958 231.051h21.887v57.763h-21.887c-15.951 0-28.881-12.931-28.881-28.881 0-15.951 12.931-28.882 28.881-28.882z" fill="#ffcb37"/></g><g><path d="m45.958 346.577h21.887v57.763h-21.887c-15.951 0-28.881-12.931-28.881-28.881 0-15.951 12.931-28.882 28.881-28.882z" fill="#ffcb37"/></g><g><path d="m425.999 64.615-169.999-26.948-169.999 26.948c-10.865 9.658-20.912 20.215-30.001 31.575v365.76c0 35.25 35.5 59.43 68.3 46.53l37.03-14.56 76.37-30.04c11.76-4.62 24.84-4.62 36.6 0l76.37 30.04 37.03 14.56c32.8 12.9 68.3-11.28 68.3-46.53v-365.76c-9.089-11.36-19.136-21.917-30.001-31.575z" fill="#ff5252"/></g><g><path d="m56 96.19v365.76c0 35.25 35.5 59.43 68.3 46.53l37.03-14.56 76.37-30.04c5.88-2.31 12.089-3.465 18.299-3.465-14.81-.001-26.816-12.007-26.816-26.817 0-14.811 12.007-26.817 26.817-26.817v-320.746c-8.284 0-15-6.716-15-15s6.716-15 15-15v-18.368l-169.999 26.948c-10.865 9.658-20.912 20.215-30.001 31.575z" fill="#f44040"/></g><g><path d="m86 126.071c0 9.581 12.211 13.707 17.96 6.043 34.651-46.192 89.852-76.079 152.04-76.079s117.389 29.888 152.04 76.079c5.749 7.664 17.96 3.538 17.96-6.043v-61.455c-45.212-40.19-104.749-64.616-170-64.616s-124.788 24.426-170 64.615z" fill="#d62b2b"/></g><g><path d="m103.98 359.913c-5.761-7.677-17.981-3.585-17.981 6.014v96.025c0 14.1 14.198 23.773 27.32 18.612 0 0 52.233-20.511 87.176-34.202 8.806-3.45 8.339-16.06-.696-18.855-38.678-11.963-72.071-35.95-95.819-67.594z" fill="#d62b2b"/></g><g><path d="m312.201 427.507c-9.035 2.795-9.502 15.404-.696 18.855 34.943 13.691 87.176 34.203 87.176 34.203 13.122 5.16 27.32-4.513 27.32-18.612v-96.025c0-9.599-12.22-13.691-17.981-6.014-23.748 31.643-57.141 55.63-95.819 67.593z" fill="#d62b2b"/></g><g><path d="m360.963 125.152c-15.211-13.178-32.93-23.533-52.341-30.273h-105.245c-19.41 6.74-37.13 17.095-52.341 30.273l-52.551 91.021c-1.869 9.793-2.859 19.897-2.859 30.234s.99 20.442 2.859 30.234l52.551 91.021c15.211 13.178 32.93 23.533 52.341 30.273h105.245c19.41-6.74 37.13-17.095 52.341-30.273l52.551-91.021c1.869-9.793 2.859-19.897 2.859-30.234s-.99-20.442-2.859-30.234z" fill="#ebeaec"/></g><g><g><path d="m352.93 149.503c-1.272 0-2.562-.324-3.743-1.006l-54.987-31.747c-3.587-2.071-4.816-6.658-2.745-10.245 2.07-3.587 6.655-4.817 10.245-2.745l54.986 31.746c3.587 2.071 4.816 6.658 2.745 10.245-1.388 2.406-3.91 3.752-6.501 3.752z" fill="#dad9dd"/></g><g><path d="m159.07 149.503c-2.592 0-5.113-1.345-6.502-3.751-2.071-3.587-.842-8.174 2.745-10.245l54.987-31.747c3.585-2.072 8.174-.843 10.245 2.745 2.071 3.587.842 8.174-2.745 10.245l-54.986 31.746c-1.181.683-2.471 1.007-3.744 1.007z" fill="#dad9dd"/></g><g><path d="m394.887 285.654c-4.143 0-7.5-3.358-7.5-7.5v-63.492c0-4.142 3.357-7.5 7.5-7.5s7.5 3.358 7.5 7.5v63.492c0 4.142-3.358 7.5-7.5 7.5z" fill="#dad9dd"/></g><g><path d="m151.028 125.167-52.557 91.032c-1.865 9.784-2.843 19.882-2.843 30.208 0 10.337.99 20.442 2.859 30.234l52.551 91.021c15.211 13.178 32.93 23.533 52.341 30.273h105.245v.008c19.417-6.742 37.136-17.112 52.35-30.297l19.48-33.741c-20.013 8.976-42.198 13.974-65.553 13.974-88.571 0-160.373-71.801-160.373-160.373 0-29.167 7.789-56.513 21.396-80.077-8.871 5.124-17.203 11.072-24.896 17.738z" fill="#dad9dd"/></g><g><path d="m117.113 285.654c-4.143 0-7.5-3.358-7.5-7.5v-63.492c0-4.142 3.357-7.5 7.5-7.5s7.5 3.358 7.5 7.5v63.492c0 4.142-3.357 7.5-7.5 7.5z" fill="#cbcbcf"/></g><g><path d="m214.043 390.062c-1.272 0-2.562-.324-3.743-1.006l-54.986-31.746c-3.587-2.071-4.816-6.658-2.745-10.245 2.069-3.587 6.655-4.817 10.245-2.745l54.986 31.746c3.587 2.071 4.816 6.658 2.745 10.245-1.389 2.405-3.91 3.751-6.502 3.751z" fill="#cbcbcf"/></g><g><path d="m297.957 390.062c-2.592 0-5.113-1.345-6.502-3.751-2.071-3.587-.842-8.174 2.745-10.245l54.986-31.746c3.585-2.071 8.175-.843 10.245 2.745 2.071 3.587.842 8.174-2.745 10.245l-54.986 31.745c-1.18.682-2.471 1.007-3.743 1.007z" fill="#cbcbcf"/></g><path d="m379.707 309.17-108.707-62.762 108.707-62.762c3.587-2.071 4.816-6.658 2.745-10.245-2.071-3.588-6.66-4.817-10.245-2.745l-108.707 62.761v-125.523c0-4.142-3.357-7.5-7.5-7.5s-7.5 3.358-7.5 7.5v125.524l-108.707-62.762c-3.59-2.072-8.175-.842-10.245 2.745-2.071 3.587-.842 8.174 2.745 10.245l108.707 62.762-108.707 62.762c-3.587 2.071-4.816 6.658-2.745 10.245 1.389 2.406 3.91 3.751 6.502 3.751 1.272 0 2.563-.324 3.743-1.006l108.707-62.762v125.524c0 4.142 3.357 7.5 7.5 7.5s7.5-3.358 7.5-7.5v-125.524l108.707 62.762c1.182.682 2.471 1.006 3.743 1.006 2.592 0 5.113-1.346 6.502-3.751 2.071-3.587.842-8.174-2.745-10.245z" fill="#dad9dd"/><g><path d="m208.723 212.94 41.931-24.209c3.308-1.91 7.384-1.91 10.692 0l41.931 24.209c3.308 1.91 5.346 5.439 5.346 9.259v48.418c0 3.82-2.038 7.349-5.346 9.259l-41.931 24.209c-3.308 1.91-7.384 1.91-10.692 0l-41.931-24.209c-3.308-1.91-5.346-5.439-5.346-9.259v-48.418c0-3.82 2.038-7.349 5.346-9.259z" fill="#7c5577"/></g><g><path d="m256 86.035c-18.434 0-36.137 3.12-52.623 8.844v15.365c0 3.82 2.038 7.349 5.346 9.259l41.931 24.209c3.308 1.91 7.384 1.91 10.692 0l41.931-24.209c3.308-1.91 5.346-5.439 5.346-9.259v-15.365c-16.486-5.724-34.189-8.844-52.623-8.844z" fill="#7c5577"/></g><g><path d="m303.277 373.312-41.931-24.209c-3.308-1.91-7.384-1.91-10.692 0l-41.931 24.209c-3.308 1.91-5.346 5.439-5.346 9.259v15.365c16.485 5.724 34.188 8.844 52.623 8.844s36.137-3.12 52.623-8.844v-15.365c0-3.819-2.038-7.349-5.346-9.259z" fill="#603256"/></g><g><path d="m98.476 216.225 13.291 7.674c3.308 1.91 7.384 1.91 10.692 0l41.931-24.209c3.308-1.91 5.346-5.439 5.346-9.259v-48.418c0-3.82-2.038-7.349-5.346-9.259l-13.277-7.666c-26.749 23.146-45.753 54.993-52.637 91.137z" fill="#7c5577"/></g><g><path d="m154.527 187.508c0-19.279 3.405-37.761 9.642-54.883l-13.051-7.535c-26.749 23.145-45.766 54.985-52.651 91.129l13.301 7.679c3.308 1.91 7.384 1.91 10.692 0l33.003-19.054c-.613-5.695-.936-11.478-.936-17.336z" fill="#603256"/></g><g><path d="m400.232 268.917c-3.308-1.91-7.384-1.91-10.691 0l-41.931 24.209c-3.308 1.91-5.346 5.439-5.346 9.259v48.418c0 3.82 2.038 7.349 5.346 9.259l13.277 7.666c26.749-23.146 45.752-54.993 52.637-91.137z" fill="#7c5577"/></g><g><path d="m342.264 345.551v5.252c0 3.82 2.038 7.349 5.346 9.259l13.273 7.663c13.533-11.711 25.089-25.646 34.094-41.24-16.027 9.255-33.805 15.814-52.713 19.066z" fill="#603256"/></g><g><path d="m164.39 293.126-41.931-24.209c-3.308-1.91-7.384-1.91-10.692 0l-13.291 7.674c6.884 36.144 25.888 67.991 52.637 91.137l13.277-7.666c3.308-1.91 5.346-5.439 5.346-9.259v-48.418c0-3.82-2.038-7.349-5.346-9.259z" fill="#603256"/></g><g><path d="m360.887 125.088-13.277 7.666c-3.308 1.91-5.346 5.439-5.346 9.259v48.418c0 3.82 2.038 7.349 5.346 9.259l41.931 24.209c3.308 1.91 7.384 1.91 10.691 0l13.291-7.674c-6.883-36.144-25.887-67.991-52.636-91.137z" fill="#7c5577"/></g></g></g></svg>