<svg id="Capa_1" enable-background="new 0 0 512 512" height="512" viewBox="0 0 512 512" width="512" xmlns="http://www.w3.org/2000/svg"><g><g><path d="m131 479.439h250c78.164-43.822 131-127.454 131-223.439 0-141.385-114.615-256-256-256s-256 114.615-256 256c0 95.985 52.836 179.617 131 223.439z" fill="#5e73dd"/></g><g><g><path d="m352.143 35.83c-13.933-12.071-30.163-21.555-47.943-27.729h-96.4c-17.779 6.174-34.01 15.658-47.942 27.729l-48.135 83.372c-1.712 8.97-2.618 18.225-2.618 27.694s.907 18.724 2.618 27.694l48.135 83.372c13.932 12.071 30.163 21.556 47.942 27.729h96.4c17.779-6.174 34.01-15.658 47.942-27.729l48.135-83.372c1.712-8.97 2.618-18.225 2.618-27.694s-.907-18.724-2.618-27.694z" fill="#f9d987"/></g><g><path d="m344.783 58.765c-1.272 0-2.562-.324-3.743-1.006l-50.365-29.079c-3.587-2.071-4.816-6.658-2.745-10.245 2.07-3.587 6.656-4.817 10.245-2.745l50.365 29.079c3.587 2.071 4.816 6.658 2.745 10.245-1.389 2.405-3.91 3.751-6.502 3.751z" fill="#ffcb37"/></g><g><path d="m167.217 58.765c-2.592 0-5.112-1.345-6.502-3.751-2.071-3.587-.842-8.174 2.745-10.245l50.365-29.079c3.586-2.071 8.173-.843 10.245 2.745 2.071 3.587.842 8.174-2.745 10.245l-50.365 29.078c-1.181.682-2.471 1.007-3.743 1.007z" fill="#ffcb37"/></g><g><path d="m383.216 183.474c-4.143 0-7.5-3.358-7.5-7.5v-58.157c0-4.142 3.357-7.5 7.5-7.5s7.5 3.358 7.5 7.5v58.157c0 4.142-3.358 7.5-7.5 7.5z" fill="#ffcb37"/></g><g><path d="m159.849 35.844-48.141 83.382c-1.708 8.961-2.605 18.211-2.605 27.67 0 9.469.907 18.724 2.618 27.694l48.135 83.372c13.932 12.071 30.163 21.556 47.942 27.729h96.401v.007c17.785-6.176 34.015-15.674 47.951-27.751l17.843-30.905c-18.332 8.222-38.652 12.8-60.044 12.8-81.128 0-146.896-65.768-146.896-146.896 0-26.716 7.134-51.764 19.598-73.348-8.124 4.691-15.755 10.14-22.802 16.246z" fill="#ffcb37"/></g><g><path d="m128.784 183.474c-4.143 0-7.5-3.358-7.5-7.5v-58.157c0-4.142 3.357-7.5 7.5-7.5s7.5 3.358 7.5 7.5v58.157c0 4.142-3.357 7.5-7.5 7.5z" fill="#fcac1f"/></g><g><path d="m217.568 279.108c-1.272 0-2.562-.324-3.743-1.006l-50.365-29.078c-3.587-2.071-4.816-6.658-2.745-10.245 2.07-3.587 6.655-4.817 10.245-2.745l50.365 29.078c3.587 2.071 4.816 6.658 2.745 10.245-1.388 2.406-3.91 3.751-6.502 3.751z" fill="#fcac1f"/></g><g><path d="m294.432 279.108c-2.592 0-5.113-1.345-6.502-3.751-2.071-3.587-.842-8.174 2.745-10.245l50.365-29.078c3.586-2.071 8.175-.843 10.245 2.745 2.071 3.587.842 8.174-2.745 10.245l-50.365 29.078c-1.181.682-2.471 1.006-3.743 1.006z" fill="#fcac1f"/></g><path d="m369.627 203.838-98.627-56.942 98.627-56.942c3.587-2.071 4.816-6.658 2.745-10.245-2.07-3.587-6.66-4.817-10.245-2.745l-98.627 56.942v-113.885c0-4.142-3.357-7.5-7.5-7.5s-7.5 3.358-7.5 7.5v113.884l-98.627-56.942c-3.59-2.072-8.175-.842-10.245 2.745-2.071 3.587-.842 8.174 2.745 10.245l98.627 56.943-98.627 56.942c-3.587 2.071-4.816 6.658-2.745 10.245 1.389 2.406 3.91 3.751 6.502 3.751 1.272 0 2.563-.324 3.743-1.006l98.627-56.942v113.885c0 4.142 3.357 7.5 7.5 7.5s7.5-3.358 7.5-7.5v-113.885l98.627 56.942c1.182.682 2.471 1.006 3.743 1.006 2.592 0 5.113-1.346 6.502-3.751 2.071-3.587.842-8.174-2.745-10.245z" fill="#ffcb37"/><g><path d="m212.696 116.24 38.408-22.175c3.03-1.749 6.763-1.749 9.793 0l38.408 22.175c3.03 1.749 4.897 4.982 4.897 8.481v44.349c0 3.499-1.867 6.732-4.897 8.481l-38.408 22.175c-3.03 1.749-6.763 1.749-9.793 0l-38.408-22.175c-3.03-1.749-4.897-4.982-4.897-8.481v-44.349c0-3.498 1.867-6.731 4.897-8.481z" fill="#ffcb37"/></g><g><path d="m256 0c-16.885 0-33.101 2.858-48.201 8.101v14.074c0 3.499 1.867 6.732 4.897 8.481l38.408 22.175c3.03 1.749 6.763 1.749 9.793 0l38.407-22.175c3.03-1.749 4.897-4.982 4.897-8.481v-14.074c-15.1-5.243-31.316-8.101-48.201-8.101z" fill="#ffcb37"/></g><g><path d="m299.304 263.136-38.407-22.175c-3.03-1.749-6.763-1.749-9.793 0l-38.408 22.175c-3.03 1.749-4.897 4.982-4.897 8.481v14.074c15.1 5.243 31.315 8.101 48.201 8.101s33.101-2.858 48.201-8.101v-14.074c0-3.499-1.867-6.732-4.897-8.481z" fill="#fcac1f"/></g><g><path d="m111.713 119.249 12.174 7.029c3.03 1.749 6.763 1.749 9.793 0l38.408-22.175c3.03-1.749 4.897-4.982 4.897-8.481v-44.349c0-3.499-1.867-6.732-4.897-8.481l-12.162-7.022c-24.5 21.202-41.907 50.372-48.213 83.479z" fill="#ffcb37"/></g><g><path d="m163.054 92.946c0-17.659 3.119-34.588 8.832-50.271l-11.955-6.902c-24.501 21.2-41.92 50.365-48.226 83.471l12.183 7.034c3.03 1.749 6.763 1.749 9.793 0l30.23-17.453c-.561-5.217-.857-10.513-.857-15.879z" fill="#fcac1f"/></g><g><path d="m388.112 167.514c-3.03-1.749-6.763-1.749-9.793 0l-38.407 22.175c-3.03 1.749-4.897 4.982-4.897 8.481v44.349c0 3.499 1.866 6.732 4.897 8.481l12.162 7.022c24.501-21.201 41.908-50.372 48.213-83.478z" fill="#ffcb37"/></g><g><path d="m335.015 237.708v4.811c0 3.499 1.866 6.732 4.897 8.481l12.158 7.019c12.396-10.727 22.981-23.491 31.229-37.775-14.681 8.477-30.965 14.485-48.284 17.464z" fill="#fcac1f"/></g><g><path d="m172.088 189.688-38.408-22.175c-3.03-1.749-6.763-1.749-9.793 0l-12.174 7.029c6.306 33.107 23.713 62.277 48.213 83.478l12.162-7.022c3.03-1.749 4.897-4.982 4.897-8.481v-44.349c0-3.497-1.867-6.73-4.897-8.48z" fill="#fcac1f"/></g><g><path d="m352.073 35.771-12.162 7.022c-3.03 1.749-4.897 4.982-4.897 8.481v44.349c0 3.499 1.866 6.732 4.897 8.481l38.407 22.175c3.03 1.749 6.763 1.749 9.793 0l12.175-7.029c-6.305-33.108-23.712-62.278-48.213-83.479z" fill="#ffcb37"/></g></g><g><path d="m256 293.792h-45.667v15s25.667 26.875 25.667 94.875h20 20c0-68 25.667-94.875 25.667-94.875v-15z" fill="#ffcb37"/></g><g><g><path d="m256 403.667h20c0-24.681 3.382-43.939 7.69-58.466-5.171 10.033-15.625 16.898-27.69 16.898s-22.519-6.866-27.69-16.899c4.308 14.527 7.69 33.786 7.69 58.467z" fill="#fcac1f"/></g></g><g><path d="m331 278.792h-150c-8.284 0-15 6.716-15 15 0 8.284 77.681 15 85.966 15h79.034c8.284 0 15-6.716 15-15 0-8.285-6.716-15-15-15z" fill="#f9d987"/></g><g><path d="m241 293.792c0-8.284 6.716-15 15-15h-75c-8.284 0-15 6.716-15 15s6.716 15 15 15h75c-8.284 0-15-6.716-15-15z" fill="#ffcb37"/></g><g><path d="m331 418.667h-79.298c-8.284 0-85.702 6.716-85.702 15 0 8.284 6.716 15 15 15h150c8.284 0 15-6.716 15-15 0-8.285-6.716-15-15-15z" fill="#f9d987"/></g><g><path d="m241 433.667c0-8.284 6.716-15 15-15h-75c-8.284 0-15 6.716-15 15s6.716 15 15 15h75c-8.284 0-15-6.716-15-15z" fill="#ffcb37"/></g><g><path d="m301 388.667h-90c-8.284 0-15 6.716-15 15 0 8.284 6.716 15 15 15h90c8.284 0 15-6.716 15-15 0-8.285-6.716-15-15-15z" fill="#ffcb37"/></g><g><path d="m381 468.667c0-11.046-8.954-20-20-20h-210c-11.046 0-20 8.954-20 20v10.772c36.971 20.727 79.6 32.561 125 32.561s88.029-11.834 125-32.561z" fill="#7c5577"/></g><g><path d="m131 468.667v10.772c24.468 13.718 51.41 23.545 80 28.615v-39.387c0-11.046 8.954-20 20-20h-80c-11.046 0-20 8.954-20 20z" fill="#603256"/></g></g></svg>