<svg id="Capa_1" enable-background="new 0 0 512 512" height="512" viewBox="0 0 512 512" width="512" xmlns="http://www.w3.org/2000/svg"><g><g><path d="m40.57 271.07v123.275c18.677 29.024 43.061 54.024 71.563 73.425h287.733c28.503-19.401 52.886-44.401 71.563-73.425l.44-123.275h39.677c.29-4.988.453-10.01.453-15.07.001-141.385-114.614-256-255.999-256s-256 114.615-256 256c0 5.061.164 10.082.453 15.07z" fill="#69d173"/></g><g><g><path d="m432.6 70.66c-2.46-5.3-4.37-8.97-5.6-10.66-11.75-16.128-26.646-25.752-45.227-33.288h-33.555l-21.987-15.461h-140.462l-21.987 15.461h-33.555c-18.581 7.536-33.477 17.16-45.227 33.288-1.23 1.69-3.14 5.36-5.6 10.66-15.1 32.51-51.07 126.37-78.96 200.41h6.519v44.433c6.764 28.413 18.26 54.994 33.611 78.857l83.7-198.12c4.14 43.37 7.73 91.46 7.73 127.76 0 50.18-10.86 106.07-19.87 143.77 6.283 4.277 12.768 8.279 19.435 11.994h32.218l21.912 22.447c14.886 4.244 30.323 7.179 46.183 8.662l24.122-24.248 24.123 24.248c15.86-1.483 31.297-4.418 46.183-8.662l21.912-22.447h32.218c6.667-3.716 13.152-7.717 19.435-11.994-9.011-37.7-19.871-93.59-19.871-143.77 0-36.3 3.59-84.39 7.73-127.76l83.7 198.12c15.351-23.863 26.847-50.444 33.611-78.857v-44.433h6.519c-27.89-74.04-63.86-167.9-78.96-200.41z" fill="#7c5577"/></g><g><path d="m170.26 22.157-6.478 4.555h-33.555c-18.581 7.536-33.477 17.16-45.227 33.288-1.23 1.69-3.14 5.36-5.6 10.66-15.1 32.51-51.07 126.37-78.96 200.41h6.519v44.433c6.764 28.413 18.26 54.994 33.611 78.857l83.7-198.12c4.14 43.37 7.73 91.46 7.73 127.76 0 50.18-10.86 106.07-19.87 143.77 6.283 4.277 12.768 8.279 19.435 11.994h32.218l21.912 22.447c14.886 4.244 30.323 7.179 46.183 8.662l24.122-24.248 24.123 24.248c15.86-1.483 31.297-4.418 46.183-8.662l21.912-22.447h32.218c6.667-3.716 13.152-7.717 19.435-11.994-144.092 0-226.277-271.206-229.611-445.613z" fill="#603256"/></g><g><path d="m185.769 11.251h-15.625c-8.248 3.659-17.79 7.586-27.144 10.749-4.442 1.5-8.693 3.057-12.773 4.712 8.502 37.091 25.773 189.821 25.773 229.288s.027 78.933 0 118.4c-.026 37.146-15.59 70.335-24.435 105.364 16.951 9.448 35.088 17.019 54.13 22.447 1.887-42.768 10.329-84.85 10.305-127.811-.022-39.467 0-78.933 0-118.4s-.022-78.933 0-118.4c.024-42.475-8.219-84.081-10.231-126.349z" fill="#ebeaec"/></g><g><path d="m143 22c-4.442 1.5-8.693 3.057-12.773 4.712 8.502 37.091 25.773 189.821 25.773 229.288s.027 78.933 0 118.4c-.026 37.146-15.59 70.335-24.435 105.364 16.951 9.448 35.088 17.019 54.13 22.447 1.887-42.768 10.329-84.85 10.305-127.811-.022-39.467 0-78.933 0-118.4 0-17.706-.005-35.412-.007-53.119-17.016-66.403-25.841-134.84-25.841-191.63h-.007c-8.249 3.659-17.791 7.586-27.145 10.749z" fill="#dad9dd"/></g><g><path d="m381.773 26.712c-4.08-1.655-8.331-3.212-12.773-4.712-9.354-3.163-18.896-7.09-27.145-10.749h-15.625c-2.011 42.268-10.254 83.874-10.23 126.349.022 39.467 0 78.933 0 118.4s.022 78.933 0 118.4c-.024 42.961 8.418 85.043 10.305 127.811 19.042-5.428 37.18-13 54.13-22.447-8.845-35.029-24.409-68.217-24.435-105.364-.027-39.467 0-78.933 0-118.4s17.271-192.197 25.773-229.288z" fill="#ebeaec"/></g><g><path d="m326.305 502.211c19.042-5.428 37.18-13 54.13-22.447-1.223-4.845-2.578-9.653-3.999-14.443-20.054-4.239-38.763-13.845-56.078-27.655 2.365 21.475 4.993 42.923 5.947 64.545z" fill="#dad9dd"/></g><g><path d="m280.015 11.251h-48.03c.93 81.597 4.015 163.073 4.015 244.749 0 85.053-3.35 169.891-4.123 254.873 7.942.743 15.987 1.127 24.123 1.127s16.181-.384 24.123-1.127c-.773-84.982-4.123-169.82-4.123-254.873 0-81.676 3.085-163.152 4.015-244.749z" fill="#ebeaec"/></g><g><path d="m280.123 510.873c-.359-39.556-1.277-79.081-2.156-118.611-15.824-21.703-30.005-47.048-42.473-74.647-.965 64.441-3.031 128.808-3.617 193.258 7.942.743 15.987 1.127 24.123 1.127s16.181-.384 24.123-1.127z" fill="#dad9dd"/></g><g><path d="m511.56 271.07c-16.826-44.667-36.591-96.544-52.941-137.816-13.709 9.139-19.001 26.724-12.612 41.911l59.034 140.338c3.423-14.38 5.639-29.227 6.519-44.433z" fill="#603256"/></g><g><path d="m.44 271.07c16.826-44.667 36.591-96.544 52.941-137.816 13.709 9.139 19.001 26.724 12.612 41.911l-59.034 140.338c-3.423-14.38-5.639-29.227-6.519-44.433z" fill="#4f2649"/></g><g><path d="m170.152 11.251c11.414 16.478 38.168 45.249 85.848 45.249s74.434-28.771 85.848-45.249c-5.154-2.286-9.805-4.468-13.579-6.29-6.773-3.27-14.192-4.961-21.713-4.961h-50.556-50.556c-7.521 0-14.94 1.691-21.713 4.961-3.775 1.823-8.426 4.004-13.579 6.29z" fill="#dad9dd"/></g><g><path d="m124.27 196.236v.001-.001c-2.906-30.457-6.082-58.586-8.475-78.671-.295-2.477-3.949-2.291-3.985.203-.618 42.166-3.074 115.239-12.549 137.668z" fill="#4f2649"/></g><g><path d="m387.73 196.236v.001-.001c2.906-30.457 6.082-58.586 8.475-78.671.295-2.477 3.949-2.291 3.985.203.618 42.166 3.074 115.239 12.549 137.668z" fill="#603256"/></g><g><path d="m256 56.5c40.932 0 58.971-46.741 61.899-55.193-3.707-.863-7.511-1.307-11.343-1.307h-50.556-50.556c-3.832 0-7.636.444-11.343 1.307 2.928 8.452 20.967 55.193 61.899 55.193z" fill="#603256"/></g></g></g></svg>