<svg id="Capa_1" enable-background="new 0 0 512 512" height="512" viewBox="0 0 512 512" width="512" xmlns="http://www.w3.org/2000/svg"><g><g><path d="m112.133 467.77h287.733c67.681-46.069 112.134-123.725 112.134-211.77 0-141.385-114.615-256-256-256s-256 114.615-256 256c0 88.045 44.453 165.701 112.133 211.77z" fill="#ff5252"/></g><g><path d="m474.95 180.73c-19.1-34.61-30.45-83.99-41.86-109.59-2.01-4.53-4.03-8.31-6.09-11.14-14.33-19.67-33.33-29.67-58-38-9.356-3.164-18.9-7.092-27.15-10.751h-171.7c-8.25 3.659-17.794 7.587-27.15 10.751-24.67 8.33-43.67 18.33-58 38-2.06 2.83-4.08 6.61-6.09 11.14-11.41 25.6-22.76 74.98-41.86 109.59-1.96 3.55-1.53 7.94 1.04 11.08 7.58 9.28 26.45 26.57 62.59 28.09 3.81.16 7.39-1.88 9.21-5.24l13.71-25.35c4.41 45.12 8.4 96.44 8.4 134.69 0 50.18-10.86 106.07-19.87 143.77 6.283 4.277 12.768 8.279 19.435 11.994h32.218l21.912 22.447c22.339 6.369 45.922 9.789 70.305 9.789s47.966-3.42 70.305-9.789l21.912-22.447h32.218c6.667-3.716 13.152-7.717 19.435-11.994-9.01-37.7-19.87-93.59-19.87-143.77 0-38.25 3.99-89.57 8.4-134.69l13.71 25.35c1.82 3.36 5.4 5.4 9.21 5.24 36.14-1.52 55.01-18.81 62.59-28.09 2.57-3.14 3-7.53 1.04-11.08z" fill="#f9d987"/></g><g><path d="m170.152 11.251-.001-.002c-8.251 3.659-17.795 7.587-27.151 10.751-24.67 8.33-43.67 18.33-58 38-2.06 2.83-4.08 6.61-6.09 11.14-11.41 25.6-22.76 74.98-41.86 109.59-1.96 3.55-1.53 7.94 1.04 11.08 7.58 9.28 26.45 26.57 62.59 28.09 3.81.16 7.39-1.88 9.21-5.24l13.71-25.35c4.41 45.12 8.4 96.44 8.4 134.69 0 50.18-10.86 106.07-19.87 143.77 6.283 4.277 12.768 8.279 19.435 11.994h32.218l21.912 22.447c22.339 6.369 45.922 9.789 70.305 9.789s47.966-3.42 70.305-9.789l21.912-22.447h32.218c6.667-3.716 13.152-7.717 19.435-11.994-147.13 0-229.718-282.77-229.718-456.519z" fill="#ffcb37"/></g><g><path d="m335.997 275.503c-11.04 0-19.987 8.949-19.987 19.989 0 12.969-.002 65.939-.01 78.908-.024 42.961 8.418 85.043 10.305 127.811 19.042-5.428 37.18-13 54.13-22.447-8.845-35.029-24.409-68.217-24.435-105.364-.009-12.968-.012-65.936-.012-78.904 0-11.042-8.949-19.993-19.991-19.993z" fill="#7c5577"/></g><g><path d="m343.4 113.003h-50c-2.761 0-5 2.239-5 5v60.724c0 2.761 2.239 5 5 5h50c2.761 0 5-2.239 5-5v-60.724c0-2.761-2.239-5-5-5z" fill="#ff5252"/></g><g><path d="m388.4 189.315 13.711 25.344c1.817 3.359 5.396 5.399 9.213 5.239-6.027-5.975-9.145-67.781-10.487-104.967-.089-2.474-3.707-2.613-3.986-.154z" fill="#ffcb37"/></g><g><path d="m123.6 189.315-13.711 25.344c-1.817 3.359-5.396 5.399-9.213 5.239 6.027-5.975 9.145-67.781 10.487-104.967.089-2.474 3.707-2.613 3.986-.154z" fill="#fcac1f"/></g><g><path d="m328.269 4.961c-3.322-1.604-6.801-2.823-10.37-3.654h-123.798c-3.569.831-7.048 2.05-10.37 3.654-3.775 1.823-8.426 4.004-13.579 6.29 11.414 16.478 38.168 45.249 85.848 45.249s74.434-28.771 85.848-45.249c-5.153-2.286-9.804-4.467-13.579-6.29z" fill="#7c5577"/></g><g><path d="m256 56.5c40.932 0 58.971-46.741 61.899-55.193-3.707-.863-7.511-1.307-11.343-1.307h-50.556-50.556c-3.832 0-7.636.444-11.343 1.307 2.928 8.452 20.967 55.193 61.899 55.193z" fill="#603256"/></g><g><path d="m347.344 213.074c-18.221 9.11-39.668 9.11-57.889 0-6.776-3.388-11.056-10.313-11.056-17.889v-57.183c0-2.761 2.239-5 5-5h70c2.761 0 5 2.239 5 5v57.183c.001 7.576-4.279 14.501-11.055 17.889z" fill="#ffcb37"/></g><g><path d="m176.003 275.503c-11.041 0-19.991 8.951-19.991 19.993 0 12.968-.003 65.936-.012 78.904-.026 37.146-15.59 70.335-24.435 105.364 16.951 9.448 35.088 17.019 54.13 22.447 1.887-42.768 10.329-84.85 10.305-127.811-.007-12.969-.01-65.939-.01-78.908 0-11.04-8.947-19.989-19.987-19.989z" fill="#603256"/></g><g><path d="m326.305 502.211c19.042-5.428 37.18-13 54.13-22.447-1.223-4.845-2.578-9.653-3.999-14.443-20.054-4.239-38.763-13.845-56.078-27.655 2.365 21.475 4.993 42.923 5.947 64.545z" fill="#603256"/></g></g></svg>