<svg id="Capa_1" enable-background="new 0 0 512 512" height="512" viewBox="0 0 512 512" width="512" xmlns="http://www.w3.org/2000/svg"><g><g><path d="m112.133 467.77h287.733c67.681-46.069 112.134-123.725 112.134-211.77 0-141.385-114.615-256-256-256s-256 114.615-256 256c0 88.045 44.453 165.701 112.133 211.77z" fill="#ffcb37"/></g><g><path d="m473.91 191.81c-7.58 9.28-26.45 26.57-62.59 28.09-3.81.16-7.39-1.88-9.21-5.24l-13.71-25.35c-4.41 45.12-8.4 96.44-8.4 134.69 0 50.18 10.86 106.07 19.87 143.77-41 27.91-90.53 44.23-143.87 44.23s-102.87-16.32-143.87-44.23c9.01-37.7 19.87-93.59 19.87-143.77 0-38.25-3.99-89.57-8.4-134.69l-13.71 25.35c-1.82 3.36-5.4 5.4-9.21 5.24-36.14-1.52-55.01-18.81-62.59-28.09-2.57-3.14-3-7.53-1.04-11.08 19.1-34.61 30.45-83.99 41.86-109.59 2.01-4.53 4.03-8.31 6.09-11.14 14.33-19.67 33.33-29.67 58-38 15.2-5.14 30.91-12.3 40.73-17.04 6.77-3.27 14.19-4.96 21.71-4.96h101.12c7.52 0 14.94 1.69 21.71 4.96 9.82 4.74 25.53 11.9 40.73 17.04 24.67 8.33 43.67 18.33 58 38 2.06 2.83 4.08 6.61 6.09 11.14 11.41 25.6 22.76 74.98 41.86 109.59 1.96 3.55 1.53 7.94-1.04 11.08z" fill="#ff5252"/></g><g><path d="m170.152 11.251-.001-.002c-8.251 3.659-17.795 7.587-27.151 10.751-24.67 8.33-43.67 18.33-58 38-2.06 2.83-4.08 6.61-6.09 11.14-11.41 25.6-22.76 74.98-41.86 109.59-1.96 3.55-1.53 7.94 1.04 11.08 7.58 9.28 26.45 26.57 62.59 28.09 3.81.16 7.39-1.88 9.21-5.24l13.71-25.35c4.41 45.12 8.4 96.44 8.4 134.69 0 50.18-10.86 106.07-19.87 143.77 41 27.91 90.53 44.23 143.87 44.23s102.87-16.32 143.87-44.23c-147.13 0-229.718-282.77-229.718-456.519z" fill="#f44040"/></g><g><g><g><g><path d="m208.68 281.93c-8.284 0-15-6.716-15-15v-121.148h-14.101c-8.284 0-15-6.716-15-15s6.716-15 15-15h29.101c8.284 0 15 6.716 15 15v136.148c0 8.284-6.716 15-15 15z" fill="#ebeaec"/></g></g></g><g><g><g><g><path d="m293.05 284.708c-29.979 0-54.37-24.391-54.37-54.371v-62.963c0-29.98 24.391-54.371 54.37-54.371 29.98 0 54.371 24.391 54.371 54.371v62.963c0 29.98-24.391 54.371-54.371 54.371zm0-141.705c-13.438 0-24.37 10.933-24.37 24.371v62.963c0 13.438 10.933 24.371 24.37 24.371 13.438 0 24.371-10.933 24.371-24.371v-62.963c0-13.438-10.933-24.371-24.371-24.371z" fill="#ebeaec"/></g></g></g></g></g><g><path d="m388.4 189.315 13.711 25.344c1.817 3.359 5.396 5.399 9.213 5.239-6.027-5.975-9.145-67.781-10.487-104.967-.089-2.474-3.707-2.613-3.986-.154z" fill="#f44040"/></g><g><path d="m123.6 189.315-13.711 25.344c-1.817 3.359-5.396 5.399-9.213 5.239 6.027-5.975 9.145-67.781 10.487-104.967.089-2.474 3.707-2.613 3.986-.154z" fill="#d62b2b"/></g><g><path d="m256 60c-11.046 0-20-8.954-20-20v-40h40v40c0 11.046-8.954 20-20 20z" fill="#ffcb37"/></g></g></svg>