<svg id="Capa_1" enable-background="new 0 0 512 512" height="512" viewBox="0 0 512 512" width="512" xmlns="http://www.w3.org/2000/svg"><g><g><path d="m490.343 359.165c13.915-31.562 21.657-66.457 21.657-103.165 0-141.385-114.615-256-256-256s-256 114.615-256 256c0 36.708 7.742 71.603 21.657 103.165l199.558 150.473c11.376 1.546 22.985 2.362 34.785 2.362s23.409-.816 34.785-2.362z" fill="#603256"/></g><g><g><path d="m446 80h-380v-60c0-11.046 8.954-20 20-20h340c11.046 0 20 8.954 20 20z" fill="#ff5252"/></g><g><path d="m95.231 0h29.231v80h-29.231z" fill="#f44040"/></g><g><path d="m153.692 0h29.231v80h-29.231z" fill="#f44040"/></g><g><path d="m212.154 0h29.231v80h-29.231z" fill="#f44040"/></g><g><path d="m270.615 0h29.231v80h-29.231z" fill="#f44040"/></g><g><path d="m329.077 0h29.231v80h-29.231z" fill="#f44040"/></g><g><path d="m387.538 0h29.231v80h-29.231z" fill="#f44040"/></g><g><path d="m421.194 315.503h-148.07l-4.354-47.843c-.3-3.3-1.83-6.22-4.12-8.3-2.29-2.1-5.33-3.36-8.65-3.36-6.63 0-12.17 5.06-12.77 11.66l-4.354 47.843h-135.357l-71.243-95.596 7.734-101.377 4.58-60.05c.8-10.43 9.49-18.48 19.94-18.48h382.94c10.45 0 19.14 8.05 19.94 18.48l4.58 60.05 7.654 100.326z" fill="#ebeaec"/></g><g><path d="m273.125 315.503h29.667l-24.581-80.223c-2.991-9.761-12.003-16.425-22.211-16.425s-19.221 6.664-22.211 16.425l-24.581 80.223h29.667l4.315-47.438c.002-.021.006-.041.008-.062l.031-.344c.508-5.585 4.558-10.054 9.808-11.301.068-.017.136-.034.204-.049.263-.058.528-.105.796-.146.161-.025.322-.05.485-.07.211-.024.424-.04.638-.054.125-.008.247-.027.373-.031.077-.003.152.004.229.003.08-.001.158-.011.238-.011.141 0 .279.015.419.02.198.007.395.013.591.028.221.017.439.044.656.073.186.024.372.047.555.079.224.039.444.089.664.139.171.039.342.077.511.123.225.062.446.135.666.208.157.053.316.103.47.161.219.083.433.177.646.271.15.066.301.13.448.202.203.099.4.209.597.319.151.084.303.165.45.254.175.107.343.224.513.339.161.109.324.216.479.332.136.102.265.212.396.319.18.146.36.29.532.445.018.016.038.03.056.047.095.086.18.182.272.27.164.159.331.316.487.484.147.158.282.325.421.49.11.131.224.258.329.394.15.195.288.399.427.603.083.121.171.238.25.362.135.213.256.435.378.656.07.127.147.249.213.378.106.209.198.426.293.641.068.153.143.302.205.458.071.179.126.365.189.547.069.202.146.4.205.606.03.103.049.211.076.316.178.679.314 1.376.38 2.097z" fill="#dad9dd"/></g><g><path d="m21.657 359.165c35.206 79.855 110.019 138.307 199.558 150.473l17.606-193.545c-100.354-7.691-114.734-82.549-206.484-96.962z" fill="#ff5252"/></g><g><path d="m490.343 359.165-1.72-22.557-7.023-13.409 4.473-20.016-6.411-84.052c-91.75 14.413-106.13 89.271-206.484 96.962l17.606 193.545c64.013-8.698 120.5-41.053 160.368-87.973 3.128-3.681 3.153-13.452 6.072-17.308 3.105-4.102 9.089-2.299 11.947-6.589 8.114-12.173 15.211-25.081 21.172-38.603z" fill="#ff5252"/></g><g><path d="m155.309 491.41c20.706 8.868 42.814 15.091 65.906 18.229l17.606-193.545c-10.341-.792-19.756-2.308-28.45-4.387z" fill="#f44040"/></g><g><path d="m301.629 311.706c-8.694 2.079-18.109 3.594-28.45 4.387l17.606 193.545c23.092-3.138 45.2-9.361 65.906-18.229z" fill="#f44040"/></g><g><path d="m436.194 344.995v44.433c0 12.919 5.764 24.51 14.846 32.361 6.519-7.662 12.596-15.712 18.188-24.112-1.889-2.229-3.034-5.106-3.034-8.249v-44.433c0-7.049 5.734-12.784 12.783-12.784 3.851 0 7.302 1.719 9.647 4.422l-2.58-33.828c-2.301-.384-4.659-.594-7.067-.594-23.591 0-42.783 19.193-42.783 42.784z" fill="#ebeaec"/></g><g><g><g><path d="m406.194 430.25c-8.284 0-15-6.716-15-15v-81.078h-5.536c-8.284 0-15-6.716-15-15s6.716-15 15-15h20.536c8.284 0 15 6.716 15 15v96.078c0 8.285-6.716 15-15 15z" fill="#ebeaec"/></g></g></g><g><path d="m121.47 79.727 3.03-39.727h-59.967c-10.456 0-19.147 8.054-19.942 18.479l-7.591 99.521c44.288 0 81.102-34.113 84.47-78.273z" fill="#dad9dd"/></g><g><path d="m390.53 79.727-3.03-39.727h59.967c10.456 0 19.147 8.054 19.942 18.479l7.591 99.521c-44.288 0-81.102-34.113-84.47-78.273z" fill="#dad9dd"/></g></g></g></svg>