<svg id="Capa_1" enable-background="new 0 0 512 512" height="512" viewBox="0 0 512 512" width="512" xmlns="http://www.w3.org/2000/svg"><g><g><path d="m455.982 415.81c35.047-43.8 56.018-99.352 56.018-159.81 0-141.385-114.615-256-256-256s-256 114.615-256 256c0 60.458 20.971 116.01 56.018 159.81z" fill="#5e73dd"/></g><g><path d="m376.34 447.41h49.63c10.876-9.665 20.933-20.23 30.03-31.6v-365.81c0-27.61-22.39-50-50-50h-300c-27.61 0-50 22.39-50 50v365.81c9.097 11.37 19.154 21.935 30.03 31.6h49.63v34.578c35.875 19.145 76.837 30.012 120.34 30.012s84.465-10.867 120.34-30.012z" fill="#7c5577"/></g><g><path d="m256 0h-150c-27.61 0-50 22.39-50 50v365.81c9.097 11.37 19.154 21.935 30.03 31.6h49.63v34.578c35.875 19.145 76.837 30.012 120.34 30.012-8.284 0-15-6.716-15-15s6.716-15 15-15v-452c-8.284 0-15-6.716-15-15s6.716-15 15-15z" fill="#603256"/></g><g><path d="m406 30h-30l-15 15-15-15h-180l-15 15-15-15h-30c-11.03 0-20 8.97-20 20v397.41c15.07 13.39 31.73 25.03 49.66 34.59h240.68c17.93-9.56 34.59-21.2 49.66-34.59v-397.41c0-11.03-8.97-20-20-20z" fill="#7cdd83"/></g><g><path d="m136 328.305v-298.305h-30c-11.046 0-20 8.954-20 20v397.41c15.07 13.39 31.73 25.03 49.66 34.59h240.68c17.93-9.56 34.59-21.2 49.66-34.59v-19.105h-190c-55.228 0-100-44.772-100-100z" fill="#5fc16a"/></g><g><g><g><path d="m346 30v70h-180v-70h-30v85c0 8.284 6.716 15 15 15h40.74c6.812 29.187 33.028 51 64.26 51s57.448-21.813 64.26-51h40.74c8.284 0 15-6.716 15-15v-85zm-90 121c-14.499 0-27.014-8.62-32.713-21h65.427c-5.7 12.38-18.215 21-32.714 21z" fill="#fff"/></g></g><g><path d="m176.74 115c0-8.284 6.716-15 15-15h-25.74v-70h-30v85c0 8.284 6.716 15 15 15h40.74c-8.284 0-15-6.716-15-15z" fill="#ebeaec"/></g></g><g><path d="m304.101 426.998 14.697-14.697c2.929-2.929 2.929-7.678 0-10.606-2.93-2.929-7.678-2.929-10.607 0l-14.696 14.696-14.696-14.696c-2.93-2.929-7.678-2.929-10.607 0s-2.929 7.678 0 10.606l14.697 14.697-14.697 14.697c-2.929 2.929-2.929 7.678 0 10.606 1.465 1.464 3.385 2.197 5.304 2.197s3.839-.732 5.304-2.197l14.696-14.696 14.696 14.696c1.465 1.464 3.385 2.197 5.304 2.197s3.839-.732 5.304-2.197c2.929-2.929 2.929-7.678 0-10.606z" fill="#ff5252"/><path d="m278.261 255.401 14.697-14.697c2.929-2.929 2.929-7.678 0-10.606-2.93-2.929-7.678-2.929-10.607 0l-14.697 14.697-14.697-14.697c-2.929-2.929-7.678-2.929-10.606 0-2.929 2.929-2.929 7.678 0 10.606l14.697 14.697-14.697 14.697c-2.929 2.929-2.929 7.678 0 10.606 1.464 1.465 3.384 2.197 5.303 2.197s3.839-.732 5.303-2.197l14.697-14.697 14.697 14.697c1.465 1.464 3.385 2.197 5.304 2.197s3.839-.732 5.304-2.197c2.929-2.929 2.929-7.678 0-10.606z" fill="#ff5252"/><g><path d="m330.515 357.772c-7.346 0-14.252-2.861-19.445-8.055s-8.054-12.1-8.054-19.445 2.86-14.251 8.054-19.445 12.1-8.055 19.445-8.055 14.252 2.86 19.446 8.055c10.722 10.722 10.722 28.168 0 38.891-5.194 5.194-12.101 8.054-19.446 8.054zm0-40c-3.339 0-6.478 1.3-8.838 3.661-4.874 4.875-4.874 12.804 0 17.678 2.36 2.361 5.499 3.661 8.838 3.661s6.479-1.3 8.839-3.661c4.874-4.874 4.874-12.804 0-17.678-2.361-2.361-5.5-3.661-8.839-3.661z" fill="#6c83e5"/></g><path d="m284.69 356.58c-.699-4.082-4.577-6.826-8.658-6.126-29.276 5.018-59.271-4.514-80.243-25.484-17.285-17.285-26.804-40.267-26.804-64.711 0-18.634 5.547-36.41 15.833-51.468l.863 8.554c.39 3.866 3.649 6.748 7.453 6.748.251 0 .506-.013.761-.039 4.122-.416 7.125-4.093 6.709-8.214l-2.657-26.348c-.415-4.121-4.099-7.129-8.214-6.709l-26.348 2.657c-4.122.416-7.125 4.093-6.709 8.214.415 4.121 4.098 7.128 8.214 6.709l8.06-.813c-12.325 17.694-18.966 38.69-18.966 60.708 0 28.451 11.08 55.199 31.198 75.317 20.122 20.122 47.375 31.19 75.414 31.19 5.973 0 11.985-.502 17.967-1.527 4.083-.699 6.827-4.575 6.127-8.658z" fill="#6c83e5"/></g></g></svg>