<svg id="Capa_1" enable-background="new 0 0 512 512" height="512" viewBox="0 0 512 512" width="512" xmlns="http://www.w3.org/2000/svg"><g><g><path d="m31.148 378.473 158.12 124.723c21.278 5.729 43.644 8.804 66.732 8.804 141.385 0 256-114.615 256-256s-114.615-256-256-256-256 114.615-256 256c0 44.366 11.291 86.093 31.148 122.473z" fill="#69d173"/></g><g><path d="m207.111 138.838-60.62 76.83 21.74 110.57-73.728 73.735 84.851 84.851 80.057-80.057c27.58 8.75 58.95 2.21 80.82-19.66 4.09-4.09 7.64-8.51 10.65-13.17 3.01-4.67 5.49-9.58 7.44-14.65l123.18-101.18c12.26-10.08 14.04-28.18 3.98-40.45-10.08-12.28-28.21-14.06-40.48-3.97l-62.45 51.33c-2.75 2.26-6.77 2.07-9.29-.45l-.01-.01c-2.71-2.71-2.71-7.09 0-9.79l91.56-91.55c11.23-11.23 11.23-29.43 0-40.65v-.01c-11.23-11.23-29.43-11.23-40.66 0l-91.56 91.55c-2.71 2.7-7.09 2.7-9.79 0l-.83-.83c-2.7-2.7-2.7-7.08 0-9.79l119.84-119.84c.29-.29.56-.57.83-.87 10.39-11.27 10.11-28.84-.83-39.78-5.61-5.62-12.97-8.42-20.33-8.42s-14.72 2.8-20.33 8.42l-2.44 2.44-117.39 117.39c-2.71 2.71-7.09 2.71-9.8 0-1.34-1.34-2.02-3.11-2.02-4.89 0-1.55.52-3.11 1.57-4.39l85.81-104.56c5.64-6.87 7.56-15.58 6-23.67-1.22-6.37-4.59-12.36-9.99-16.79h-.01c-11-9.03-26.68-8.53-37.07.5-1.2 1.05-2.34 2.21-3.38 3.48z" fill="#603256"/></g><g><path d="m125.807 283.815 14.142 14.142-73.731 73.731 56.569 56.569 93.53-93.53c31.242-31.242 31.242-81.895 0-113.137l-28.284-28.284 29.698-29.699c15.621-15.621 15.621-40.947 0-56.568-7.811-7.811-20.474-7.811-28.285 0l-63.64 63.64c-31.241 31.24-31.241 81.894.001 113.136z" fill="#7c5577"/></g><g><g><path d="m221.781 470.683c7.811-7.81 7.81-20.474 0-28.284l-113.137-113.138c-7.81-7.81-20.474-7.81-28.284 0l-49.211 49.211c33.09 60.623 89.986 106.374 158.12 124.723z" fill="#f44040"/></g><g><path d="m136.928 385.83c7.811-7.81 20.474-7.81 28.284 0l-56.569-56.569c-7.81-7.81-20.474-7.81-28.284 0l-49.211 49.211c13.008 23.831 29.699 45.36 49.3 63.837z" fill="#d62b2b"/></g><g><path d="m143.999 407.043-70.711-70.711c-7.81-7.81-20.474-7.81-28.284 0-7.81 7.81-7.81 20.474 0 28.284l70.711 70.711c7.81 7.81 20.474 7.81 28.284 0 7.811-7.81 7.811-20.474 0-28.284z" fill="#ff5252"/></g><g><path d="m94.502 385.83c7.811-7.81 20.474-7.81 28.284 0l-49.497-49.497c-7.81-7.81-20.474-7.811-28.284 0-7.81 7.81-7.81 20.474 0 28.284l49.497 49.497c-7.811-7.81-7.811-20.474 0-28.284z" fill="#f44040"/></g></g></g></svg>