<svg id="Capa_1" enable-background="new 0 0 512 512" height="512" viewBox="0 0 512 512" width="512" xmlns="http://www.w3.org/2000/svg"><g><g><circle cx="256" cy="256" fill="#ff5252" r="256"/></g><g><g><path d="m70.851 461.767c-5.877 0-11-4-12.425-9.701l-7.575-30.299h40l-7.575 30.299c-1.425 5.702-6.548 9.701-12.425 9.701z" fill="#7c5577"/></g><g><path d="m130.851 461.767c-5.877 0-11-4-12.425-9.701l-7.575-30.299h40l-7.575 30.299c-1.425 5.702-6.548 9.701-12.425 9.701z" fill="#7c5577"/></g><g><path d="m263.894 461.767c-5.877 0-11-4-12.425-9.701l-7.575-30.299h40l-7.575 30.299c-1.425 5.702-6.548 9.701-12.425 9.701z" fill="#7c5577"/></g><g><path d="m323.894 461.767c-5.877 0-11-4-12.425-9.701l-7.575-30.299h40l-7.575 30.299c-1.425 5.702-6.548 9.701-12.425 9.701z" fill="#7c5577"/></g><g><path d="m383.894 461.767c-5.877 0-11-4-12.425-9.701l-7.575-30.299h40l-7.575 30.299c-1.425 5.702-6.548 9.701-12.425 9.701z" fill="#7c5577"/></g><g><path d="m443.894 461.767c-5.877 0-11-4-12.425-9.701l-7.575-30.299h40l-7.575 30.299c-1.425 5.702-6.548 9.701-12.425 9.701z" fill="#7c5577"/></g><g><path d="m461.923 431.767h-411.072c-11.046 0-20-8.954-20-20v-20h451.071v20c.001 11.046-8.954 20-19.999 20z" fill="#ffcb37"/></g><g><path d="m130.851 411.767v-20h-100v20c0 11.046 8.954 20 20 20h100c-11.045 0-20-8.954-20-20z" fill="#fcac1f"/></g><g><path d="m505.282 387.706c0-9.679-5.792-18.413-14.712-22.17-59.426-25.034-280.002-116.59-309.955-109.102-34.667 8.667-62.833 41.167-91.333 41.167s-46-31-59-31c-6.09 0-13.937 24.4-18.86 53.833l119.429 71.334 233.042 20h117.328c13.289-.001 24.061-10.773 24.061-24.062z" fill="#7c5577"/></g><g><g><path d="m72.18 293.837c-18.797-8.257-31.726-27.236-41.898-27.236-6.09 0-13.937 24.4-18.86 53.833l51.354 30.673c1.611-20.326 5.2-41.3 9.404-57.27z" fill="#603256"/></g></g><g><path d="m22.216 320.434h-10.792c-3.951 23.621-6.022 50.482-3.79 70.578 1.313 11.823 11.322 20.756 23.218 20.756h333.043l-49.502-22.276c-20.103-9.046-41.896-13.724-63.941-13.724h-50.964c-31.67 0-62.589-9.651-88.636-27.667-26.048-18.016-56.966-27.667-88.636-27.667z" fill="#f9d987"/></g><g><path d="m62.767 390.865c-2.014-18.34-.463-42.278 2.824-64.243-14.019-4.064-28.612-6.188-43.375-6.188h-10.792c-3.951 23.621-6.022 50.482-3.791 70.578 1.313 11.823 11.322 20.756 23.218 20.756h55.149c-11.952-.001-21.928-9.023-23.233-20.903z" fill="#ffcb37"/></g><g><path d="m441.149 50.233c5.877 0 11 4 12.425 9.701l7.575 30.299h-40l7.575-30.299c1.425-5.702 6.548-9.701 12.425-9.701z" fill="#7c5577"/></g><g><path d="m381.149 50.233c5.877 0 11 4 12.425 9.701l7.575 30.299h-40l7.575-30.299c1.425-5.702 6.548-9.701 12.425-9.701z" fill="#7c5577"/></g><g><path d="m248.106 50.233c5.877 0 11 4 12.425 9.701l7.575 30.299h-40l7.575-30.299c1.425-5.702 6.548-9.701 12.425-9.701z" fill="#7c5577"/></g><g><path d="m188.106 50.233c5.877 0 11 4 12.425 9.701l7.575 30.299h-40l7.575-30.299c1.425-5.702 6.548-9.701 12.425-9.701z" fill="#7c5577"/></g><g><path d="m128.106 50.233c5.877 0 11 4 12.425 9.701l7.575 30.299h-40l7.575-30.299c1.425-5.702 6.548-9.701 12.425-9.701z" fill="#7c5577"/></g><g><path d="m68.106 50.233c5.877 0 11 4 12.425 9.701l7.575 30.299h-40l7.575-30.299c1.425-5.702 6.548-9.701 12.425-9.701z" fill="#7c5577"/></g><g><path d="m50.077 80.233h411.071c11.046 0 20 8.954 20 20v20h-451.071v-20c0-11.046 8.955-20 20-20z" fill="#ffcb37"/></g><g><path d="m381.149 100.233v20h100v-20c0-11.046-8.954-20-20-20h-100c11.045 0 20 8.954 20 20z" fill="#fcac1f"/></g><g><path d="m6.718 124.294c0 9.679 5.792 18.413 14.712 22.17 59.426 25.034 280.002 116.59 309.955 109.102 34.667-8.667 62.833-41.167 91.333-41.167s46 31 59 31c6.09 0 13.937-24.4 18.86-53.833l-119.429-71.334-233.042-20h-117.328c-13.289.001-24.061 10.773-24.061 24.062z" fill="#7c5577"/></g><g><g><path d="m439.82 218.163c18.797 8.257 31.726 27.236 41.898 27.236 6.09 0 13.937-24.4 18.86-53.833l-51.354-30.673c-1.611 20.326-5.2 41.3-9.404 57.27z" fill="#603256"/></g></g><g><path d="m489.784 191.566h10.791c3.951-23.621 6.022-50.482 3.79-70.578-1.313-11.823-11.322-20.756-23.218-20.756h-333.043l49.502 22.276c20.103 9.046 41.896 13.724 63.941 13.724h50.964c31.67 0 62.589 9.651 88.636 27.667 26.049 18.016 56.967 27.667 88.637 27.667z" fill="#f9d987"/></g><g><path d="m449.233 121.135c2.014 18.34.463 42.278-2.824 64.243 14.019 4.064 28.612 6.188 43.375 6.188h10.791c3.951-23.621 6.022-50.482 3.791-70.578-1.313-11.823-11.322-20.756-23.218-20.756h-55.148c11.952.001 21.928 9.023 23.233 20.903z" fill="#ffcb37"/></g></g></g></svg>