<svg id="Capa_1" enable-background="new 0 0 512 512" height="512" viewBox="0 0 512 512" width="512" xmlns="http://www.w3.org/2000/svg"><g><g><path d="m256 0c-141.385 0-256 114.615-256 256 0 28.799 4.758 56.486 13.526 82.321l.004-.001 160.15 160.15-.004.003c25.836 8.769 53.524 13.527 82.324 13.527 141.385 0 256-114.615 256-256s-114.615-256-256-256z" fill="#ffcb37"/></g><g><g><path d="m449.03 62.97c-46.96-46.96-110.26-67.66-171.61-62.08-48.32 4.39-95.45 25.08-132.45 62.08-78.11 78.11-114.6 185.29-131.44 275.35 9.456 27.86 23.589 53.558 41.449 76.178h42.524v42.524c22.62 17.859 48.318 31.993 76.178 41.449 90.06-16.84 197.24-53.33 275.35-131.44 37-37 57.69-84.13 62.08-132.45 5.579-61.351-15.121-124.651-62.081-171.611z" fill="#ff5252"/></g><g><path d="m297 215-123.744-123.744c-74 74-112.753 241.367-105.128 248.993 7.625 7.625 37-14.75 37-14.75l-50.167 88.998c12.466 15.79 26.751 30.076 42.541 42.541l88.998-50.167s-22.375 29.375-14.75 37 174.993-31.128 248.993-105.128z" fill="#f44040"/></g><g><g><path d="m411.537 82.685c-16.598-14.38-35.934-25.679-57.115-33.034h-114.844c-21.181 7.355-40.517 18.654-57.115 33.034l-57.344 99.323c-2.039 10.686-3.119 21.712-3.119 32.992s1.08 22.306 3.119 32.992l57.344 99.323c16.598 14.38 35.934 25.679 57.115 33.034h114.844c21.181-7.355 40.517-18.654 57.115-33.034l57.344-99.323c2.039-10.686 3.119-21.712 3.119-32.992s-1.08-22.306-3.119-32.992z" fill="#ebeaec"/></g><g><path d="m402.771 108.572c-1.272 0-2.562-.324-3.743-1.006l-60.001-34.642c-3.587-2.071-4.816-6.658-2.745-10.245s6.657-4.817 10.245-2.745l60.001 34.642c3.587 2.071 4.816 6.658 2.745 10.245-1.389 2.406-3.91 3.751-6.502 3.751z" fill="#dad9dd"/></g><g><path d="m191.229 108.572c-2.592 0-5.113-1.345-6.502-3.751-2.071-3.587-.842-8.174 2.745-10.245l60.001-34.642c3.587-2.071 8.174-.842 10.245 2.745s.842 8.174-2.745 10.245l-60.001 34.642c-1.181.682-2.471 1.006-3.743 1.006z" fill="#dad9dd"/></g><g><path d="m448.555 257.142c-4.142 0-7.5-3.358-7.5-7.5v-69.283c0-4.142 3.358-7.5 7.5-7.5s7.5 3.358 7.5 7.5v69.283c0 4.142-3.358 7.5-7.5 7.5z" fill="#dad9dd"/></g><g><path d="m182.454 82.701-57.351 99.335c-2.035 10.676-3.103 21.695-3.103 32.964 0 11.28 1.08 22.306 3.119 32.992l57.344 99.323c16.598 14.38 35.934 25.679 57.115 33.034h114.844v.008c21.188-7.357 40.523-18.673 57.125-33.06l21.257-36.818c-21.839 9.795-46.047 15.249-71.532 15.249-96.65 0-175-78.35-175-175 0-31.827 8.499-61.667 23.347-87.381-9.679 5.589-18.771 12.08-27.165 19.354z" fill="#dad9dd"/></g><g><path d="m145.446 257.142c-4.142 0-7.5-3.358-7.5-7.5v-69.283c0-4.142 3.358-7.5 7.5-7.5s7.5 3.358 7.5 7.5v69.283c0 4.142-3.358 7.5-7.5 7.5z" fill="#cbcbcf"/></g><g><path d="m251.216 371.072c-1.272 0-2.562-.324-3.743-1.006l-60.001-34.642c-3.587-2.071-4.816-6.658-2.745-10.245 2.07-3.587 6.658-4.817 10.245-2.745l60.001 34.642c3.587 2.071 4.816 6.658 2.745 10.245-1.389 2.406-3.91 3.751-6.502 3.751z" fill="#cbcbcf"/></g><g><path d="m342.784 371.072c-2.592 0-5.113-1.345-6.502-3.751-2.071-3.587-.842-8.174 2.745-10.245l60.001-34.642c3.586-2.072 8.173-.843 10.245 2.745 2.071 3.587.842 8.174-2.745 10.245l-60.001 34.642c-1.181.682-2.471 1.006-3.743 1.006z" fill="#cbcbcf"/></g><path d="m431.648 284.079-119.648-69.079 119.648-69.079c3.587-2.071 4.816-6.658 2.745-10.245s-6.658-4.816-10.245-2.745l-119.648 69.079v-138.158c0-4.142-3.358-7.5-7.5-7.5s-7.5 3.358-7.5 7.5v138.158l-119.648-69.079c-3.588-2.072-8.174-.842-10.245 2.745s-.842 8.174 2.745 10.245l119.648 69.079-119.648 69.079c-3.587 2.071-4.816 6.658-2.745 10.245 1.389 2.406 3.91 3.751 6.502 3.751 1.272 0 2.562-.324 3.743-1.006l119.648-69.079v138.158c0 4.142 3.358 7.5 7.5 7.5s7.5-3.358 7.5-7.5v-138.158l119.648 69.079c1.181.682 2.471 1.006 3.743 1.006 2.592 0 5.113-1.346 6.502-3.751 2.071-3.587.842-8.174-2.745-10.245z" fill="#dad9dd"/><g><path d="m245.411 178.479 45.756-26.417c3.61-2.084 8.057-2.084 11.667 0l45.756 26.417c3.61 2.084 5.833 5.936 5.833 10.104v52.834c0 4.168-2.224 8.02-5.833 10.104l-45.756 26.417c-3.61 2.084-8.057 2.084-11.667 0l-45.756-26.417c-3.61-2.084-5.833-5.936-5.833-10.104v-52.834c0-4.168 2.223-8.02 5.833-10.104z" fill="#7c5577"/></g><g><path d="m297 40c-20.116 0-39.434 3.404-57.422 9.651v16.766c0 4.168 2.224 8.02 5.833 10.104l45.756 26.417c3.61 2.084 8.057 2.084 11.667 0l45.756-26.417c3.61-2.084 5.833-5.935 5.833-10.104v-16.766c-17.989-6.247-37.307-9.651-57.423-9.651z" fill="#7c5577"/></g><g><path d="m348.589 353.479-45.756-26.417c-3.61-2.084-8.057-2.084-11.667 0l-45.756 26.417c-3.61 2.084-5.833 5.935-5.833 10.104v16.766c17.989 6.246 37.307 9.651 57.423 9.651s39.434-3.404 57.422-9.651v-16.766c0-4.168-2.223-8.02-5.833-10.104z" fill="#603256"/></g><g><path d="m125.109 182.064 14.504 8.374c3.61 2.084 8.057 2.084 11.667 0l45.756-26.417c3.61-2.084 5.833-5.935 5.833-10.104v-52.834c0-4.168-2.224-8.02-5.833-10.104l-14.488-8.365c-29.19 25.257-49.927 60.009-57.439 99.45z" fill="#7c5577"/></g><g><path d="m186.272 150.728c0-21.037 3.716-41.205 10.522-59.888l-14.242-8.222c-29.189 25.256-49.94 60-57.453 99.441l14.514 8.38c3.61 2.084 8.057 2.084 11.667 0l36.013-20.792c-.669-6.217-1.021-12.526-1.021-18.919z" fill="#603256"/></g><g><path d="m454.388 239.562c-3.61-2.084-8.057-2.084-11.667 0l-45.756 26.417c-3.61 2.084-5.833 5.935-5.833 10.104v52.834c0 4.168 2.224 8.02 5.833 10.104l14.488 8.365c29.188-25.257 49.925-60.009 57.438-99.449z" fill="#7c5577"/></g><g><path d="m391.132 323.186v5.731c0 4.168 2.224 8.02 5.833 10.104l14.484 8.362c14.768-12.779 27.378-27.985 37.204-45.002-17.489 10.099-36.888 17.256-57.521 20.805z" fill="#603256"/></g><g><path d="m197.035 265.979-45.756-26.417c-3.61-2.084-8.057-2.084-11.667 0l-14.504 8.374c7.512 39.441 28.249 74.192 57.438 99.449l14.488-8.365c3.61-2.084 5.833-5.935 5.833-10.104v-52.834c.001-4.167-2.223-8.019-5.832-10.103z" fill="#603256"/></g><g><path d="m411.454 82.614-14.488 8.365c-3.61 2.084-5.833 5.935-5.833 10.104v52.834c0 4.168 2.224 8.02 5.833 10.104l45.756 26.417c3.61 2.084 8.057 2.084 11.667 0l14.504-8.374c-7.514-39.441-28.251-74.193-57.439-99.45z" fill="#7c5577"/></g></g></g></g></svg>