<svg id="Capa_1" enable-background="new 0 0 512 512" height="512" viewBox="0 0 512 512" width="512" xmlns="http://www.w3.org/2000/svg"><g><g><path d="m310.169 5.762h-108.338c-115.365 24.856-201.831 127.441-201.831 250.238 0 141.385 114.615 256 256 256s256-114.615 256-256c0-122.797-86.466-225.382-201.831-250.238z" fill="#5e73dd"/></g><g><g><path d="m220.108 66.867h71.783l18.277-61.105c-17.462-3.763-35.58-5.762-54.168-5.762-5.391 0-10.737.187-16.046.515z" fill="#ff5252"/></g><g><path d="m209.027 104.688 11.081-37.821h71.783l11.081 37.821h20.84l-12.728-43.444c-2.497-8.522-10.313-14.377-19.193-14.377h-71.783c-8.88 0-16.697 5.855-19.193 14.377l-12.728 43.444z" fill="#ffcb37"/></g><g><path d="m242.987 66.867h48.904l-19.845-66.352c-5.309-.328-10.655-.515-16.046-.515-10.977 0-21.791.693-32.404 2.034z" fill="#ebeaec"/></g><g><path d="m220.108 66.867h35.892l-19.775-66.114c-11.704.894-23.182 2.593-34.394 5.008z" fill="#ff5252"/></g><g><circle cx="256" cy="287" fill="#f9d987" r="195"/></g><g><path d="m256 92c-107.523 0-195 87.477-195 195s87.477 195 195 195c-8.284 0-15-6.716-15-15s6.716-15 15-15v-330c-8.284 0-15-6.716-15-15s6.716-15 15-15z" fill="#ffcb37"/></g><g><circle cx="256" cy="287" fill="#ebeaec" r="165"/></g><g><g><path d="m337.812 192.489c-11.856-10.272-25.667-18.342-40.796-23.596h-82.032c-15.129 5.253-28.941 13.324-40.796 23.596l-40.96 70.945c-1.456 7.633-2.228 15.509-2.228 23.566s.772 15.933 2.228 23.566l40.96 70.945c11.856 10.272 25.667 18.342 40.796 23.596h82.032c15.129-5.253 28.94-13.324 40.796-23.596l40.96-70.945c1.456-7.633 2.228-15.509 2.228-23.566s-.772-15.933-2.228-23.566z" fill="#f9d987"/></g><g><path d="m331.549 213.124c-1.272 0-2.562-.324-3.743-1.006l-42.858-24.744c-3.587-2.071-4.816-6.658-2.745-10.245 2.071-3.588 6.657-4.818 10.245-2.745l42.858 24.744c3.587 2.071 4.816 6.658 2.745 10.245-1.389 2.405-3.91 3.751-6.502 3.751z" fill="#ffcb37"/></g><g><path d="m180.451 213.124c-2.592 0-5.113-1.345-6.502-3.751-2.071-3.587-.842-8.174 2.745-10.245l42.858-24.744c3.587-2.072 8.174-.842 10.245 2.745s.842 8.174-2.745 10.245l-42.858 24.744c-1.181.681-2.47 1.006-3.743 1.006z" fill="#ffcb37"/></g><g><path d="m364.253 319.244c-4.142 0-7.5-3.358-7.5-7.5v-49.488c0-4.142 3.358-7.5 7.5-7.5s7.5 3.358 7.5 7.5v49.488c0 4.142-3.357 7.5-7.5 7.5z" fill="#ffcb37"/></g><g><path d="m174.181 192.501-40.965 70.953c-1.453 7.626-2.216 15.497-2.216 23.546 0 8.057.772 15.933 2.228 23.566l40.96 70.945c11.856 10.272 25.667 18.342 40.796 23.596h82.032v.006c15.134-5.255 28.945-13.338 40.803-23.614l15.184-26.299c-15.599 6.996-32.891 10.892-51.094 10.892-69.036 0-125-55.964-125-125 0-22.733 6.071-44.048 16.677-62.415-6.914 3.992-13.409 8.628-19.405 13.824z" fill="#ffcb37"/></g><g><path d="m147.747 319.244c-4.142 0-7.5-3.358-7.5-7.5v-49.488c0-4.142 3.358-7.5 7.5-7.5s7.5 3.358 7.5 7.5v49.488c0 4.142-3.358 7.5-7.5 7.5z" fill="#fcac1f"/></g><g><path d="m223.295 400.624c-1.272 0-2.562-.324-3.743-1.006l-42.858-24.744c-3.587-2.071-4.816-6.658-2.745-10.245s6.658-4.817 10.245-2.745l42.858 24.744c3.587 2.071 4.816 6.658 2.745 10.245-1.389 2.405-3.91 3.751-6.502 3.751z" fill="#fcac1f"/></g><g><path d="m288.705 400.624c-2.592 0-5.113-1.345-6.502-3.751-2.071-3.587-.842-8.174 2.745-10.245l42.858-24.744c3.587-2.071 8.174-.842 10.245 2.745s.842 8.174-2.745 10.245l-42.858 24.744c-1.181.681-2.471 1.006-3.743 1.006z" fill="#fcac1f"/></g><path d="m353.249 334.486-82.249-47.486 82.249-47.486c3.587-2.071 4.816-6.658 2.745-10.245-2.071-3.588-6.658-4.817-10.245-2.745l-82.249 47.486v-94.973c0-4.142-3.358-7.5-7.5-7.5s-7.5 3.358-7.5 7.5v94.973l-82.249-47.486c-3.588-2.073-8.174-.842-10.245 2.745s-.842 8.174 2.745 10.245l82.249 47.486-82.249 47.486c-3.587 2.071-4.816 6.658-2.745 10.245 1.389 2.406 3.91 3.751 6.502 3.751 1.272 0 2.562-.324 3.743-1.006l82.249-47.486v94.973c0 4.142 3.358 7.5 7.5 7.5s7.5-3.358 7.5-7.5v-94.973l82.249 47.486c1.181.682 2.471 1.006 3.743 1.006 2.592 0 5.113-1.346 6.502-3.751 2.071-3.587.842-8.174-2.745-10.245z" fill="#ffcb37"/><g><path d="m219.151 260.914 32.683-18.869c2.578-1.489 5.755-1.489 8.333 0l32.683 18.869c2.578 1.489 4.167 4.24 4.167 7.217v37.739c0 2.977-1.588 5.728-4.167 7.217l-32.683 18.869c-2.578 1.489-5.755 1.489-8.333 0l-32.683-18.869c-2.578-1.489-4.167-4.24-4.167-7.217v-37.739c0-2.978 1.588-5.729 4.167-7.217z" fill="#ffcb37"/></g><g><path d="m256 162c-14.368 0-28.167 2.432-41.016 6.893v11.976c0 2.977 1.588 5.728 4.167 7.217l32.683 18.869c2.578 1.489 5.755 1.489 8.333 0l32.683-18.869c2.578-1.489 4.167-4.24 4.167-7.217v-11.976c-12.85-4.461-26.649-6.893-41.017-6.893z" fill="#ffcb37"/></g><g><path d="m292.849 385.914-32.683-18.869c-2.578-1.489-5.755-1.489-8.333 0l-32.683 18.869c-2.578 1.489-4.167 4.24-4.167 7.217v11.976c12.85 4.461 26.649 6.893 41.017 6.893s28.167-2.432 41.016-6.893v-11.976c0-2.978-1.588-5.729-4.167-7.217z" fill="#fcac1f"/></g><g><path d="m133.22 263.474 10.36 5.981c2.578 1.489 5.755 1.489 8.333 0l32.683-18.869c2.578-1.489 4.167-4.24 4.167-7.217v-37.739c0-2.977-1.588-5.728-4.167-7.217l-10.349-5.975c-20.849 18.042-35.661 42.864-41.027 71.036z" fill="#ffcb37"/></g><g><path d="m176.908 241.092c0-15.026 2.654-29.432 7.515-42.777l-10.173-5.873c-20.849 18.04-35.671 42.857-41.038 71.029l10.367 5.985c2.578 1.489 5.755 1.489 8.333 0l25.724-14.852c-.476-4.439-.728-8.946-.728-13.512z" fill="#fcac1f"/></g><g><path d="m368.42 304.544c-2.578-1.489-5.755-1.489-8.333 0l-32.683 18.869c-2.578 1.489-4.167 4.24-4.167 7.217v37.739c0 2.977 1.588 5.728 4.167 7.217l10.349 5.975c20.849-18.041 35.661-42.863 41.027-71.035z" fill="#ffcb37"/></g><g><path d="m323.237 364.276v4.094c0 2.977 1.588 5.728 4.167 7.217l10.345 5.973c10.548-9.128 19.555-19.989 26.574-32.144-12.491 7.212-26.348 12.325-41.086 14.86z" fill="#fcac1f"/></g><g><path d="m184.596 323.414-32.683-18.869c-2.578-1.489-5.755-1.489-8.333 0l-10.36 5.981c5.366 28.172 20.178 52.995 41.027 71.035l10.349-5.975c2.578-1.489 4.167-4.24 4.167-7.217v-37.739c0-2.977-1.589-5.728-4.167-7.216z" fill="#fcac1f"/></g><g><path d="m337.753 192.439-10.349 5.975c-2.578 1.489-4.167 4.24-4.167 7.217v37.739c0 2.977 1.588 5.728 4.167 7.217l32.683 18.869c2.578 1.489 5.755 1.489 8.333 0l10.36-5.981c-5.366-28.173-20.178-52.995-41.027-71.036z" fill="#ffcb37"/></g></g></g></g></svg>