<svg id="Capa_1" enable-background="new 0 0 512 512" height="512" viewBox="0 0 512 512" width="512" xmlns="http://www.w3.org/2000/svg"><g><g><path d="m256 0c-141.385 0-256 114.615-256 256 0 127.776 93.617 233.678 216 252.882h80c122.384-19.204 216-125.106 216-252.882 0-141.385-114.615-256-256-256z" fill="#ff5252"/></g><g><g><path d="m216 508.882c13.034 2.045 26.391 3.118 40 3.118s26.966-1.072 40-3.118v-107.882h-80z" fill="#dad9dd"/></g><g><path d="m426 41h-340c-11.046 0-20 8.954-20 20v40h380v-40c0-11.046-8.954-20-20-20z" fill="#603256"/></g><g><path d="m441 431h-370c-22.091 0-40-17.909-40-40v-270c0-22.091 17.909-40 40-40h370c22.091 0 40 17.909 40 40v270c0 22.091-17.909 40-40 40z" fill="#ebeaec"/></g><g><path d="m106 81h-35c-22.091 0-40 17.909-40 40v270c0 22.091 17.909 40 40 40h35c-8.284 0-15-6.716-15-15s6.716-15 15-15v-290c-8.284 0-15-6.716-15-15s6.716-15 15-15z" fill="#dad9dd"/></g><g><path d="m71 401c-5.514 0-10-4.486-10-10v-270c0-5.514 4.486-10 10-10h370c5.514 0 10 4.486 10 10v270c0 5.514-4.486 10-10 10z" fill="#7c5577"/></g><g><path d="m132 391v-270c0-5.514 4.486-10 10-10h-71c-5.514 0-10 4.486-10 10v270c0 5.514 4.486 10 10 10h71c-5.514 0-10-4.486-10-10z" fill="#603256"/></g><g><circle cx="256" cy="65" fill="#603256" r="65"/></g><g><g><path d="m288.725 27.196c-4.742-4.109-10.267-7.337-16.318-9.438h-32.813c-6.052 2.101-11.576 5.33-16.318 9.438l-16.384 28.378c-.583 3.053-.892 6.203-.892 9.426s.309 6.373.891 9.426l16.384 28.378c4.742 4.109 10.267 7.337 16.318 9.438h32.813c6.052-2.101 11.576-5.33 16.318-9.438l16.384-28.378c.583-3.053.892-6.203.892-9.426s-.309-6.373-.891-9.426z" fill="#ebeaec"/></g><g><path d="m223.273 27.2-16.386 28.381c-.582 3.051-.887 6.199-.887 9.419 0 3.223.309 6.373.891 9.426l16.384 28.378c4.742 4.109 10.267 7.337 16.318 9.438h32.813v.002c6.054-2.102 11.578-5.335 16.321-9.446l6.073-10.519c-6.24 2.799-13.156 4.357-20.438 4.357-27.614 0-50-22.386-50-50 0-9.093 2.428-17.619 6.671-24.966-2.764 1.597-5.362 3.452-7.76 5.53z" fill="#dad9dd"/></g><g><path d="m241.26 54.566 13.073-7.548c1.031-.595 2.302-.595 3.333 0l13.073 7.548c1.031.595 1.667 1.696 1.667 2.887v15.095c0 1.191-.635 2.291-1.667 2.887l-13.073 7.548c-1.031.595-2.302.595-3.333 0l-13.073-7.548c-1.031-.595-1.667-1.696-1.667-2.887v-15.096c.001-1.191.636-2.291 1.667-2.886z" fill="#7c5577"/></g><g><path d="m256 15c-5.747 0-11.267.973-16.406 2.757v4.79c0 1.191.635 2.291 1.667 2.887l13.073 7.548c1.031.595 2.302.595 3.333 0l13.073-7.548c1.031-.595 1.667-1.696 1.667-2.887v-4.79c-5.14-1.784-10.66-2.757-16.407-2.757z" fill="#7c5577"/></g><g><path d="m270.74 104.566-13.073-7.548c-1.031-.595-2.302-.595-3.333 0l-13.073 7.548c-1.031.595-1.667 1.696-1.667 2.887v4.79c5.139 1.784 10.659 2.757 16.406 2.757s11.267-.973 16.406-2.757v-4.79c0-1.192-.635-2.292-1.666-2.887z" fill="#603256"/></g><g><path d="m206.888 55.59 4.144 2.393c1.031.595 2.302.595 3.333 0l13.073-7.548c1.031-.595 1.667-1.696 1.667-2.887v-15.096c0-1.191-.635-2.291-1.667-2.887l-4.14-2.39c-8.339 7.217-14.264 17.146-16.41 28.415z" fill="#7c5577"/></g><g><path d="m224.363 46.637c0-6.011 1.062-11.773 3.006-17.111l-4.069-2.349c-8.34 7.216-14.269 17.143-16.415 28.412l4.147 2.394c1.031.595 2.302.595 3.333 0l10.29-5.941c-.191-1.776-.292-3.579-.292-5.405z" fill="#603256"/></g><g><path d="m300.968 72.018c-1.031-.595-2.302-.595-3.333 0l-13.073 7.548c-1.031.595-1.667 1.696-1.667 2.887v15.095c0 1.191.635 2.291 1.667 2.887l4.14 2.39c8.34-7.216 14.264-17.145 16.411-28.414z" fill="#7c5577"/></g><g><path d="m282.895 95.91v1.638c0 1.191.635 2.291 1.667 2.887l4.138 2.389c4.219-3.651 7.822-7.996 10.63-12.858-4.997 2.885-10.54 4.93-16.435 5.944z" fill="#603256"/></g><g><path d="m227.438 79.566-13.073-7.548c-1.031-.595-2.302-.595-3.333 0l-4.144 2.393c2.146 11.269 8.071 21.198 16.411 28.414l4.14-2.39c1.031-.595 1.667-1.696 1.667-2.887v-15.096c-.001-1.191-.636-2.291-1.668-2.886z" fill="#603256"/></g><g><path d="m288.701 27.176-4.14 2.39c-1.031.595-1.667 1.696-1.667 2.887v15.095c0 1.191.635 2.291 1.667 2.887l13.073 7.548c1.031.595 2.302.595 3.333 0l4.144-2.393c-2.146-11.269-8.07-21.198-16.41-28.414z" fill="#7c5577"/></g></g><g><circle cx="153.5" cy="61" fill="#f9d987" r="10"/></g><g><circle cx="103.5" cy="61" fill="#ff5252" r="10"/></g><g><circle cx="408.5" cy="61" fill="#ff5252" r="10"/></g><g><circle cx="358.5" cy="61" fill="#f9d987" r="10"/></g><g><path d="m211 371h-85c-8.284 0-15-6.716-15-15 0-8.284 6.716-15 15-15h85c8.284 0 15 6.716 15 15 0 8.284-6.716 15-15 15z" fill="#ff5252"/></g><g><path d="m168.5 356c0-8.284 6.716-15 15-15h-57.5c-8.284 0-15 6.716-15 15s6.716 15 15 15h57.5c-8.284 0-15-6.716-15-15z" fill="#f44040"/></g><g><path d="m386 371h-85c-8.284 0-15-6.716-15-15 0-8.284 6.716-15 15-15h85c8.284 0 15 6.716 15 15 0 8.284-6.716 15-15 15z" fill="#f9d987"/></g><g><path d="m343.5 356c0-8.284 6.716-15 15-15h-57.5c-8.284 0-15 6.716-15 15s6.716 15 15 15h57.5c-8.284 0-15-6.716-15-15z" fill="#ffcb37"/></g><g><path d="m206 311h-75c-11.046 0-20-8.954-20-20v-75c0-11.046 8.954-20 20-20h75c11.046 0 20 8.954 20 20v75c0 11.046-8.954 20-20 20z" fill="#b4e4fc"/></g><g><path d="m226 216c0-9.227-6.258-16.974-14.755-19.281l-80.245 114.281h31.5l63.5-90.433z" fill="#95d6fc"/></g><g><path d="m111 291c0 .845.069 1.672.171 2.489l68.454-97.489h-21.5l-47.125 67.113z" fill="#95d6fc"/></g><g><path d="m381 311h-75c-11.046 0-20-8.954-20-20v-75c0-11.046 8.954-20 20-20h75c11.046 0 20 8.954 20 20v75c0 11.046-8.954 20-20 20z" fill="#b4e4fc"/></g><g><path d="m401 216c0-9.227-6.258-16.974-14.755-19.281l-80.245 114.281h31.5l63.5-90.433z" fill="#95d6fc"/></g><g><path d="m286 291c0 .845.069 1.672.171 2.489l68.454-97.489h-21.5l-47.125 67.113z" fill="#95d6fc"/></g><g><path d="m406 171h-300c-8.284 0-15-6.716-15-15 0-8.284 6.716-15 15-15h300c8.284 0 15 6.716 15 15 0 8.284-6.716 15-15 15z" fill="#603256"/></g><g><path d="m349 171h-243c-8.284 0-15-6.716-15-15 0-8.284 6.716-15 15-15h243c8.284 0 15 6.716 15 15 0 8.284-6.716 15-15 15z" fill="#4f2649"/></g><g><path d="m309 171h-203c-8.284 0-15-6.716-15-15 0-8.284 6.716-15 15-15h203c8.284 0 15 6.716 15 15 0 8.284-6.716 15-15 15z" fill="#7cdd83"/></g><g><path d="m171 156c0-8.284 6.716-15 15-15h-80c-8.284 0-15 6.716-15 15s6.716 15 15 15h80c-8.284 0-15-6.716-15-15z" fill="#69d173"/></g><g><g><path d="m354.534 291c-.021 0-.043 0-.065 0-4.143-.036-7.471-3.422-7.436-7.564.027-3.121.055-6.557.081-10.144h-22.453c-2.653 0-5.109-1.402-6.458-3.687-1.35-2.285-1.391-5.113-.109-7.436 4.757-8.622 20.544-37.08 23.995-41.314 3.337-4.095 7.911-5.742 12.225-4.404 4.341 1.344 7.42 5.498 7.844 10.584.179 2.143.142 16.905.06 31.257h.122c4.143 0 7.5 3.358 7.5 7.5s-3.357 7.5-7.5 7.5h-.223c-.032 4.206-.063 7.804-.083 10.273-.037 4.12-3.388 7.435-7.5 7.435zm-17.123-32.708h9.802c.036-6.284.063-12.351.071-17.382-2.836 4.895-6.304 11.007-9.873 17.382z" fill="#7c5577"/></g></g><g><g><path d="m165.777 291.014c-11.593 0-12.484-.297-13.473-.626-2.458-.819-4.296-2.684-5.044-5.115-1.263-4.106.618-6.569 4.366-11.476 2.985-3.908 8.541-11.182 17.852-24.487 2.575-3.68 4.303-7.073 5.015-9.841l.167-1.308c-.207-3.984-3.514-7.161-7.548-7.161-3.604 0-6.724 2.559-7.416 6.085-.798 4.064-4.741 6.708-8.805 5.914-4.064-.798-6.712-4.74-5.914-8.805 2.07-10.542 11.379-18.194 22.135-18.194 12.439 0 22.559 10.12 22.559 22.558 0 .318-.02.636-.061.951l-.291 2.276c-.032.25-.076.498-.133.743-1.1 4.745-3.596 9.92-7.417 15.382-5.568 7.956-9.824 13.803-13.007 18.084 4.866-.016 10.488-.063 15.809-.129 4.182-.038 7.542 3.263 7.594 7.405s-3.264 7.542-7.405 7.594c-8.364.105-14.481.15-18.983.15z" fill="#7c5577"/></g></g><g><path d="m256 512c13.609 0 26.966-1.072 40-3.118v-63.77c0 22.091-17.909 40-40 40s-40-17.909-40-40v63.77c13.034 2.046 26.391 3.118 40 3.118z" fill="#cbcbcf"/></g></g></g></svg>