<svg id="Capa_1" enable-background="new 0 0 512 512" height="512" viewBox="0 0 512 512" width="512" xmlns="http://www.w3.org/2000/svg"><g><g><path d="m10.046 327.207 378.774 147.685c73.852-44.909 123.18-126.139 123.18-218.892 0-141.385-114.615-256-256-256s-256 114.615-256 256c0 24.711 3.512 48.601 10.046 71.207z" fill="#ffcb37"/></g><g><g><path d="m290.829 377.6-63.162-47.2 33.466-47.073-29.777-94.529-.002.002-48.854-47.2 19.116-47.2.003-.002-20.909-66.378c-1.68-5.34-4.42-10.13-7.93-14.18-7.44-8.6-18.39-13.84-30.28-13.84-8.74 0-16.98 2.84-23.69 7.76s-11.89 11.92-14.52 20.26l-9.06 28.75-11.854 37.631.008-.001 19.116 47.2-48.854 47.2-.003-.007-29.738 94.409.003-.001 29.738 47.2-22.966 47.186c29.784 55.077 79.161 98.007 138.8 119.413h158.96z" fill="#ff5252"/></g><g><path d="m378.5 472h-259.952c39.709 25.322 86.865 40 137.452 40 48.632 0 94.097-13.562 132.82-37.108-3.016-1.824-6.539-2.892-10.32-2.892z" fill="#d62b2b"/></g><g><g><path d="m57.993 418.225 72.27-229.427.002.002 50.544-160.465-.099-.315c-1.68-5.34-4.42-10.13-7.93-14.18-7.44-8.6-18.39-13.84-30.28-13.84-8.74 0-16.98 2.84-23.69 7.76s-11.89 11.92-14.52 20.26l-9.06 28.75-11.854 37.631.008-.001 19.116 47.2-48.854 47.2-.003-.007-29.738 94.409.003-.001 29.738 47.2-22.966 47.186c7.81 14.441 16.978 28.036 27.313 40.638z" fill="#f44040"/></g></g><g><path d="m53.646 188.8h177.708l-29.738-94.4h-118.232z" fill="#ebeaec"/></g><g><path d="m130.263 188.798.002.002 29.735-94.4h-76.616l-29.738 94.4h76.616z" fill="#ebeaec"/></g><g><path d="m10.046 327.207c5.103 17.656 12.049 34.53 20.628 50.393h260.155l-29.737-94.4h-237.183z" fill="#ebeaec"/></g><g><path d="m100.526 283.2h-76.617l-13.863 44.007c5.103 17.656 12.049 34.53 20.628 50.393h40.116z" fill="#ebeaec"/></g><g><g><path d="m451.537 204.685c-16.598-14.38-35.934-25.679-57.115-33.034h-114.844c-21.181 7.355-40.517 18.654-57.115 33.034l-57.344 99.323c-2.039 10.686-3.119 21.712-3.119 32.992s1.08 22.306 3.119 32.992l57.344 99.323c16.598 14.38 35.934 25.68 57.115 33.034h114.844c21.181-7.355 40.517-18.654 57.115-33.034l57.344-99.323c2.039-10.686 3.119-21.712 3.119-32.992s-1.08-22.306-3.119-32.992z" fill="#ebeaec"/></g><g><path d="m442.771 230.572c-1.272 0-2.562-.324-3.743-1.006l-60.001-34.642c-3.587-2.071-4.816-6.658-2.745-10.245 2.07-3.587 6.656-4.817 10.245-2.745l60.001 34.642c3.587 2.071 4.816 6.658 2.745 10.245-1.389 2.406-3.911 3.751-6.502 3.751z" fill="#dad9dd"/></g><g><path d="m231.229 230.572c-2.592 0-5.113-1.345-6.502-3.751-2.071-3.587-.842-8.174 2.745-10.245l60.001-34.642c3.585-2.071 8.175-.842 10.245 2.745 2.071 3.587.842 8.174-2.745 10.245l-60.001 34.642c-1.18.682-2.47 1.006-3.743 1.006z" fill="#dad9dd"/></g><g><path d="m488.555 379.142c-4.143 0-7.5-3.358-7.5-7.5v-69.283c0-4.142 3.357-7.5 7.5-7.5s7.5 3.358 7.5 7.5v69.283c0 4.142-3.358 7.5-7.5 7.5z" fill="#dad9dd"/></g><g><path d="m222.454 204.701-57.351 99.335c-2.035 10.676-3.103 21.695-3.103 32.964 0 11.28 1.08 22.306 3.119 32.992l57.344 99.323c16.598 14.38 35.934 25.68 57.115 33.034h114.844v.008c21.188-7.357 40.523-18.673 57.125-33.06l21.257-36.818c-21.839 9.795-46.047 15.249-71.532 15.249-96.65 0-175-78.35-175-175 0-31.827 8.499-61.667 23.347-87.381-9.679 5.589-18.771 12.08-27.165 19.354z" fill="#dad9dd"/></g><g><path d="m185.445 379.142c-4.143 0-7.5-3.358-7.5-7.5v-69.283c0-4.142 3.357-7.5 7.5-7.5s7.5 3.358 7.5 7.5v69.283c0 4.142-3.357 7.5-7.5 7.5z" fill="#cbcbcf"/></g><g><path d="m291.217 493.072c-1.272 0-2.562-.324-3.743-1.006l-60.001-34.642c-3.587-2.071-4.816-6.658-2.745-10.245 2.07-3.587 6.655-4.817 10.245-2.745l60.001 34.642c3.587 2.071 4.816 6.658 2.745 10.245-1.389 2.406-3.91 3.751-6.502 3.751z" fill="#cbcbcf"/></g><g><path d="m382.783 493.072c-2.592 0-5.113-1.345-6.502-3.751-2.071-3.587-.842-8.174 2.745-10.245l60.001-34.642c3.586-2.072 8.175-.842 10.245 2.745 2.071 3.587.842 8.174-2.745 10.245l-60.001 34.642c-1.18.682-2.47 1.006-3.743 1.006z" fill="#cbcbcf"/></g><path d="m471.648 406.079-119.648-69.079 119.649-69.079c3.587-2.071 4.816-6.658 2.745-10.245-2.07-3.587-6.66-4.816-10.245-2.745l-119.649 69.079v-138.158c0-4.142-3.357-7.5-7.5-7.5s-7.5 3.358-7.5 7.5v138.158l-119.648-69.079c-3.589-2.072-8.176-.842-10.245 2.745-2.071 3.587-.842 8.174 2.745 10.245l119.648 69.079-119.649 69.079c-3.587 2.071-4.816 6.658-2.745 10.245 1.389 2.406 3.91 3.751 6.502 3.751 1.272 0 2.563-.324 3.743-1.006l119.649-69.079v138.158c0 4.142 3.357 7.5 7.5 7.5s7.5-3.358 7.5-7.5v-138.158l119.648 69.079c1.182.682 2.471 1.006 3.743 1.006 2.592 0 5.113-1.346 6.502-3.751 2.072-3.587.842-8.174-2.745-10.245z" fill="#dad9dd"/><g><path d="m285.411 300.479 45.756-26.417c3.61-2.084 8.057-2.084 11.667 0l45.756 26.417c3.61 2.084 5.833 5.936 5.833 10.104v52.834c0 4.168-2.224 8.02-5.833 10.104l-45.756 26.417c-3.61 2.084-8.057 2.084-11.667 0l-45.756-26.417c-3.61-2.084-5.833-5.936-5.833-10.104v-52.834c0-4.168 2.223-8.02 5.833-10.104z" fill="#7c5577"/></g><g><path d="m337 162c-20.116 0-39.434 3.404-57.422 9.651v16.766c0 4.168 2.224 8.02 5.833 10.104l45.756 26.417c3.61 2.084 8.057 2.084 11.667 0l45.756-26.417c3.61-2.084 5.833-5.935 5.833-10.104v-16.766c-17.989-6.247-37.307-9.651-57.423-9.651z" fill="#7c5577"/></g><g><path d="m388.589 475.479-45.756-26.417c-3.61-2.084-8.057-2.084-11.667 0l-45.756 26.417c-3.61 2.084-5.833 5.936-5.833 10.104v16.766c17.989 6.247 37.307 9.651 57.423 9.651s39.434-3.404 57.422-9.651v-16.766c0-4.168-2.223-8.02-5.833-10.104z" fill="#603256"/></g><g><path d="m165.109 304.064 14.504 8.374c3.61 2.084 8.057 2.084 11.667 0l45.756-26.417c3.61-2.084 5.833-5.936 5.833-10.104v-52.834c0-4.168-2.224-8.02-5.833-10.104l-14.488-8.365c-29.19 25.257-49.927 60.009-57.439 99.45z" fill="#7c5577"/></g><g><path d="m226.272 272.728c0-21.037 3.716-41.205 10.522-59.888l-14.242-8.222c-29.189 25.256-49.94 60-57.453 99.441l14.514 8.38c3.61 2.084 8.057 2.084 11.667 0l36.013-20.792c-.669-6.217-1.021-12.526-1.021-18.919z" fill="#603256"/></g><g><path d="m494.388 361.562c-3.61-2.084-8.057-2.084-11.667 0l-45.756 26.417c-3.61 2.084-5.833 5.936-5.833 10.104v52.834c0 4.168 2.224 8.02 5.833 10.104l14.488 8.365c29.188-25.257 49.925-60.009 57.438-99.449z" fill="#7c5577"/></g><g><path d="m431.132 445.186v5.731c0 4.168 2.224 8.02 5.833 10.104l14.484 8.362c14.768-12.779 27.378-27.985 37.204-45.002-17.489 10.099-36.888 17.256-57.521 20.805z" fill="#603256"/></g><g><path d="m237.035 387.979-45.756-26.417c-3.61-2.084-8.057-2.084-11.667 0l-14.504 8.374c7.512 39.441 28.249 74.192 57.438 99.449l14.488-8.365c3.61-2.084 5.833-5.936 5.833-10.104v-52.834c.001-4.167-2.223-8.019-5.832-10.103z" fill="#603256"/></g><g><path d="m451.454 204.614-14.488 8.365c-3.61 2.084-5.833 5.935-5.833 10.104v52.834c0 4.168 2.224 8.02 5.833 10.104l45.756 26.417c3.61 2.084 8.057 2.084 11.667 0l14.504-8.374c-7.514-39.441-28.251-74.193-57.439-99.45z" fill="#7c5577"/></g></g></g></g></svg>