<svg id="Capa_1" enable-background="new 0 0 512 512" height="512" viewBox="0 0 512 512" width="512" xmlns="http://www.w3.org/2000/svg"><g><g><path d="m485.667 318.333 24.332-30.214c1.317-10.521 2.001-21.24 2.001-32.119 0-141.385-114.615-256-256-256s-256 114.615-256 256c0 10.879.684 21.598 2.001 32.12l24.332 30.214-15.63 11.083c31.562 105.601 129.431 182.583 245.297 182.583s213.735-76.982 245.297-182.583z" fill="#69d173"/></g><g><g><path d="m399.245 359.49c-31.662-45.041-84.006-74.49-143.245-74.49s-111.583 29.449-143.245 74.49l-110.754-71.371c1.773 14.16 4.714 27.954 8.702 41.297l229.047 147.599c9.895 6.377 22.605 6.377 32.501 0l229.047-147.599c3.988-13.343 6.929-27.137 8.702-41.297zm-143.245 92.308-117.949-76.007c26.327-36.771 69.378-60.791 117.949-60.791s91.622 24.02 117.949 60.791z" fill="#fff"/></g></g><g><path d="m256 461.798c-8.284 0-15-6.716-15-15v-333.798h30v333.798c0 8.284-6.716 15-15 15z" fill="#ebeaec"/></g><g><path d="m256 358.852c-8.284 0-15-6.716-15-15v102.945c0 8.284 6.716 15 15 15s15-6.716 15-15v-102.945c0 8.285-6.716 15-15 15z" fill="#dad9dd"/></g><g><path d="m421.421 148.137c-60.119 17.574-120.081-20.71-180.191-6.335-6.33 1.514-12.432-3.19-12.432-9.699 0-39.27 0-78.541 0-117.811 0-4.412 2.881-8.341 7.115-9.579 60.119-17.574 120.081 20.71 180.19 6.335 6.33-1.514 12.432 3.19 12.432 9.699v117.811c.001 4.412-2.88 8.341-7.114 9.579z" fill="#ff5252"/></g><g><path d="m271 .006c-11.682-.011-23.367 1.285-35.059 4.699-4.244 1.239-7.143 5.165-7.143 9.587v117.811c0 6.509 6.102 11.213 12.432 9.699 60.11-14.375 120.072 23.909 180.191 6.335 4.234-1.238 7.115-5.167 7.115-9.579v-40.051h-59.036c-54.4 0-98.5-44.1-98.5-98.501z" fill="#f44040"/></g></g></svg>