<svg id="Capa_1" enable-background="new 0 0 512 512" height="512" viewBox="0 0 512 512" width="512" xmlns="http://www.w3.org/2000/svg"><g><g><path d="m0 256c0-141.385 114.615-256 256-256s256 114.615 256 256l-256 75z" fill="#5e73dd"/></g><path d="m492 155.5c4.142 0 7.5-3.358 7.5-7.5s-3.358-7.5-7.5-7.5h-66.5v-39h66.5c4.142 0 7.5-3.358 7.5-7.5s-3.358-7.5-7.5-7.5h-66.5v-70.167c0-4.142-3.358-7.5-7.5-7.5s-7.5 3.358-7.5 7.5v70.167h-39v-70.167c0-4.142-3.358-7.5-7.5-7.5s-7.5 3.358-7.5 7.5v70.167h-39v-70.167c0-4.142-3.358-7.5-7.5-7.5s-7.5 3.358-7.5 7.5v70.167h-39v-70.167c0-4.142-3.358-7.5-7.5-7.5s-7.5 3.358-7.5 7.5v70.167h-39v-70.167c0-4.142-3.358-7.5-7.5-7.5s-7.5 3.358-7.5 7.5v70.167h-39v-70.167c0-4.142-3.358-7.5-7.5-7.5s-7.5 3.358-7.5 7.5v70.167h-39v-70.167c0-4.142-3.358-7.5-7.5-7.5s-7.5 3.358-7.5 7.5v70.167h-66.5c-4.142 0-7.5 3.358-7.5 7.5s3.358 7.5 7.5 7.5h66.5v39h-66.5c-4.142 0-7.5 3.358-7.5 7.5s3.358 7.5 7.5 7.5h66.5v39h-66.5c-4.142 0-7.5 3.358-7.5 7.5s3.358 7.5 7.5 7.5h66.5v106.5c0 4.142 3.358 7.5 7.5 7.5s7.5-3.358 7.5-7.5v-106.5h39v106.5c0 4.142 3.358 7.5 7.5 7.5s7.5-3.358 7.5-7.5v-106.5h39v106.5c0 4.142 3.358 7.5 7.5 7.5s7.5-3.358 7.5-7.5v-106.5h39v106.5c0 4.142 3.358 7.5 7.5 7.5s7.5-3.358 7.5-7.5v-106.5h39v106.5c0 4.142 3.358 7.5 7.5 7.5s7.5-3.358 7.5-7.5v-106.5h39v106.5c0 4.142 3.358 7.5 7.5 7.5s7.5-3.358 7.5-7.5v-106.5h39v106.5c0 4.142 3.358 7.5 7.5 7.5s7.5-3.358 7.5-7.5v-106.5h66.5c4.142 0 7.5-3.358 7.5-7.5s-3.358-7.5-7.5-7.5h-66.5v-39zm-81.5-54v39h-39v-39zm-54 0v39h-39v-39zm-54 0v39h-39v-39zm-54 0v39h-39v-39zm-54 0v39h-39v-39zm-93 0h39v39h-39zm0 93v-39h39v39zm54 0v-39h39v39zm54 0v-39h39v39zm54 0v-39h39v39zm54 0v-39h39v39zm93 0h-39v-39h39z" fill="#dad9dd"/><g><path d="m134.768 481.525h242.463c38.616-20.804 71.279-51.234 94.773-88.081l39.996-137.444h-512l39.996 137.445c23.494 36.846 56.157 67.276 94.772 88.08z" fill="#7cdd83"/></g><g><path d="m134.768 481.525h242.418c30.379-16.361 57.087-38.662 78.534-65.375-43.862 35.241-99.569 56.342-160.213 56.342-127.947 0-233.966-93.867-252.963-216.492h-42.544l39.996 137.445c23.494 36.846 56.157 67.276 94.772 88.08z" fill="#5fc16a"/></g><g><path d="m20 316h472v30h-472z" fill="#fff"/></g><g><path d="m241 331c0-8.284 6.716-15 15-15h-236v30h236c-8.284 0-15-6.716-15-15z" fill="#ebeaec"/></g><g><path d="m512 50v206c0 50.59-14.68 97.75-40 137.46v-343.46c0-5.51-4.49-10-10-10h-412c-5.51 0-10 4.49-10 10v343.46c-25.32-39.71-40-86.87-40-137.46v-206c0-27.61 22.39-50 50-50h412c27.61 0 50 22.39 50 50z" fill="#ebeaec"/></g><g><g><path d="m174.188 417.489-37.541 65.023c35.64 18.818 76.247 29.488 119.353 29.488s83.713-10.67 119.353-29.488l-37.541-65.023c-11.856-10.272-25.667-18.342-40.796-23.596h-82.032c-15.129 5.254-28.94 13.325-40.796 23.596z" fill="#ebeaec"/></g><g><path d="m174.181 417.501-37.534 65.011c14.328 7.565 29.458 13.811 45.234 18.576-3.233-11.106-4.973-22.847-4.973-34.996 0-22.733 6.071-44.048 16.677-62.415-6.913 3.992-13.408 8.628-19.404 13.824z" fill="#dad9dd"/></g><g><path d="m284.948 412.373 42.858 24.744c1.181.682 2.471 1.006 3.743 1.006 2.592 0 5.113-1.345 6.502-3.751 2.071-3.587.842-8.174-2.745-10.245l-42.858-24.744c-3.588-2.073-8.174-.843-10.245 2.745-2.072 3.587-.843 8.174 2.745 10.245z" fill="#dad9dd"/></g><g><path d="m180.451 438.124c1.272 0 2.562-.324 3.743-1.006l42.858-24.744c3.587-2.071 4.816-6.658 2.745-10.245s-6.658-4.817-10.245-2.745l-42.858 24.744c-3.587 2.071-4.816 6.658-2.745 10.245 1.389 2.405 3.91 3.751 6.502 3.751z" fill="#dad9dd"/></g><g><path d="m345.749 451.523-82.249 47.487v-94.973c0-4.142-3.358-7.5-7.5-7.5s-7.5 3.358-7.5 7.5v94.973l-82.249-47.486c-3.588-2.073-8.174-.842-10.245 2.745s-.842 8.174 2.745 10.245l81.375 46.982c5.252.321 10.541.504 15.874.504s10.622-.183 15.873-.504l81.375-46.982c3.587-2.071 4.816-6.658 2.745-10.245-2.071-3.588-6.657-4.817-10.244-2.746z" fill="#dad9dd"/></g><g><path d="m292.849 485.914-32.683-18.869c-2.578-1.489-5.755-1.489-8.333 0l-32.683 18.869c-2.578 1.489-4.167 4.24-4.167 7.217v15.583c13.357 2.151 27.054 3.286 41.017 3.286s27.66-1.135 41.016-3.286v-15.583c0-2.978-1.588-5.729-4.167-7.217z" fill="#7c5577"/></g><g><path d="m256 387c-14.368 0-28.167 2.432-41.016 6.893v11.976c0 2.977 1.588 5.728 4.167 7.217l32.683 18.869c2.578 1.489 5.755 1.489 8.333 0l32.683-18.869c2.578-1.489 4.167-4.24 4.167-7.217v-11.976c-12.85-4.461-26.649-6.893-41.017-6.893z" fill="#7c5577"/></g><g><path d="m184.596 423.414-10.349-5.975c-19.115 16.54-33.131 38.79-39.47 64.086 7.007 3.774 14.206 7.24 21.586 10.361l28.233-16.3c2.578-1.489 4.167-4.24 4.167-7.217v-37.739c0-2.977-1.589-5.728-4.167-7.216z" fill="#7c5577"/></g><g><path d="m174.251 417.441c-19.115 16.539-33.14 38.785-39.481 64.081 7.01 3.776 14.21 7.242 21.593 10.365l21.274-12.283c-.477-4.439-.729-8.946-.729-13.512 0-15.026 2.654-29.432 7.515-42.777z" fill="#603256"/></g><g><path d="m337.753 417.439-10.349 5.975c-2.578 1.489-4.167 4.24-4.167 7.217v37.739c0 2.977 1.588 5.728 4.167 7.217l28.233 16.3c7.38-3.121 14.579-6.587 21.586-10.361-6.339-25.297-20.356-47.547-39.47-64.087z" fill="#7c5577"/></g></g><g><path d="m147.747 0h-97.747c-27.61 0-50 22.39-50 50v206c0 50.59 14.68 97.75 40 137.46v-343.46c0-5.51 4.49-10 10-10h97.747c-11.046 0-20-8.954-20-20s8.954-20 20-20z" fill="#dad9dd"/></g></g></svg>