<svg id="Capa_1" enable-background="new 0 0 512 512" height="512" viewBox="0 0 512 512" width="512" xmlns="http://www.w3.org/2000/svg"><g><g><path d="m497.173 256.276 14.431-14.431c-4.568-83.818-49.456-156.892-115.604-200.186h-19.333l-10.667-16.875c-33.327-15.884-70.622-24.784-110-24.784s-76.673 8.9-110 24.784l-10.667 16.875h-19.333c-66.148 43.294-111.036 116.368-115.605 200.185l14.431 14.431-14.398 14.399c4.726 83.6 49.561 156.463 115.572 199.667h19.333l10.667 16.875c33.327 15.884 70.622 24.784 110 24.784s76.673-8.9 110-24.784l10.667-16.875h19.333c66.011-43.204 110.846-116.067 115.572-199.667z" fill="#69d173"/></g><g><path d="m296 472c-141.385 0-256-114.615-256-256 0-60.492 20.995-116.073 56.077-159.884-55.121 44.157-91.588 110.628-95.682 185.728l14.431 14.431-14.398 14.399c4.726 83.6 49.561 156.463 115.572 199.667h19.333l10.667 16.875c33.327 15.884 70.622 24.784 110 24.784s76.673-8.9 110-24.784l10.667-16.875h19.333c22.74-14.883 42.966-33.287 59.906-54.436-43.814 35.093-99.404 56.095-159.906 56.095z" fill="#5fc16a"/></g><g><path d="m401 211h-40c8.284 0 15-6.716 15-15s-6.716-15-15-15h-30c8.284 0 15-6.716 15-15s-6.716-15-15-15h-150c-8.284 0-15 6.716-15 15s6.716 15 15 15h-30c-8.284 0-15 6.716-15 15s6.716 15 15 15h-40c-8.284 0-15 6.716-15 15s6.716 15 15 15h290c8.284 0 15-6.716 15-15s-6.716-15-15-15z" fill="#7cdd83"/></g><g><path d="m401 271h-290c-8.284 0-15 6.716-15 15s6.716 15 15 15h40c-8.284 0-15 6.716-15 15s6.716 15 15 15h30c-8.284 0-15 6.716-15 15s6.716 15 15 15h150c8.284 0 15-6.716 15-15s-6.716-15-15-15h30c8.284 0 15-6.716 15-15s-6.716-15-15-15h40c8.284 0 15-6.716 15-15s-6.716-15-15-15z" fill="#7cdd83"/></g><g><g><path d="m256 166c-44.516 0-81.58 32.489-88.743 75h-166.808c-.287 4.965-.449 9.963-.449 15s.162 10.035.449 15h166.808c7.163 42.511 44.227 75 88.743 75s81.58-32.489 88.743-75h166.808c.287-4.965.449-9.963.449-15s-.162-10.035-.449-15h-166.808c-7.163-42.511-44.227-75-88.743-75zm0 150c-27.906 0-51.424-19.151-58.101-45h116.203c-6.678 25.849-30.196 45-58.102 45zm-58.101-75c6.678-25.849 30.195-45 58.101-45s51.424 19.151 58.101 45z" fill="#fff"/></g></g><g><g><path d="m366 24.784v15.216h-220v-15.216c-10.409 4.961-20.425 10.608-30 16.875v13.341c0 8.284 6.716 15 15 15h60.74c6.812 29.187 33.028 51 64.26 51s57.448-21.813 64.26-51h60.74c8.284 0 15-6.716 15-15v-13.341c-9.575-6.267-19.591-11.914-30-16.875zm-110 66.216c-14.499 0-27.014-8.62-32.713-21h65.427c-5.7 12.38-18.215 21-32.714 21z" fill="#fff"/></g></g><g><g><path d="m381 442h-60.74c-6.812-29.187-33.028-51-64.26-51s-57.448 21.813-64.26 51h-60.74c-8.284 0-15 6.716-15 15v13.341c9.575 6.267 19.591 11.915 30 16.875v-15.216h220v15.216c10.409-4.961 20.425-10.608 30-16.875v-13.341c0-8.284-6.716-15-15-15zm-157.713 0c5.699-12.38 18.215-21 32.713-21s27.014 8.62 32.713 21z" fill="#fff"/></g></g><g><path d="m152.257 256c0-8.284 6.716-15 15-15h-166.808c-.287 4.965-.449 9.963-.449 15s.162 10.035.449 15h166.808c-8.284 0-15-6.716-15-15z" fill="#ebeaec"/></g><g><path d="m176.74 55c0-8.284 6.716-15 15-15h-45.74v-15.216c-10.409 4.961-20.425 10.608-30 16.875v13.341c0 8.284 6.716 15 15 15h60.74c-8.284 0-15-6.716-15-15z" fill="#ebeaec"/></g><g><path d="m191.74 442h-60.74c-8.284 0-15 6.716-15 15v13.341c9.575 6.267 19.591 11.915 30 16.875v-15.216h45.74c-8.284 0-15-6.716-15-15s6.716-15 15-15z" fill="#ebeaec"/></g></g></svg>