<svg id="Capa_1" enable-background="new 0 0 512 512" height="512" viewBox="0 0 512 512" width="512" xmlns="http://www.w3.org/2000/svg"><g><g><path d="m0 256c0-141.385 114.615-256 256-256s256 114.615 256 256l-256 75z" fill="#5e73dd"/></g><g><path d="m256 323.5c-4.143 0-7.5-3.358-7.5-7.5v-299.667c0-4.142 3.357-7.5 7.5-7.5s7.5 3.358 7.5 7.5v299.667c0 4.142-3.357 7.5-7.5 7.5z" fill="#dad9dd"/></g><path d="m492 155.5c4.143 0 7.5-3.358 7.5-7.5s-3.357-7.5-7.5-7.5h-66.5v-39h66.5c4.143 0 7.5-3.358 7.5-7.5s-3.357-7.5-7.5-7.5h-66.5v-70.167c0-4.142-3.357-7.5-7.5-7.5s-7.5 3.358-7.5 7.5v70.167h-39v-70.167c0-4.142-3.357-7.5-7.5-7.5s-7.5 3.358-7.5 7.5v70.167h-39v-70.167c0-4.142-3.357-7.5-7.5-7.5s-7.5 3.358-7.5 7.5v70.167h-93v-70.167c0-4.142-3.357-7.5-7.5-7.5s-7.5 3.358-7.5 7.5v70.167h-39v-70.167c0-4.142-3.357-7.5-7.5-7.5s-7.5 3.358-7.5 7.5v70.167h-39v-70.167c0-4.142-3.357-7.5-7.5-7.5s-7.5 3.358-7.5 7.5v70.167h-66.5c-4.143 0-7.5 3.358-7.5 7.5s3.357 7.5 7.5 7.5h66.5v39h-66.5c-4.143 0-7.5 3.358-7.5 7.5s3.357 7.5 7.5 7.5h66.5v39h-66.5c-4.143 0-7.5 3.358-7.5 7.5s3.357 7.5 7.5 7.5h66.5v106.5c0 4.142 3.357 7.5 7.5 7.5s7.5-3.358 7.5-7.5v-106.5h39v106.5c0 4.142 3.357 7.5 7.5 7.5s7.5-3.358 7.5-7.5v-106.5h39v106.5c0 4.142 3.357 7.5 7.5 7.5s7.5-3.358 7.5-7.5v-106.5h93v106.5c0 4.142 3.357 7.5 7.5 7.5s7.5-3.358 7.5-7.5v-106.5h39v106.5c0 4.142 3.357 7.5 7.5 7.5s7.5-3.358 7.5-7.5v-106.5h39v106.5c0 4.142 3.357 7.5 7.5 7.5s7.5-3.358 7.5-7.5v-106.5h66.5c4.143 0 7.5-3.358 7.5-7.5s-3.357-7.5-7.5-7.5h-66.5v-39zm-81.5-54v39h-39v-39zm-54 0v39h-39v-39zm-54 0v39h-93v-39zm-108 0v39h-39v-39zm-93 0h39v39h-39zm0 93v-39h39v39zm54 0v-39h39v39zm54 0v-39h93v39zm108 0v-39h39v39zm93 0h-39v-39h39z" fill="#dad9dd"/><g><path d="m512 256h-512l39.996 137.445c45.449 71.278 125.203 118.555 216.004 118.555s170.555-47.277 216.004-118.555z" fill="#7cdd83"/></g><g><path d="m295.508 472.492c-127.948 0-233.967-93.867-252.964-216.492h-42.544l39.996 137.445c45.449 71.278 125.203 118.555 216.004 118.555 80.773 0 152.803-37.413 199.721-95.85-43.862 35.241-99.569 56.342-160.213 56.342z" fill="#5fc16a"/></g><g><path d="m20 316h472v30h-472z" fill="#fff"/></g><g><path d="m241 331c0-8.284 6.716-15 15-15h-236v30h236c-8.284 0-15-6.716-15-15z" fill="#ebeaec"/></g><g><path d="m512 50v206c0 50.59-14.68 97.75-40 137.46v-343.46c0-5.51-4.49-10-10-10h-412c-5.51 0-10 4.49-10 10v343.46c-25.32-39.71-40-86.87-40-137.46v-206c0-27.61 22.39-50 50-50h412c27.61 0 50 22.39 50 50z" fill="#ebeaec"/></g><g><path d="m147.747 0h-97.747c-27.61 0-50 22.39-50 50v206c0 50.59 14.68 97.75 40 137.46v-343.46c0-5.51 4.49-10 10-10h97.747c-11.046 0-20-8.954-20-20s8.954-20 20-20z" fill="#dad9dd"/></g></g></svg>