<svg id="Capa_1" enable-background="new 0 0 512 512" height="512" viewBox="0 0 512 512" width="512" xmlns="http://www.w3.org/2000/svg"><g><g><path d="m256 0c-73.714 0-140.139 31.167-186.85 81.029v349.942c46.711 49.862 113.136 81.029 186.85 81.029 141.385 0 256-114.615 256-256s-114.615-256-256-256z" fill="#ff5252"/></g><g><g><path d="m472 155.99c0-11.02 7.78-12.32 9.61-21.05.25-1.17.39-2.47.39-3.94 0-12.5-10-12.5-10-25 0-4.35 1.21-7.18 2.78-9.56 4.39-6.6-.45-15.44-8.38-15.44h-261.4c0 11.05-8.95 20-20 20s-20-8.95-20-20h-95.85c-15.089 16.109-28.11 34.177-38.664 53.771v242.459c10.554 19.593 23.575 37.661 38.664 53.77h95.85c0-11.05 8.95-20 20-20s20 8.95 20 20h261.4c7.94 0 12.78-8.84 8.39-15.44-1.58-2.38-2.79-5.22-2.79-9.57 0-12.5 10-12.5 10-25 0-1.47-.14-2.77-.39-3.93-1.83-8.74-9.61-10.04-9.61-21.07 0-12.5 10-12.5 10-25.01 0-12.5-10-12.5-10-25s10-12.5 10-25-10-12.5-10-25c0-12.49 10-12.49 10-24.99s-10-12.5-10-25 10-12.5 10-25-10-12.5-10-25z" fill="#f9d987"/></g><g><path d="m481.61 377.06c-1.062-5.074-4.128-7.642-6.515-11.06h-180.095c-60.751 0-110-49.249-110-110v-155c-11.046 0-20-8.954-20-20h-95.85c-15.089 16.109-28.11 34.177-38.664 53.771v242.459c10.554 19.593 23.575 37.661 38.664 53.77h95.85c0-11.05 8.95-20 20-20s20 8.95 20 20h261.4c7.94 0 12.78-8.84 8.39-15.44-1.58-2.38-2.79-5.22-2.79-9.57 0-12.5 10-12.5 10-25 0-1.47-.14-2.77-.39-3.93z" fill="#ffcb37"/></g><g><g><path d="m81.812 161.489c-11.856-10.272-25.667-18.342-40.796-23.596h-12.185c-18.411 35.339-28.831 75.504-28.831 118.107s10.42 82.768 28.831 118.107h12.185c15.129-5.253 28.94-13.324 40.796-23.596l40.96-70.945c1.456-7.633 2.228-15.509 2.228-23.566s-.772-15.933-2.228-23.566z" fill="#ebeaec"/></g><g><g><path d="m75.549 182.124c-1.272 0-2.562-.324-3.743-1.006l-42.858-24.744c-3.587-2.071-4.816-6.658-2.745-10.245 2.07-3.588 6.656-4.817 10.245-2.745l42.858 24.744c3.587 2.071 4.816 6.658 2.745 10.245-1.389 2.405-3.91 3.751-6.502 3.751z" fill="#dad9dd"/></g></g><g><g><path d="m108.253 288.244c-4.143 0-7.5-3.358-7.5-7.5v-49.488c0-4.142 3.357-7.5 7.5-7.5s7.5 3.358 7.5 7.5v49.488c0 4.142-3.357 7.5-7.5 7.5z" fill="#dad9dd"/></g></g><g><path d="m10.912 330.119c4.626 15.318 10.647 30.03 17.918 43.988h12.185v.006c15.134-5.255 28.945-13.338 40.803-23.614l15.185-26.299c-15.599 6.996-32.891 10.892-51.094 10.892-12.15 0-23.891-1.74-34.997-4.973z" fill="#dad9dd"/></g><g><g><path d="m32.704 369.624c-2.592 0-5.113-1.345-6.502-3.751-2.071-3.587-.842-8.174 2.745-10.245l42.858-24.744c3.586-2.071 8.175-.842 10.245 2.745 2.071 3.587.842 8.174-2.745 10.245l-42.858 24.744c-1.18.681-2.47 1.006-3.743 1.006z" fill="#cbcbcf"/></g></g><g><path d="m99.994 198.269c-2.07-3.588-6.659-4.816-10.245-2.745l-89.584 51.72c-.098 2.908-.165 5.824-.165 8.756s.067 5.848.165 8.756l89.584 51.721c1.182.682 2.471 1.006 3.743 1.006 2.592 0 5.113-1.346 6.502-3.751 2.071-3.587.842-8.174-2.745-10.245l-82.249-47.487 82.249-47.486c3.587-2.071 4.816-6.658 2.745-10.245z" fill="#dad9dd"/></g><g><path d="m3.956 301.059c.069-.037.142-.064.211-.104l32.682-18.869c2.578-1.489 4.167-4.24 4.167-7.217v-37.739c0-2.977-1.588-5.728-4.167-7.217l-32.682-18.869c-.068-.039-.142-.066-.211-.104-2.598 14.629-3.956 29.686-3.956 45.06s1.358 30.431 3.956 45.059z" fill="#7c5577"/></g><g><path d="m36.849 157.086c2.578-1.489 4.167-4.24 4.167-7.217v-11.976c-3.444-1.196-6.958-2.241-10.53-3.137-6.029 11.191-11.243 22.884-15.577 34.997z" fill="#7c5577"/></g><g><path d="m36.849 354.914-21.94-12.667c4.334 12.113 9.547 23.806 15.577 34.997 3.573-.896 7.087-1.941 10.53-3.137v-11.976c0-2.978-1.588-5.729-4.167-7.217z" fill="#603256"/></g><g><path d="m112.42 273.544c-2.578-1.489-5.755-1.489-8.333 0l-32.683 18.869c-2.578 1.489-4.167 4.24-4.167 7.217v37.739c0 2.977 1.588 5.728 4.167 7.217l10.349 5.975c20.849-18.041 35.661-42.863 41.027-71.035z" fill="#7c5577"/></g><g><path d="m67.237 333.276v4.094c0 2.977 1.588 5.728 4.167 7.217l10.345 5.973c10.548-9.128 19.555-19.989 26.574-32.144-12.491 7.212-26.348 12.325-41.086 14.86z" fill="#603256"/></g><g><path d="m81.753 161.439-10.349 5.975c-2.578 1.489-4.167 4.24-4.167 7.217v37.739c0 2.977 1.588 5.728 4.167 7.217l32.683 18.869c2.578 1.489 5.755 1.489 8.333 0l10.36-5.981c-5.366-28.173-20.178-52.995-41.027-71.036z" fill="#7c5577"/></g></g><g><path d="m185 131c4.142 0 7.5 3.358 7.5 7.5v48.333c0 4.142-3.358 7.5-7.5 7.5-4.142 0-7.5-3.358-7.5-7.5v-48.333c0-4.142 3.358-7.5 7.5-7.5z" fill="#fcac1f"/></g><g><path d="m185 224.333c4.142 0 7.5 3.358 7.5 7.5v48.333c0 4.142-3.358 7.5-7.5 7.5-4.142 0-7.5-3.358-7.5-7.5v-48.333c0-4.142 3.358-7.5 7.5-7.5z" fill="#fcac1f"/></g><g><path d="m185 317.667c4.142 0 7.5 3.358 7.5 7.5v48.333c0 4.142-3.358 7.5-7.5 7.5-4.142 0-7.5-3.358-7.5-7.5v-48.333c0-4.142 3.358-7.5 7.5-7.5z" fill="#fcac1f"/></g><g><path d="m427 161h-179.5c-8.284 0-15-6.716-15-15 0-8.284 6.716-15 15-15h179.5c8.284 0 15 6.716 15 15 0 8.284-6.716 15-15 15z" fill="#ffcb37"/></g><g><path d="m312.5 146c0-8.284 6.716-15 15-15h-80c-8.284 0-15 6.716-15 15s6.716 15 15 15h80c-8.284 0-15-6.716-15-15z" fill="#fcac1f"/></g><g><path d="m427 221h-179.5c-8.284 0-15-6.716-15-15 0-8.284 6.716-15 15-15h179.5c8.284 0 15 6.716 15 15 0 8.284-6.716 15-15 15z" fill="#ffcb37"/></g><g><path d="m312.5 206c0-8.284 6.716-15 15-15h-80c-8.284 0-15 6.716-15 15s6.716 15 15 15h80c-8.284 0-15-6.716-15-15z" fill="#fcac1f"/></g><g><path d="m337.5 381h-90c-8.284 0-15-6.716-15-15 0-8.284 6.716-15 15-15h90c8.284 0 15 6.716 15 15 0 8.284-6.716 15-15 15z" fill="#fcac1f"/></g><g><path d="m427 381h-19.5c-8.284 0-15-6.716-15-15 0-8.284 6.716-15 15-15h19.5c8.284 0 15 6.716 15 15 0 8.284-6.716 15-15 15z" fill="#fcac1f"/></g><g><path d="m427 281h-179.5c-8.284 0-15-6.716-15-15 0-8.284 6.716-15 15-15h179.5c8.284 0 15 6.716 15 15 0 8.284-6.716 15-15 15z" fill="#ffcb37"/></g><g><path d="m312.5 266c0-8.284 6.716-15 15-15h-80c-8.284 0-15 6.716-15 15s6.716 15 15 15h80c-8.284 0-15-6.716-15-15z" fill="#fcac1f"/></g></g></g></svg>