<svg id="Capa_1" enable-background="new 0 0 512 512" height="512" viewBox="0 0 512 512" width="512" xmlns="http://www.w3.org/2000/svg"><g><g><path d="m512 256c0 141.385-114.615 256-256 256s-256-114.615-256-256z" fill="#ebeaec"/></g><g><path d="m0 256c0-141.385 114.615-256 256-256s256 114.615 256 256l-256 100z" fill="#ffcb37"/></g><g><g><path d="m176 40v60h30v-60c0-5.523 4.477-10 10-10h80c5.523 0 10 4.477 10 10v60h30v-60c0-22.091-17.909-40-40-40h-80c-22.091 0-40 17.909-40 40z" fill="#7c5577"/></g><g><path d="m241 15c0-8.284 6.716-15 15-15h-40c-22.091 0-40 17.909-40 40v60h30v-60c0-5.523 4.477-10 10-10h40c-8.284 0-15-6.716-15-15z" fill="#603256"/></g></g><g><path d="m505.816 312.11c4.038-18.059 6.184-36.833 6.184-56.11h-512c0 19.277 2.146 38.051 6.184 56.11 45.972 32.919 135.591 83.89 249.816 83.89s203.844-50.971 249.816-83.89z" fill="#dad9dd"/></g><g><path d="m512 256s-105 100-256 100-256-100-256-100v-126c0-27.614 22.386-50 50-50h412c27.614 0 50 22.386 50 50z" fill="#ebeaec"/></g><g><path d="m296 208h-20v-20c0-11.046-8.954-20-20-20-11.046 0-20 8.954-20 20v20h-20c-11.046 0-20 8.954-20 20 0 11.046 8.954 20 20 20h20v20c0 11.046 8.954 20 20 20 11.046 0 20-8.954 20-20v-20h20c11.046 0 20-8.954 20-20 0-11.046-8.954-20-20-20z" fill="#ff5252"/></g><g><path d="m146 70h-40c-5.523 0-10 4.477-10 10v375.829c18.143 14.546 38.3 26.681 60 35.899v-411.728c0-5.523-4.477-10-10-10z" fill="#ff5252"/></g><g><path d="m126 80c0-5.523 4.477-10 10-10h-30c-5.523 0-10 4.477-10 10v375.829c9.472 7.594 19.497 14.523 30 20.731z" fill="#f44040"/></g><g><path d="m406 70h-40c-5.523 0-10 4.477-10 10v411.728c21.7-9.217 41.857-21.353 60-35.899v-375.829c0-5.523-4.477-10-10-10z" fill="#ff5252"/></g><g><path d="m386 80c0-5.523 4.477-10 10-10h-30c-5.523 0-10 4.477-10 10v411.728c10.371-4.405 20.385-9.484 30-15.167z" fill="#f44040"/></g><g><path d="m256 228c0-11.046 8.954-20 20-20v-20c0-11.046-8.954-20-20-20s-20 8.954-20 20v20h-20c-11.046 0-20 8.954-20 20 0 11.046 8.954 20 20 20h20v20c0 11.046 8.954 20 20 20s20-8.954 20-20v-20c-11.046 0-20-8.954-20-20z" fill="#f44040"/></g><g><path d="m161 424h-70c-8.284 0-15-6.716-15-15 0-8.284 6.716-15 15-15h70c8.284 0 15 6.716 15 15 0 8.284-6.716 15-15 15z" fill="#7c5577"/></g><g><path d="m126 409c0-8.284 6.716-15 15-15h-50c-8.284 0-15 6.716-15 15s6.716 15 15 15h50c-8.284 0-15-6.716-15-15z" fill="#603256"/></g><g><path d="m161 394h-70c-8.284 0-15-6.716-15-15 0-8.284 6.716-15 15-15h70c8.284 0 15 6.716 15 15 0 8.284-6.716 15-15 15z" fill="#603256"/></g><g><path d="m421 424h-70c-8.284 0-15-6.716-15-15 0-8.284 6.716-15 15-15h70c8.284 0 15 6.716 15 15 0 8.284-6.716 15-15 15z" fill="#7c5577"/></g><g><path d="m386 409c0-8.284 6.716-15 15-15h-50c-8.284 0-15 6.716-15 15s6.716 15 15 15h50c-8.284 0-15-6.716-15-15z" fill="#603256"/></g><g><path d="m421 394h-70c-8.284 0-15-6.716-15-15 0-8.284 6.716-15 15-15h70c8.284 0 15 6.716 15 15 0 8.284-6.716 15-15 15z" fill="#603256"/></g><g><g><circle cx="126" cy="124.5" fill="#ebeaec" r="7.5"/></g><g><circle cx="126" cy="189.5" fill="#ebeaec" r="7.5"/></g><g><circle cx="126" cy="254.5" fill="#ebeaec" r="7.5"/></g><g><circle cx="126" cy="319.5" fill="#ebeaec" r="7.5"/></g></g><g><g><circle cx="386" cy="124.5" fill="#ebeaec" r="7.5"/></g><g><circle cx="386" cy="189.5" fill="#ebeaec" r="7.5"/></g><g><circle cx="386" cy="254.5" fill="#ebeaec" r="7.5"/></g><g><circle cx="386" cy="319.5" fill="#ebeaec" r="7.5"/></g></g></g></svg>