<svg id="Capa_1" enable-background="new 0 0 512 512" height="512" viewBox="0 0 512 512" width="512" xmlns="http://www.w3.org/2000/svg"><g><g><path d="m462.017 407.968c31.406-42.504 49.983-95.064 49.983-151.968 0-141.385-114.615-256-256-256s-256 114.615-256 256 114.615 256 256 256c3.647 0 7.271-.095 10.881-.246z" fill="#ffcb37"/></g><g><g><path d="m137.639 69.08c-25.512 10.568-37.627 39.816-27.06 65.328l15.028 36.28 27.729-11.486-15.307-36.955c-3.734-10.025 1.129-21.324 11.091-25.45 9.962-4.127 21.391.424 25.839 10.153l15.307 36.955 27.729-11.486-15.028-36.28c-10.568-25.512-39.816-37.627-65.328-27.059z" fill="#3752a0"/></g><g><path d="m360.573 351.195 52.477-61.444-45.922-110.866c-25.362-61.229-95.558-90.306-156.788-64.944l-92.388 38.268 240.636 338.385c41.319-18.095 76.94-46.777 103.428-82.627l-18.353-44.307z" fill="#6c83e5"/></g><g><path d="m382.934 478.358-108.194-261.204c-25.58-61.755-96.766-90.802-158.362-64.279-59.368 25.564-87.915 94.483-64.012 154.539 24.8 62.31 95.676 92.107 157.431 66.527l57.084 137.813c42.111-1.762 81.594-13.682 116.053-33.396z" fill="#5e73dd"/></g><g><path d="m157.534 352.293c-8.454-20.41 1.238-43.809 21.648-52.263l-30.615-73.91c-20.41 8.454-43.809-1.238-52.263-21.648-8.401-20.282 1.123-43.509 21.272-52.095-.399.167-.8.326-1.198.498-59.368 25.564-87.915 94.483-64.012 154.539 24.8 62.31 95.676 92.107 157.431 66.527-20.41 8.454-43.809-1.238-52.263-21.648z" fill="#4b68d1"/></g><g><circle cx="163.875" cy="263.076" fill="#3752a0" r="40"/></g><g><path d="m443.665 363.661-110.866 45.922c-20.41 8.454-43.808-1.238-52.262-21.648-8.454-20.41 1.238-43.808 21.648-52.262l110.866-45.922z" fill="#4b68d1"/></g><g><path d="m460.699 35.042c-13.432 32.428-50.609 47.828-83.038 34.395l-97.951-40.572c-47.735-19.773-102.462 2.896-122.234 50.631l-7.761 18.737c-3.17 7.654.464 16.428 8.118 19.598 7.654 3.17 16.428-.464 19.598-8.118l7.761-18.737c13.432-32.428 50.609-47.827 83.038-34.395l97.951 40.573c47.736 19.773 102.462-2.896 122.234-50.631 3.17-7.654-.464-16.428-8.118-19.598-7.653-3.171-16.428.464-19.598 8.117z" fill="#ebeaec"/></g></g></g></svg>