<svg id="Capa_1" enable-background="new 0 0 512 512" height="512" viewBox="0 0 512 512" width="512" xmlns="http://www.w3.org/2000/svg"><g><g><path d="m462.359 407.5-5.359-7 15.594-8c24.953-39.511 39.406-86.315 39.406-136.5 0-141.385-114.615-256-256-256s-256 114.615-256 256c0 50.185 14.453 96.989 39.406 136.5l15.594 8-5.359 7c16.377 22.27 36.265 41.796 58.859 57.751l7.5-6.001 7.5 15.833c8.051 4.88 16.4 9.315 25 13.301l8-6.634 7 13.013c20.518 7.955 42.315 13.34 65 15.764l9-8.277 6 9.442c4.142.199 8.308.308 12.5.308s8.358-.108 12.5-.308l6-9.442 9 8.277c22.685-2.423 44.482-7.809 65-15.764l7-13.013 8 6.634c8.6-3.985 16.949-8.421 25-13.301l7.5-15.833 7.5 6.001c22.594-15.955 42.482-35.481 58.859-57.751z" fill="#ff5252"/></g><g><g><path d="m443.5 392.5v-62.5c0-4.143-3.357-7.5-7.5-7.5h-52.5v-62.5c0-4.143-3.357-7.5-7.5-7.5h-112.5v-132.5c0-4.143-3.357-7.5-7.5-7.5s-7.5 3.357-7.5 7.5v132.5h-112.5c-4.143 0-7.5 3.357-7.5 7.5v62.5h-52.5c-4.143 0-7.5 3.357-7.5 7.5v62.5h-29.094c3.238 5.126 6.652 10.128 10.235 15h58.859v57.751c4.878 3.445 9.879 6.728 15 9.832v-75.083c0-4.143-3.357-7.5-7.5-7.5h-32.5v-55h105v55h-32.5c-4.143 0-7.5 3.357-7.5 7.5v88.384c4.918 2.279 9.919 4.41 15 6.38v-87.264h65v103.027c4.96.53 9.96.923 15 1.166v-111.693c0-4.143-3.357-7.5-7.5-7.5h-32.5v-62.5c0-4.143-3.357-7.5-7.5-7.5h-52.5v-55h225v55h-52.5c-4.143 0-7.5 3.357-7.5 7.5v62.5h-32.5c-4.143 0-7.5 3.357-7.5 7.5v111.692c5.04-.242 10.04-.636 15-1.166v-103.026h65v87.263c5.081-1.97 10.082-4.101 15-6.38v-88.383c0-4.143-3.357-7.5-7.5-7.5h-32.5v-55h105v55h-32.5c-4.143 0-7.5 3.357-7.5 7.5v75.083c5.121-3.104 10.122-6.387 15-9.832v-57.751h58.859c3.583-4.872 6.998-9.874 10.235-15z" fill="#fff"/></g><g><g><path d="m321.45 44.391c-9.485-8.217-20.534-14.674-32.637-18.877h-65.625c-12.103 4.203-23.152 10.659-32.637 18.877l-32.768 56.756c-1.166 6.107-1.783 12.407-1.783 18.853s.617 12.746 1.782 18.853l32.768 56.756c9.485 8.217 20.534 14.674 32.637 18.877h65.625c12.103-4.203 23.152-10.659 32.637-18.877l32.768-56.756c1.166-6.107 1.783-12.407 1.783-18.853s-.617-12.746-1.782-18.853z" fill="#ebeaec"/></g><g><path d="m316.438 62.398c-1.272 0-2.562-.324-3.743-1.006l-34.286-19.795c-3.587-2.071-4.816-6.658-2.745-10.245 2.07-3.588 6.655-4.815 10.245-2.745l34.286 19.795c3.587 2.071 4.816 6.658 2.745 10.245-1.389 2.407-3.911 3.751-6.502 3.751z" fill="#dad9dd"/></g><g><path d="m195.563 62.398c-2.592 0-5.113-1.345-6.502-3.751-2.071-3.587-.842-8.174 2.745-10.245l34.286-19.795c3.585-2.07 8.174-.843 10.245 2.745 2.071 3.587.842 8.174-2.745 10.245l-34.286 19.795c-1.181.682-2.471 1.006-3.743 1.006z" fill="#dad9dd"/></g><g><path d="m342.603 147.295c-4.143 0-7.5-3.357-7.5-7.5v-39.59c0-4.143 3.357-7.5 7.5-7.5s7.5 3.357 7.5 7.5v39.59c0 4.143-3.358 7.5-7.5 7.5z" fill="#dad9dd"/></g><g><path d="m190.545 44.401-32.772 56.763c-1.163 6.1-1.773 12.397-1.773 18.836 0 6.446.617 12.746 1.782 18.853l32.768 56.756c9.485 8.217 20.534 14.674 32.637 18.877h65.625v.005c12.107-4.204 23.156-10.67 32.643-18.891l12.147-21.039c-12.479 5.597-26.313 8.714-40.875 8.714-55.228 0-100-44.772-100-100 0-18.187 4.857-35.238 13.341-49.932-5.531 3.192-10.726 6.901-15.523 11.058z" fill="#dad9dd"/></g><g><path d="m169.397 147.295c-4.143 0-7.5-3.357-7.5-7.5v-39.59c0-4.143 3.357-7.5 7.5-7.5s7.5 3.357 7.5 7.5v39.59c0 4.143-3.357 7.5-7.5 7.5z" fill="#cbcbcf"/></g><g><path d="m229.835 212.398c-1.272 0-2.562-.324-3.743-1.006l-34.286-19.795c-3.587-2.071-4.816-6.658-2.745-10.245 2.069-3.588 6.656-4.815 10.245-2.745l34.286 19.795c3.587 2.071 4.816 6.658 2.745 10.245-1.389 2.407-3.91 3.751-6.502 3.751z" fill="#cbcbcf"/></g><g><path d="m282.165 212.398c-2.592 0-5.113-1.345-6.502-3.751-2.071-3.587-.842-8.174 2.745-10.245l34.286-19.795c3.586-2.069 8.175-.843 10.245 2.745 2.071 3.587.842 8.174-2.745 10.245l-34.286 19.795c-1.18.682-2.47 1.006-3.743 1.006z" fill="#cbcbcf"/></g><path d="m334.549 156.69-63.549-36.69 63.549-36.69c3.587-2.071 4.816-6.658 2.745-10.245-2.071-3.588-6.66-4.814-10.245-2.745l-63.549 36.69v-73.38c0-4.143-3.357-7.5-7.5-7.5s-7.5 3.357-7.5 7.5v73.38l-63.549-36.69c-3.59-2.07-8.175-.843-10.245 2.745-2.071 3.587-.842 8.174 2.745 10.245l63.549 36.69-63.549 36.69c-3.587 2.071-4.816 6.658-2.745 10.245 1.39 2.406 3.91 3.751 6.502 3.751 1.272 0 2.563-.324 3.743-1.006l63.549-36.69v73.38c0 4.143 3.357 7.5 7.5 7.5s7.5-3.357 7.5-7.5v-73.38l63.549 36.69c1.182.682 2.471 1.006 3.743 1.006 2.592 0 5.113-1.345 6.502-3.751 2.071-3.586.842-8.173-2.745-10.245z" fill="#dad9dd"/><g><path d="m226.521 99.131 26.146-15.095c2.063-1.191 4.604-1.191 6.667 0l26.146 15.095c2.063 1.191 3.333 3.392 3.333 5.773v30.191c0 2.382-1.271 4.583-3.333 5.773l-26.146 15.095c-2.063 1.191-4.604 1.191-6.667 0l-26.146-15.095c-2.063-1.191-3.333-3.392-3.333-5.773v-30.191c-.001-2.381 1.27-4.582 3.333-5.773z" fill="#7c5577"/></g><g><path d="m256 20c-11.495 0-22.533 1.945-32.813 5.515v9.581c0 2.382 1.271 4.583 3.333 5.773l26.146 15.095c2.063 1.191 4.604 1.191 6.667 0l26.146-15.095c2.063-1.191 3.333-3.392 3.333-5.773v-9.581c-10.279-3.57-21.317-5.515-32.812-5.515z" fill="#7c5577"/></g><g><path d="m285.479 199.131-26.146-15.095c-2.063-1.191-4.604-1.191-6.667 0l-26.146 15.095c-2.063 1.191-3.333 3.392-3.333 5.773v9.581c10.28 3.57 21.318 5.515 32.813 5.515s22.533-1.945 32.813-5.515v-9.581c0-2.381-1.271-4.582-3.334-5.773z" fill="#603256"/></g><g><path d="m157.776 101.179 8.288 4.785c2.063 1.191 4.604 1.191 6.667 0l26.146-15.095c2.063-1.191 3.333-3.392 3.333-5.773v-30.191c0-2.382-1.271-4.583-3.333-5.773l-8.279-4.78c-16.679 14.432-28.529 34.29-32.822 56.827z" fill="#7c5577"/></g><g><path d="m192.727 83.273c0-12.021 2.123-23.546 6.012-34.222l-8.138-4.699c-16.679 14.432-28.537 34.286-32.83 56.823l8.294 4.788c2.063 1.191 4.604 1.191 6.667 0l20.579-11.881c-.383-3.55-.584-7.156-.584-10.809z" fill="#603256"/></g><g><path d="m345.936 134.036c-2.063-1.191-4.604-1.191-6.667 0l-26.146 15.095c-2.063 1.191-3.333 3.392-3.333 5.773v30.191c0 2.382 1.271 4.583 3.333 5.773l8.279 4.78c16.679-14.433 28.529-34.291 32.822-56.828z" fill="#7c5577"/></g><g><path d="m309.79 181.82v3.275c0 2.382 1.271 4.583 3.333 5.773l8.276 4.778c8.439-7.302 15.644-15.991 21.259-25.715-9.993 5.772-21.078 9.862-32.868 11.889z" fill="#603256"/></g><g><path d="m198.877 149.131-26.146-15.095c-2.063-1.191-4.604-1.191-6.667 0l-8.288 4.785c4.293 22.538 16.142 42.396 32.822 56.828l8.279-4.78c2.063-1.191 3.333-3.392 3.333-5.773v-30.191c0-2.382-1.27-4.583-3.333-5.774z" fill="#603256"/></g><g><path d="m321.402 44.351-8.279 4.78c-2.063 1.191-3.333 3.392-3.333 5.773v30.191c0 2.382 1.271 4.583 3.333 5.773l26.146 15.095c2.063 1.191 4.604 1.191 6.667 0l8.288-4.785c-4.293-22.536-16.143-42.394-32.822-56.827z" fill="#7c5577"/></g></g></g></g></svg>