<svg id="Capa_1" enable-background="new 0 0 512 512" height="512" viewBox="0 0 512 512" width="512" xmlns="http://www.w3.org/2000/svg"><g><g><circle cx="256" cy="256" fill="#5e73dd" r="256"/></g><g><path d="m418.144 178.479c-43.435-19.292-101.019-29.917-162.144-29.917-28.357 0-55.949 2.29-81.723 6.669 4.593-20.178 10.598-38.822 17.911-55.285 17.344-39.05 40.603-61.446 63.812-61.446 4.143 0 7.5-3.357 7.5-7.5s-3.357-7.5-7.5-7.5c-29.838 0-57.369 24.986-77.521 70.356-8.46 19.047-15.252 40.815-20.214 64.409-23.594 4.961-45.362 11.754-64.408 20.214-45.371 20.152-70.357 47.683-70.357 77.521 0 4.143 3.357 7.5 7.5 7.5s7.5-3.357 7.5-7.5c0-23.209 22.396-46.468 61.445-63.813 16.463-7.312 35.107-13.318 55.285-17.911-4.378 25.774-6.668 53.366-6.668 81.723 0 61.125 10.625 118.709 29.917 162.144 20.152 45.371 47.683 70.357 77.521 70.357 4.143 0 7.5-3.357 7.5-7.5s-3.357-7.5-7.5-7.5c-23.209 0-46.468-22.396-63.813-61.445-18.46-41.56-28.626-96.981-28.626-156.055 0-29.679 2.568-58.435 7.463-84.976 26.541-4.895 55.297-7.463 84.976-7.463 59.073 0 114.495 10.166 156.055 28.626 39.049 17.345 61.445 40.604 61.445 63.813 0 4.143 3.357 7.5 7.5 7.5s7.5-3.357 7.5-7.5c0-29.838-24.986-57.369-70.356-77.521z" fill="#95d6fc"/><g><g><path d="m370.537 123.685c-16.598-14.38-35.934-25.679-57.115-33.034h-114.844c-21.181 7.355-40.517 18.654-57.115 33.034l-57.344 99.323c-2.039 10.686-3.119 21.712-3.119 32.992s1.08 22.306 3.119 32.992l57.344 99.323c16.598 14.38 35.934 25.68 57.115 33.034h114.844c21.181-7.355 40.517-18.654 57.115-33.034l57.344-99.323c2.039-10.686 3.119-21.712 3.119-32.992s-1.08-22.306-3.119-32.992z" fill="#ebeaec"/></g><g><path d="m361.771 149.572c-1.272 0-2.563-.324-3.743-1.006l-60.001-34.643c-3.587-2.071-4.816-6.658-2.745-10.245 2.07-3.588 6.659-4.815 10.245-2.745l60.001 34.643c3.587 2.071 4.816 6.658 2.745 10.245-1.389 2.407-3.911 3.751-6.502 3.751z" fill="#dad9dd"/></g><g><path d="m150.229 149.572c-2.592 0-5.112-1.345-6.502-3.751-2.071-3.587-.842-8.174 2.745-10.245l60.001-34.643c3.585-2.069 8.174-.843 10.245 2.745 2.071 3.587.842 8.174-2.745 10.245l-60.001 34.643c-1.18.682-2.47 1.006-3.743 1.006z" fill="#dad9dd"/></g><g><path d="m407.555 298.142c-4.143 0-7.5-3.357-7.5-7.5v-69.283c0-4.143 3.357-7.5 7.5-7.5s7.5 3.357 7.5 7.5v69.283c0 4.142-3.358 7.5-7.5 7.5z" fill="#dad9dd"/></g><g><path d="m141.454 123.701-57.351 99.335c-2.035 10.676-3.103 21.695-3.103 32.964 0 11.28 1.08 22.306 3.119 32.992l57.344 99.323c16.598 14.38 35.934 25.68 57.115 33.034h114.844v.008c21.188-7.357 40.523-18.673 57.125-33.06l21.257-36.818c-21.839 9.795-46.047 15.249-71.532 15.249-96.65 0-175-78.35-175-175 0-31.827 8.499-61.667 23.347-87.381-9.679 5.589-18.771 12.08-27.165 19.354z" fill="#dad9dd"/></g><g><path d="m104.445 298.142c-4.143 0-7.5-3.357-7.5-7.5v-69.283c0-4.143 3.357-7.5 7.5-7.5s7.5 3.357 7.5 7.5v69.283c0 4.142-3.357 7.5-7.5 7.5z" fill="#cbcbcf"/></g><g><path d="m210.217 412.072c-1.272 0-2.563-.324-3.743-1.006l-60.001-34.643c-3.587-2.071-4.816-6.658-2.745-10.245 2.07-3.588 6.658-4.815 10.245-2.745l60.001 34.643c3.587 2.071 4.816 6.658 2.745 10.245-1.389 2.407-3.91 3.751-6.502 3.751z" fill="#cbcbcf"/></g><g><path d="m301.783 412.072c-2.592 0-5.112-1.345-6.502-3.751-2.071-3.587-.842-8.174 2.745-10.245l60.001-34.643c3.586-2.07 8.173-.843 10.245 2.745 2.071 3.587.842 8.174-2.745 10.245l-60.001 34.643c-1.18.682-2.47 1.006-3.743 1.006z" fill="#cbcbcf"/></g><path d="m390.648 325.079-119.648-69.079 119.649-69.079c3.587-2.071 4.816-6.658 2.745-10.245-2.07-3.588-6.659-4.814-10.245-2.745l-119.649 69.079v-138.158c0-4.143-3.357-7.5-7.5-7.5s-7.5 3.357-7.5 7.5v138.158l-119.648-69.079c-3.589-2.07-8.175-.843-10.245 2.745-2.071 3.587-.842 8.174 2.745 10.245l119.648 69.079-119.649 69.079c-3.587 2.071-4.816 6.658-2.745 10.245 1.389 2.406 3.91 3.751 6.502 3.751 1.272 0 2.563-.324 3.743-1.006l119.649-69.079v138.158c0 4.143 3.357 7.5 7.5 7.5s7.5-3.357 7.5-7.5v-138.158l119.648 69.079c1.182.682 2.471 1.006 3.743 1.006 2.592 0 5.113-1.345 6.502-3.751 2.072-3.587.842-8.174-2.745-10.245z" fill="#dad9dd"/><g><path d="m204.411 219.479 45.756-26.417c3.61-2.084 8.057-2.084 11.667 0l45.756 26.417c3.61 2.084 5.833 5.936 5.833 10.104v52.834c0 4.168-2.224 8.02-5.833 10.104l-45.756 26.417c-3.61 2.084-8.057 2.084-11.667 0l-45.756-26.417c-3.61-2.084-5.833-5.936-5.833-10.104v-52.834c0-4.168 2.223-8.02 5.833-10.104z" fill="#7c5577"/></g><g><path d="m256 81c-20.116 0-39.434 3.404-57.422 9.651v16.766c0 4.168 2.224 8.02 5.833 10.104l45.756 26.417c3.61 2.084 8.057 2.084 11.667 0l45.756-26.417c3.61-2.084 5.833-5.935 5.833-10.104v-16.766c-17.989-6.247-37.307-9.651-57.423-9.651z" fill="#7c5577"/></g><g><path d="m307.589 394.479-45.756-26.417c-3.61-2.084-8.057-2.084-11.667 0l-45.756 26.417c-3.61 2.084-5.833 5.936-5.833 10.104v16.766c17.989 6.247 37.307 9.651 57.423 9.651s39.434-3.404 57.422-9.651v-16.766c0-4.168-2.223-8.02-5.833-10.104z" fill="#603256"/></g><g><path d="m84.108 223.064 14.504 8.374c3.61 2.084 8.057 2.084 11.667 0l45.756-26.417c3.61-2.084 5.833-5.935 5.833-10.104v-52.834c0-4.168-2.224-8.02-5.833-10.104l-14.488-8.365c-29.189 25.257-49.926 60.009-57.439 99.45z" fill="#7c5577"/></g><g><path d="m145.272 191.728c0-21.037 3.716-41.205 10.522-59.888l-14.242-8.222c-29.189 25.256-49.94 60-57.453 99.441l14.514 8.38c3.61 2.084 8.057 2.084 11.667 0l36.013-20.792c-.669-6.217-1.021-12.526-1.021-18.919z" fill="#603256"/></g><g><path d="m413.388 280.562c-3.61-2.084-8.057-2.084-11.667 0l-45.756 26.417c-3.61 2.084-5.833 5.936-5.833 10.104v52.834c0 4.168 2.224 8.02 5.833 10.104l14.488 8.365c29.188-25.257 49.925-60.009 57.438-99.449z" fill="#7c5577"/></g><g><path d="m350.132 364.186v5.731c0 4.168 2.224 8.02 5.833 10.104l14.484 8.362c14.768-12.779 27.378-27.985 37.204-45.002-17.489 10.099-36.888 17.256-57.521 20.805z" fill="#603256"/></g><g><path d="m156.035 306.979-45.756-26.417c-3.61-2.084-8.057-2.084-11.667 0l-14.504 8.374c7.512 39.441 28.249 74.192 57.438 99.449l14.488-8.365c3.61-2.084 5.833-5.936 5.833-10.104v-52.834c.001-4.167-2.223-8.019-5.832-10.103z" fill="#603256"/></g><g><path d="m370.454 123.614-14.488 8.365c-3.61 2.084-5.833 5.935-5.833 10.104v52.834c0 4.168 2.224 8.02 5.833 10.104l45.756 26.417c3.61 2.084 8.057 2.084 11.667 0l14.504-8.374c-7.514-39.441-28.251-74.193-57.439-99.45z" fill="#7c5577"/></g></g><path d="m420.402 91.598c-43.914-43.913-102.299-68.098-164.402-68.098s-120.488 24.185-164.402 68.098c-43.913 43.914-68.098 102.299-68.098 164.402s24.185 120.488 68.098 164.402c43.914 43.913 102.299 68.098 164.402 68.098s120.488-24.185 164.402-68.098c43.913-43.914 68.098-102.299 68.098-164.402s-24.185-120.488-68.098-164.402zm53.098 164.402c0 23.209-22.396 46.468-61.445 63.813-16.462 7.312-35.106 13.318-55.285 17.911 4.378-25.774 6.668-53.366 6.668-81.723 0-61.125-10.625-118.709-29.917-162.144-9.733-21.914-21.192-39.056-33.797-50.94 99.047 20.294 173.776 108.126 173.776 213.083zm-217.5-217.5c23.209 0 46.468 22.396 63.813 61.445 18.46 41.56 28.626 96.981 28.626 156.055 0 29.679-2.568 58.435-7.463 84.976-26.541 4.895-55.296 7.463-84.976 7.463-59.073 0-114.495-10.166-156.055-28.626-39.049-17.345-61.445-40.604-61.445-63.813 0-119.93 97.57-217.5 217.5-217.5zm-213.084 261.225c11.885 12.605 29.027 24.063 50.94 33.797 43.435 19.292 101.019 29.917 162.144 29.917 28.357 0 55.949-2.29 81.723-6.669-4.593 20.178-10.598 38.822-17.911 55.285-17.344 39.049-40.603 61.445-63.812 61.445-104.958 0-192.789-74.729-213.084-173.775zm256.809 169.359c12.605-11.885 24.063-29.026 33.797-50.94 8.46-19.047 15.252-40.815 20.214-64.409 23.594-4.961 45.362-11.754 64.408-20.214 21.914-9.734 39.056-21.192 50.94-33.797-17.4 84.918-84.442 151.96-169.359 169.36z" fill="#b4e4fc"/></g></g></svg>