<svg id="Capa_1" enable-background="new 0 0 512 512" height="512" viewBox="0 0 512 512" width="512" xmlns="http://www.w3.org/2000/svg"><g><g><path d="m441.427 432.5c43.729-45.927 70.573-108.078 70.573-176.5 0-141.385-114.615-256-256-256s-256 114.615-256 256c0 68.422 26.844 130.573 70.573 176.5l185.427 40z" fill="#ffcb37"/></g><g><path d="m441.427 432.5h-370.854c46.632 48.975 112.464 79.5 185.427 79.5s138.795-30.525 185.427-79.5z" fill="#a0391e"/></g><g><g><path d="m307.764 305.031v-47.031h-51.764-51.764v47.031c0 45.316-13.294 89.635-38.236 127.469h90 90c-24.942-37.834-38.236-82.154-38.236-127.469z" fill="#dad9dd"/></g><g><path d="m244.236 258h-40v47.031c0 45.316-13.294 89.635-38.236 127.469h40c24.942-37.834 38.236-82.154 38.236-127.469z" fill="#cbcbcf"/></g><g><path d="m366 447.5h-220c-8.284 0-15-6.716-15-15 0-8.284 6.716-15 15-15h220c8.284 0 15 6.716 15 15 0 8.284-6.716 15-15 15z" fill="#ebeaec"/></g><g><path d="m231 432.5c0-8.284 6.716-15 15-15h-100c-8.284 0-15 6.716-15 15s6.716 15 15 15h100c-8.284 0-15-6.716-15-15z" fill="#dad9dd"/></g><g><path d="m481 280-225 30-225-30v-260c0-11.046 8.954-20 20-20h410c11.046 0 20 8.954 20 20z" fill="#7c5577"/></g><g><path d="m140.5 0h-89.5c-11.046 0-20 8.954-20 20v260l109.5 14.6v-14.6c-8.284 0-15-6.716-15-15s6.716-15 15-15v-220c-8.284 0-15-6.716-15-15s6.716-15 15-15z" fill="#603256"/></g><g><path d="m451 202.5v-25l-7.5-7.5 7.5-7.5v-45l-7.5-7.5 7.5-7.5v-25l-7.5-7.5 7.5-7.5v-32.5h-187.5l-7.5 7.5-7.5-7.5h-187.5v32.5l7.5 7.5-7.5 7.5v25l7.5 7.5-7.5 7.5v45l7.5 7.5-7.5 7.5v25l7.5 7.5-7.5 7.5v32.5h187.5l7.5-7.5 7.5 7.5h187.5v-32.5l-7.5-7.5z" fill="#7cdd83"/></g><g><path d="m200 230v-180c0-11.046 8.954-20 20-20h-159v32.5l7.5 7.5-7.5 7.5v25l7.5 7.5-7.5 7.5v45l7.5 7.5-7.5 7.5v25l7.5 7.5-7.5 7.5v32.5h159c-11.046 0-20-8.954-20-20z" fill="#5fc16a"/></g><g><path d="m481 280h-450v40c0 11.046 8.954 20 20 20h410c11.046 0 20-8.954 20-20z" fill="#ebeaec"/></g><g><path d="m92 320v-40h-61v40c0 11.046 8.954 20 20 20h61c-11.046 0-20-8.954-20-20z" fill="#dad9dd"/></g><g><g><path d="m293.5 140c0-18.11-12.904-33.261-30-36.745v-73.255h-15v73.255c-17.096 3.484-30 18.635-30 36.745s12.904 33.261 30 36.745v73.255h15v-73.255c17.096-3.484 30-18.635 30-36.745zm-30-21.21c8.729 3.096 15 11.433 15 21.21s-6.271 18.114-15 21.21zm-15 42.42c-8.729-3.096-15-11.433-15-21.21s6.271-18.114 15-21.21z" fill="#fff"/></g></g><g><g><path d="m133.5 77.5v125h-72.5v15h80c4.142 0 7.5-3.357 7.5-7.5v-33.255c17.096-3.484 30-18.635 30-36.745s-12.904-33.261-30-36.745v-33.255c0-4.143-3.358-7.5-7.5-7.5h-80v15zm15 41.29c8.729 3.096 15 11.433 15 21.21s-6.271 18.114-15 21.21z" fill="#fff"/></g></g><g><path d="m93.5 117.5v45h-32.5v15h40c4.142 0 7.5-3.357 7.5-7.5v-60c0-4.143-3.358-7.5-7.5-7.5h-40v15z" fill="#fff"/></g><g><g><path d="m378.5 202.5v-125h72.5v-15h-80c-4.142 0-7.5 3.357-7.5 7.5v33.255c-17.096 3.484-30 18.635-30 36.745s12.904 33.261 30 36.745v33.255c0 4.143 3.358 7.5 7.5 7.5h80v-15zm-15-41.29c-8.729-3.096-15-11.433-15-21.21s6.271-18.114 15-21.21z" fill="#fff"/></g></g><g><path d="m418.5 162.5v-45h32.5v-15h-40c-4.142 0-7.5 3.357-7.5 7.5v60c0 4.143 3.358 7.5 7.5 7.5h40v-15z" fill="#fff"/></g></g></g></svg>