<svg id="Capa_1" enable-background="new 0 0 512 512" height="512" viewBox="0 0 512 512" width="512" xmlns="http://www.w3.org/2000/svg"><g><g><path d="m116.029 470.36h279.942c69.863-45.712 116.029-124.639 116.029-214.36 0-141.385-114.615-256-256-256s-256 114.615-256 256c0 89.721 46.166 168.648 116.029 214.36z" fill="#603256"/></g><g><path d="m396 15v455.36c-9.57 6.26-19.59 11.9-30 16.86v-472.22c0-8.28 6.72-15 15-15s15 6.72 15 15z" fill="#bc4c2e"/></g><g><path d="m396 470.36v-300.67c0 8.284-6.716 15-15 15s-15-6.716-15-15v317.53c10.41-4.96 20.43-10.6 30-16.86z" fill="#a0391e"/></g><g><path d="m146 15v472.22c-10.41-4.96-20.43-10.6-30-16.86v-455.36c0-8.28 6.72-15 15-15s15 6.72 15 15z" fill="#bc4c2e"/></g><g><path d="m146 487.22v-317.53c0 8.284-6.716 15-15 15s-15-6.716-15-15v300.67c9.57 6.26 19.59 11.9 30 16.86z" fill="#a0391e"/></g><g><path d="m346 169.69c0 30.25 22.39 55.28 51.51 59.4 4.89.69 8.49 4.94 8.49 9.88v117.43c0 4.94-3.6 9.19-8.49 9.88-29.12 4.13-51.51 29.15-51.51 59.41 0 23.91 13.99 44.56 34.23 54.19-36.79 20.46-79.15 32.12-124.23 32.12s-87.44-11.66-124.23-32.12c20.24-9.63 34.23-30.28 34.23-54.19 0-30.26-22.39-55.28-51.51-59.41-4.89-.69-8.49-4.94-8.49-9.88v-117.43c0-4.94 3.6-9.19 8.49-9.88 29.12-4.12 51.51-29.15 51.51-59.4 0-30.26-22.39-55.28-51.51-59.41-4.89-.69-8.49-4.94-8.49-9.88v-48.71c0-1.29.24-2.53.69-3.66 1.45-3.69 5.03-6.31 9.23-6.34h280.16c4.2.03 7.78 2.65 9.23 6.34.45 1.13.69 2.37.69 3.66v48.71c0 4.94-3.6 9.19-8.49 9.88-29.12 4.13-51.51 29.15-51.51 59.41z" fill="#ebeaec"/></g><g><path d="m131.774 479.872c36.791 20.459 79.143 32.128 124.226 32.128s87.435-11.669 124.226-32.128c-20.236-9.643-34.226-30.276-34.226-54.184h-30c-44.183 0-80-35.817-80-80v-254c0-27.614 22.386-50 50-50h-170c-.016 0-.031.002-.047.002-3.133 2.052-6.221 4.166-9.257 6.349-.444 1.131-.696 2.359-.696 3.649v48.716c0 4.94 3.6 9.188 8.491 9.881 29.116 4.123 51.509 29.148 51.509 59.403s-22.393 55.279-51.509 59.404c-4.891.693-8.491 4.941-8.491 9.881v117.431c0 4.94 3.6 9.188 8.491 9.881 29.116 4.123 51.509 29.148 51.509 59.403 0 23.908-13.99 44.541-34.226 54.184z" fill="#dad9dd"/></g><g><path d="m296 277.688h-20v-20c0-11.046-8.954-20-20-20-11.046 0-20 8.954-20 20v20h-20c-11.046 0-20 8.954-20 20 0 11.046 8.954 20 20 20h20v20c0 11.046 8.954 20 20 20 11.046 0 20-8.954 20-20v-20h20c11.046 0 20-8.954 20-20 0-11.046-8.954-20-20-20z" fill="#ff5252"/></g><g><path d="m256 297.688c0-11.046 8.954-20 20-20v-20c0-11.046-8.954-20-20-20s-20 8.954-20 20v20h-20c-11.046 0-20 8.954-20 20 0 11.046 8.954 20 20 20h20v20c0 11.046 8.954 20 20 20s20-8.954 20-20v-20c-11.046 0-20-8.955-20-20z" fill="#f44040"/></g></g></svg>