<svg id="Capa_1" enable-background="new 0 0 512 512" height="512" viewBox="0 0 512 512" width="512" xmlns="http://www.w3.org/2000/svg"><g><g><path d="m256 0c-141.385 0-256 114.615-256 256 0 67.328 26.004 128.572 68.5 174.273l250 74.029c111.172-27.896 193.5-128.479 193.5-248.302 0-141.385-114.615-256-256-256z" fill="#5e73dd"/></g><g><path d="m318.5 182c0-11.046-8.954-20-20-20h-210c-11.046 0-20 8.954-20 20v248.273c46.743 50.268 113.443 81.727 187.5 81.727 21.562 0 42.495-2.679 62.5-7.699z" fill="#ff5252"/></g><g><path d="m298.5 162h-145v168c0 33.084 26.916 60 60 60h105v-208c0-11.046-8.954-20-20-20z" fill="#f44040"/></g><g><path d="m213.5 0h210c11.046 0 20 8.954 20 20v310c0 11.046-8.954 20-20 20h-210c-11.046 0-20-8.954-20-20v-310c0-11.046 8.954-20 20-20z" fill="#ffcb37"/></g><g><path d="m443.5 310c-115.98 0-210-94.02-210-210v-100h-20c-11.046 0-20 8.954-20 20v310c0 11.046 8.954 20 20 20h210c11.046 0 20-8.954 20-20z" fill="#fcac1f"/></g></g></svg>