<svg id="Capa_1" enable-background="new 0 0 512 512" height="512" viewBox="0 0 512 512" width="512" xmlns="http://www.w3.org/2000/svg"><g><g><circle cx="256" cy="256" fill="#69d173" r="256"/></g><g><g><path d="m424.5 56h-337c-48.325 0-87.5 39.175-87.5 87.5v87.5h512v-87.5c0-48.325-39.175-87.5-87.5-87.5z" fill="#f44040"/></g><g><path d="m172.515 216c0-8.284 6.716-15 15-15v-115c-8.284 0-15-6.716-15-15s6.716-15 15-15h-100.015c-48.325 0-87.5 39.175-87.5 87.5v87.5h187.515c-8.285 0-15-6.716-15-15z" fill="#d62b2b"/></g><g><path d="m87.5 201c-31.706 0-57.5-25.794-57.5-57.5s25.794-57.5 57.5-57.5h337c31.706 0 57.5 25.794 57.5 57.5s-25.794 57.5-57.5 57.5z" fill="#d62b2b"/></g><g><path d="m424.5 456h-337c-48.325 0-87.5-39.175-87.5-87.5 0-2.187 0-225 0-225 0 48.325 39.175 87.5 87.5 87.5h337c48.325 0 87.5-39.175 87.5-87.5v225c0 48.325-39.175 87.5-87.5 87.5z" fill="#ff5252"/></g><g><g><path d="m496.896 192.59c-2.136 42.219-37.155 75.91-79.896 75.91h-322c-42.741 0-77.76-33.691-79.896-75.91-9.528-14.007-15.104-30.909-15.104-49.09v225c0 48.325 39.175 87.5 87.5 87.5h337c48.325 0 87.5-39.175 87.5-87.5v-225c0 18.181-5.576 35.083-15.104 49.09zm-72.396 248.41h-337c-28.618 0-53.408-16.669-65.186-40.808-2.675-5.482 4.214-10.631 8.72-6.519 16.893 15.414 39.35 24.827 63.966 24.827h322c24.616 0 47.073-9.413 63.966-24.827 4.506-4.112 11.395 1.037 8.72 6.519-11.778 24.139-36.568 40.808-65.186 40.808zm72.5-117.5c0 44.183-35.817 80-80 80h-322c-44.183 0-80-35.817-80-80 0-5.042 6.223-7.504 9.609-3.768 17.394 19.194 42.509 31.268 70.391 31.268h322c27.882 0 52.997-12.074 70.391-31.268 3.386-3.736 9.609-1.274 9.609 3.768zm0-67.5c0 44.183-35.817 80-80 80h-322c-44.183 0-80-35.817-80-80 0-5.042 6.223-7.504 9.609-3.768 17.394 19.194 42.509 31.268 70.391 31.268h322c27.882 0 52.997-12.074 70.391-31.268 3.386-3.736 9.609-1.274 9.609 3.768z" fill="#f44040"/></g></g><g><g><g><g><path d="m267.007 422.991c-43.832 0-79.492-35.659-79.492-79.491s35.66-79.491 79.492-79.491c15.928 0 31.301 4.698 44.458 13.588 9.152 6.184 11.56 18.616 5.376 27.769-6.183 9.152-18.615 11.561-27.769 5.376-6.52-4.404-14.149-6.732-22.065-6.732-21.776 0-39.492 17.716-39.492 39.491s17.716 39.491 39.492 39.491c7.811 0 14.321-2.271 19.35-6.749.984-.876 1.928-1.851 2.803-2.894 7.095-8.465 19.71-9.575 28.175-2.478 8.465 7.096 9.574 19.711 2.478 28.175-2.117 2.526-4.423 4.904-6.853 7.068-12.4 11.041-28.29 16.877-45.953 16.877z" fill="#ebeaec"/></g></g></g><g><path d="m267.007 422.991c17.663 0 33.554-5.836 45.952-16.877 2.43-2.164 4.735-4.542 6.853-7.068 7.097-8.464 5.987-21.079-2.478-28.175-8.465-7.098-21.08-5.987-28.175 2.478-.875 1.043-1.818 2.018-2.803 2.894-5.028 4.479-11.539 6.749-19.35 6.749-21.776 0-39.492-17.716-39.492-39.491 0 11.046-8.954 20-20 20s-20-8.954-20-20c0 43.831 35.661 79.49 79.493 79.49z" fill="#dad9dd"/></g></g></g></g></svg>