<svg id="Capa_1" enable-background="new 0 0 512 512" height="512" viewBox="0 0 512 512" width="512" xmlns="http://www.w3.org/2000/svg"><g><g><path d="m256 0c-141.385 0-256 114.615-256 256 0 99.546 56.82 185.818 139.795 228.163h19.705l7.832 12.058c27.628 10.201 57.496 15.779 88.668 15.779s61.04-5.578 88.668-15.78l7.832-12.058h19.705c82.975-42.344 139.795-128.616 139.795-228.162 0-141.385-114.615-256-256-256z" fill="#ffcb37"/></g><g><path d="m174.133 416.111h163.733v30h-163.733z" fill="#a0391e"/></g><g><path d="m139.795 484.163c8.891 4.537 18.083 8.567 27.537 12.058l53.307-146.46-28.191-10.261z" fill="#bc4c2e"/></g><g><path d="m319.552 336.935-28.191 10.261 54.127 148.713c9.443-3.524 18.626-7.581 27.503-12.15z" fill="#bc4c2e"/></g><g><path d="m336 340h-160c-11.046 0-20 8.954-20 20 0 11.046 8.954 20 20 20h160c11.046 0 20-8.954 20-20 0-11.046-8.954-20-20-20z" fill="#a0391e"/></g><g><path d="m461 360h-410c-11.046 0-20-8.954-20-20v-320c0-11.046 8.954-20 20-20h410c11.046 0 20 8.954 20 20v320c0 11.046-8.954 20-20 20z" fill="#bc4c2e"/></g><g><path d="m140.5 0h-89.5c-11.046 0-20 8.954-20 20v320c0 11.046 8.954 20 20 20h89.5c-8.284 0-15-6.716-15-15s6.716-15 15-15v-300c-8.284 0-15-6.716-15-15s6.716-15 15-15z" fill="#a0391e"/></g><g><path d="m451 282.5v-45l-7.5-7.5 7.5-7.5v-85l-7.5-7.5 7.5-7.5v-45l-7.5-7.5 7.5-7.5v-32.5h-187.5l-7.5 7.5-7.5-7.5h-187.5v32.5l7.5 7.5-7.5 7.5v45l7.5 7.5-7.5 7.5v85l7.5 7.5-7.5 7.5v45l7.5 7.5-7.5 7.5v32.5h187.5l7.5-7.5 7.5 7.5h187.5v-32.5l-7.5-7.5z" fill="#7cdd83"/></g><g><path d="m200 310v-260c0-11.046 8.954-20 20-20h-159v32.5l7.5 7.5-7.5 7.5v45l7.5 7.5-7.5 7.5v85l7.5 7.5-7.5 7.5v45l7.5 7.5-7.5 7.5v32.5h159c-11.046 0-20-8.954-20-20z" fill="#5fc16a"/></g><g><g><path d="m293.5 180c0-18.11-12.904-33.261-30-36.745v-113.255h-15v113.255c-17.096 3.484-30 18.635-30 36.745s12.904 33.261 30 36.745v113.255h15v-113.255c17.096-3.484 30-18.635 30-36.745zm-30-21.21c8.729 3.096 15 11.433 15 21.21s-6.271 18.114-15 21.21zm-15 42.42c-8.729-3.096-15-11.433-15-21.21s6.271-18.114 15-21.21z" fill="#fff"/></g></g><g><g><path d="m133.5 77.5v205h-72.5v15h80c4.142 0 7.5-3.357 7.5-7.5v-73.255c17.096-3.484 30-18.635 30-36.745s-12.904-33.261-30-36.745v-73.255c0-4.143-3.358-7.5-7.5-7.5h-80v15zm15 81.29c8.729 3.096 15 11.433 15 21.21s-6.271 18.114-15 21.21z" fill="#fff"/></g></g><g><path d="m93.5 137.5v85h-32.5v15h40c4.142 0 7.5-3.357 7.5-7.5v-100c0-4.143-3.358-7.5-7.5-7.5h-40v15z" fill="#fff"/></g><g><g><path d="m378.5 282.5v-205h72.5v-15h-80c-4.142 0-7.5 3.357-7.5 7.5v73.255c-17.096 3.484-30 18.635-30 36.745s12.904 33.261 30 36.745v73.255c0 4.143 3.358 7.5 7.5 7.5h80v-15zm-15-81.29c-8.729-3.096-15-11.433-15-21.21s6.271-18.114 15-21.21z" fill="#fff"/></g></g><g><path d="m418.5 222.5v-85h32.5v-15h-40c-4.142 0-7.5 3.357-7.5 7.5v100c0 4.143 3.358 7.5 7.5 7.5h40v-15z" fill="#fff"/></g></g></svg>