<svg id="Capa_1" enable-background="new 0 0 512 512" height="512" viewBox="0 0 512 512" width="512" xmlns="http://www.w3.org/2000/svg"><g><g><path d="m446.662 426.814c40.621-45.31 65.338-105.172 65.338-170.814 0-141.385-114.615-256-256-256s-256 114.615-256 256c0 65.642 24.717 125.504 65.338 170.814z" fill="#69d173"/></g><g><path d="m162.169 167.035s-18.446-39.505-11.308-67.27c7.139-27.765 33.846-30.765 33.846-30.765s5.793-49.333 71.293-49.333 95.833 51.092 100 79.333-6.169 68.035-6.169 68.035l-93.831 38.228z" fill="#bc4c2e"/></g><g><path d="m150.861 99.765c-7.139 27.765 11.308 67.27 11.308 67.27l45.278 18.447 11.528-13.982v-61.313c-28.101-5.832-34.268-25.187-34.268-41.187 0 0-26.707 3-33.846 30.765z" fill="#a0391e"/></g><g><path d="m446.662 426.814c-9.708-28.375-20.614-54.825-29.662-62.814-22-19.425-117.305-35.119-117.305-35.119h-43.695-43.695s-95.305 15.694-117.305 35.119c-9.048 7.989-19.954 34.439-29.662 62.814 46.87 52.282 114.919 85.186 190.662 85.186s143.792-32.904 190.662-85.186z" fill="#f9d987"/></g><g><path d="m256 359.728c43.839 0 63.836-16.837 71.293-25.632-16.015-3.306-27.598-5.214-27.598-5.214h-43.695-43.695s-11.582 1.908-27.598 5.214c7.457 8.795 27.454 25.632 71.293 25.632z" fill="#7c5577"/></g><g><path d="m360.621 477c-96.1 0-179.817-52.962-223.596-131.281-18.118 5.322-34.435 11.579-42.025 18.281-9.048 7.989-19.954 34.439-29.662 62.814 46.87 52.282 114.919 85.186 190.662 85.186 48.159 0 93.205-13.308 131.68-36.433-8.893.937-17.918 1.433-27.059 1.433z" fill="#ffcb37"/></g><g><path d="m325.075 183.668s8.897-21.662 24.756-16.633-.383 51.97-31.332 54.928z" fill="#f9bd91"/></g><g><path d="m186.925 183.668s-8.897-21.662-24.756-16.633.383 51.97 31.332 54.928z" fill="#e5a876"/></g><g><path d="m212.305 216.812v112.07c0 17.036 19.563 30.846 43.695 30.846s43.695-13.81 43.695-30.846v-112.07z" fill="#f9bd91"/></g><g><path d="m212.305 216.812v112.07c46.932 0 73.247-36.019 73.247-36.019l14.143-76.05h-87.39z" fill="#e5a876"/></g><g><path d="m327.293 156.333c-4.374-10.667-4.69-43.347-16.293-48s-21.333 8-55 8-43.397-12.653-55-8-11.919 37.333-16.293 48c-4.075 9.938-9.195 11.963-9.876 12.194-.05 1.554-.081 3.117-.081 4.694 0 59.83 36.377 129.999 81.249 129.999 44.873 0 81.249-70.169 81.249-129.999 0-1.578-.031-3.141-.081-4.694-.68-.23-5.799-2.256-9.874-12.194z" fill="#fcd2ae"/></g><g><path d="m399.18 436.247-11.516 39.331c7.351-4.417 14.467-9.186 21.314-14.296v-23.629c0-5.78-8.174-6.953-9.798-1.406z" fill="#ffcb37"/></g><g><path d="m103.022 437.651v23.629c6.847 5.111 13.963 9.879 21.314 14.296l-11.516-39.331c-1.624-5.545-9.798-4.372-9.798 1.406z" fill="#fcac1f"/></g><g><path d="m343.4 428.775h-50c-2.761 0-5 2.239-5 5v30.362h60v-30.362c0-2.762-2.239-5-5-5z" fill="#ff5252"/></g><g><path d="m358.4 453.775c0-2.761-2.239-5-5-5h-70c-2.761 0-5 2.239-5 5v57.183c0 .021.002.041.002.061 28.229-2.448 55.14-9.484 79.998-20.35z" fill="#fcac1f"/></g><g><path d="m202.691 173.222c0-24.408 6.068-46.002 16.284-63.034-7.399-2.378-12.479-4.058-17.975-1.854-11.603 4.653-11.919 37.333-16.293 48-4.075 9.938-9.195 11.963-9.876 12.194-.05 1.554-.081 3.117-.081 4.694 0 59.83 36.377 129.999 81.249 129.999 4.764 0 9.431-.798 13.97-2.284-38.214-12.506-67.278-74.237-67.278-127.715z" fill="#f9bd91"/></g></g></svg>