<svg id="Capa_1" enable-background="new 0 0 512 512" height="512" viewBox="0 0 512 512" width="512" xmlns="http://www.w3.org/2000/svg"><g><g><path d="m446.662 426.814c40.621-45.31 65.338-105.172 65.338-170.814 0-141.385-114.615-256-256-256s-256 114.615-256 256c0 65.642 24.717 125.504 65.338 170.814z" fill="#5e73dd"/></g><g><g><path d="m343 112s4.821-35.964-12.497-56.045c-2.594-3.008-7.524-.96-7.207 2.999l.204 2.546s-9.939-19.391-35.518-27.005c-3.552-1.057-6.538 2.849-4.648 6.037l1.166 1.968s-15.419-15.419-66.52-16.484c-3.753-.078-5.613 4.533-2.871 7.097l2.927 2.736c-.002 0-19.242 3.394-44.735 18.827-3.146 1.904-2.361 6.681 1.224 7.5l2.087.477c-9.866 11.347-15.322 23.162-18.102 30.775-1.208 3.308 2.031 6.498 5.32 5.238s-7.83 36.333 1.655 67.683l90.515 20.448 90.515-20.447s5.485-26.35-3.515-54.35z" fill="#ffcb37"/></g><g><path d="m218.975 110.187c-26.668-5.719-45.642-16.187-55.145-11.52 0 0-7.83 36.333 1.655 67.683l55.871 12.621z" fill="#fcac1f"/></g><g><path d="m417 364c-10.195-9.002-36.131-17.202-61.031-23.411-28.832-7.189-171.057-7.197-199.862-.019-24.923 6.211-50.902 14.419-61.107 23.43-9.048 7.989-19.954 34.439-29.662 62.814 24.913 27.789 55.809 50.102 90.662 64.911l20-11.829 20 25.013c12.977 3.118 26.337 5.252 40 6.308l20-15.269 19.997 15.27c13.664-1.056 27.025-3.19 40.003-6.309l20-25.013 20 11.829c34.854-14.809 65.75-37.123 90.662-64.911-9.708-28.375-20.614-54.825-29.662-62.814z" fill="#ff5252"/></g><g><path d="m176 479.896 20 25.013c12.977 3.118 26.337 5.252 40 6.308l20-15.269 20 15.272c13.662-1.057 27.024-3.184 40-6.302v-.009l20-25.013 19.988 11.821c10.976-4.663 21.564-10.063 31.693-16.15-8.893.937-17.918 1.432-27.06 1.432-96.1 0-179.817-52.962-223.596-131.281-18.118 5.323-34.435 11.58-42.025 18.282-9.048 7.989-19.954 34.439-29.662 62.814 24.913 27.789 55.809 50.102 90.662 64.911z" fill="#f44040"/></g><g><path d="m236 328.881v182.336c6.601.51 13.268.782 20 .782s13.399-.272 20-.782v-182.336h-20z" fill="#f9d987"/></g><g><path d="m236 511.218c6.601.51 13.268.782 20 .782s13.4-.269 20-.78v-48.547c-13.922-4.875-27.295-10.917-40-18.014z" fill="#ffcb37"/></g><g><path d="m156 491.725c12.829 5.451 26.2 9.868 40 13.184v-173.066c-10.568 2.035-25.095 5.038-40 8.756z" fill="#f9d987"/></g><g><path d="m156 491.725c12.829 5.451 26.2 9.868 40 13.184v-87.875c-14.872-12.505-28.3-26.67-40-42.212z" fill="#ffcb37"/></g><g><path d="m316 504.909c13.8-3.316 27.171-7.733 40-13.184v-151.126c-14.905-3.717-29.432-6.721-40-8.756z" fill="#f9d987"/></g><g><path d="m316 504.918c13.803-3.317 27.169-7.753 40-13.206v-14.755c-13.62-.241-26.979-1.549-40-3.839z" fill="#ffcb37"/></g><g><path d="m256 359.728c43.839 0 63.836-16.837 71.293-25.632-16.015-3.306-27.598-5.214-27.598-5.214h-43.695-43.695s-11.582 1.908-27.598 5.214c7.457 8.795 27.454 25.632 71.293 25.632z" fill="#ffcb37"/></g><g><path d="m325.075 183.668s8.897-21.662 24.756-16.633-.383 51.97-31.332 54.928z" fill="#f9bd91"/></g><g><path d="m186.925 183.668s-8.897-21.662-24.756-16.633.383 51.97 31.332 54.928z" fill="#e5a876"/></g><g><path d="m212.305 216.812v112.07c0 17.036 19.563 30.846 43.695 30.846s43.695-13.81 43.695-30.846v-112.07z" fill="#f9bd91"/></g><g><path d="m212.305 216.812v112.07c46.932 0 73.247-36.019 73.247-36.019l14.143-76.05h-87.39z" fill="#e5a876"/></g><g><path d="m399.18 436.247-11.516 39.331c7.351-4.417 14.467-9.186 21.314-14.296v-23.629c0-5.78-8.174-6.953-9.798-1.406z" fill="#f44040"/></g><g><path d="m103.022 437.651v23.629c6.847 5.111 13.963 9.879 21.314 14.296l-11.516-39.331c-1.624-5.545-9.798-4.372-9.798 1.406z" fill="#d62b2b"/></g><g><path d="m327.293 156.333c-4.374-10.667-4.69-43.347-16.293-48s-21.333 8-55 8-43.397-12.653-55-8-11.919 37.333-16.293 48c-4.075 9.938-9.195 11.963-9.876 12.194-.05 1.554-.081 3.117-.081 4.694 0 59.83 36.377 129.999 81.249 129.999 44.873 0 81.249-70.169 81.249-129.999 0-1.578-.031-3.141-.081-4.694-.68-.23-5.799-2.256-9.874-12.194z" fill="#fcd2ae"/></g><g><path d="m202.691 173.222c0-24.408 6.068-46.002 16.284-63.034-7.399-2.378-12.479-4.058-17.975-1.854-11.603 4.653-11.919 37.333-16.293 48-4.075 9.938-9.195 11.963-9.876 12.194-.05 1.554-.081 3.117-.081 4.694 0 59.83 36.377 129.999 81.249 129.999 4.764 0 9.431-.798 13.97-2.284-38.214-12.506-67.278-74.237-67.278-127.715z" fill="#f9bd91"/></g></g></g></svg>