<svg id="Capa_1" enable-background="new 0 0 512 512" height="512" viewBox="0 0 512 512" width="512" xmlns="http://www.w3.org/2000/svg"><g><g><path d="m446.662 426.814c40.621-45.31 65.338-105.172 65.338-170.814 0-141.385-114.615-256-256-256s-256 114.615-256 256c0 65.642 24.717 125.504 65.338 170.814z" fill="#ffcb37"/></g><g><path d="m361.139 99.765c-7.139-27.765-33.846-30.765-33.846-30.765s-5.793-49.333-71.293-49.333-71.293 49.333-71.293 49.333-26.707 3-33.846 30.765 11.308 67.27 11.308 67.27l93.831 38.228 93.831-38.228s18.446-39.504 11.308-67.27z" fill="#7c5577"/></g><g><path d="m150.861 99.765c-7.139 27.765 11.308 67.27 11.308 67.27l45.278 18.447 11.528-13.982v-61.313c-28.101-5.832-34.268-25.187-34.268-41.187 0 0-26.707 3-33.846 30.765z" fill="#603256"/></g><g><path d="m325.075 183.668s8.897-21.662 24.756-16.633-.383 51.97-31.332 54.928z" fill="#f9bd91"/></g><g><path d="m186.925 183.668s-8.897-21.662-24.756-16.633.383 51.97 31.332 54.928z" fill="#e5a876"/></g><g><path d="m446.662 426.814c-9.708-28.375-20.614-54.825-29.662-62.814-22-19.425-117.305-35.119-117.305-35.119h-43.695-43.695s-95.305 15.694-117.305 35.119c-9.048 7.989-19.954 34.439-29.662 62.814 46.87 52.282 114.919 85.186 190.662 85.186s143.792-32.904 190.662-85.186z" fill="#dad9dd"/></g><g><path d="m360.621 477c-96.1 0-179.817-52.962-223.596-131.281-18.118 5.322-34.435 11.579-42.025 18.281-9.048 7.989-19.954 34.439-29.662 62.814 46.87 52.282 114.919 85.186 190.662 85.186 48.159 0 93.205-13.308 131.68-36.433-8.893.937-17.918 1.433-27.059 1.433z" fill="#cbcbcf"/></g><g><path d="m270.852 408.281-14.852-22.553-14.852 22.554-12.9 102.228c9.116.982 18.374 1.49 27.752 1.49s18.636-.508 27.752-1.491z" fill="#603256"/></g><g><path d="m271.632 411.728h-31.265c-2.278 0-4.267-1.539-4.84-3.744l-12.527-48.256h66l-12.528 48.256c-.572 2.205-2.562 3.744-4.84 3.744z" fill="#7c5577"/></g><g><path d="m255.528 407.984-12.528-48.256h-20l12.528 48.257c.572 2.204 2.562 3.743 4.84 3.743h20c-2.278 0-4.268-1.54-4.84-3.744z" fill="#603256"/></g><g><path d="m212.305 216.812v112.07c0 17.036 19.563 30.846 43.695 30.846s43.695-13.81 43.695-30.846v-112.07z" fill="#f9bd91"/></g><g><path d="m212.305 216.812v112.07c46.932 0 73.247-36.019 73.247-36.019l14.143-76.05h-87.39z" fill="#e5a876"/></g><g><path d="m212.305 315 43.695 44.728s-17 30.744-28 30.744-30.007-59.011-30.007-59.011z" fill="#ebeaec"/></g><g><path d="m299.695 315-43.695 44.728s17 30.744 28 30.744 30.007-59.011 30.007-59.011z" fill="#ebeaec"/></g><g><path d="m399.18 436.247-11.516 39.331c7.351-4.417 14.467-9.186 21.314-14.296v-23.629c0-5.78-8.174-6.953-9.798-1.406z" fill="#cbcbcf"/></g><g><path d="m103.022 437.651v23.629c6.847 5.111 13.963 9.879 21.314 14.296l-11.516-39.331c-1.624-5.545-9.798-4.372-9.798 1.406z" fill="#bcbcc1"/></g><g><path d="m327.293 156.333c-4.374-10.667-4.69-43.347-16.293-48s-21.333 8-55 8-43.397-12.653-55-8-11.919 37.333-16.293 48c-4.075 9.938-9.195 11.963-9.876 12.194-.05 1.554-.081 3.117-.081 4.694 0 59.83 36.377 129.999 81.249 129.999 44.873 0 81.249-70.169 81.249-129.999 0-1.578-.031-3.141-.081-4.694-.68-.23-5.799-2.256-9.874-12.194z" fill="#fcd2ae"/></g><g><path d="m202.691 173.222c0-24.408 6.068-46.002 16.284-63.034-7.399-2.378-12.479-4.058-17.975-1.854-11.603 4.653-11.919 37.333-16.293 48-4.075 9.938-9.195 11.963-9.876 12.194-.05 1.554-.081 3.117-.081 4.694 0 59.83 36.377 129.999 81.249 129.999 4.764 0 9.431-.798 13.97-2.284-38.214-12.506-67.278-74.237-67.278-127.715z" fill="#f9bd91"/></g></g></svg>