<svg id="Capa_1" enable-background="new 0 0 512 512" height="512" viewBox="0 0 512 512" width="512" xmlns="http://www.w3.org/2000/svg"><g><g><path d="m446.662 426.814c40.621-45.31 65.338-105.172 65.338-170.814 0-141.385-114.615-256-256-256s-256 114.615-256 256c0 65.642 24.717 125.504 65.338 170.814z" fill="#ff5252"/></g><g><g><path d="m144.75 173.222c0-35.428 10.812-68.347 30.444-92.692 20.882-25.896 49.579-40.158 80.806-40.158s59.924 14.262 80.806 40.157c19.632 24.346 30.443 57.265 30.443 92.692h-222.499z" fill="#7c5577"/></g><g><path d="m160.467 158.222c2.53-26.18 11.685-50.022 26.405-68.276 17.978-22.296 42.527-34.574 69.128-34.574s51.15 12.278 69.129 34.573c14.72 18.254 23.873 42.096 26.403 68.276l-40 72.778h-111.065z" fill="#bc4c2e"/></g><g><path d="m240 194.12-32.564-58.079c-18.754-4.326-34.927-29.029-15.783-51.614-1.639 1.766-3.236 3.603-4.78 5.518-14.721 18.254-23.875 42.097-26.405 68.276l40 72.778h39.532z" fill="#a0391e"/></g><g><path d="m417 364c-22-19.425-117.305-35.119-117.305-35.119h-43.695-43.695s-95.305 15.694-117.305 35.119c-9.048 7.989-19.954 34.439-29.662 62.814 39.518 44.081 94.092 74.385 155.639 82.808l.029-.013 34.994-27.109 34.995 27.109.005.016c61.556-8.419 116.139-38.725 155.662-82.811-9.708-28.375-20.614-54.825-29.662-62.814z" fill="#603256"/></g><g><path d="m221.005 509.609 34.995-27.109 34.995 27.109.004.013c34.971-4.784 67.692-16.631 96.681-34.054-8.893.936-17.918 1.432-27.06 1.432-96.1 0-179.817-52.962-223.596-131.281-18.117 5.322-34.434 11.579-42.024 18.281-9.048 7.989-19.954 34.439-29.662 62.814 39.518 44.081 94.092 74.385 155.639 82.808z" fill="#4f2649"/></g><g><path d="m346.757 392.245-32.749-60.783-14.312-2.58h-87.39l-14.312 2.58-32.749 60.783c-3.263 6.056-3.185 13.364.208 19.348l55.554 98.016c5.76.787 11.58 1.387 17.454 1.789l.023-.007 17.516-20.391 17.518 20.392-.003.008c5.883-.402 11.711-1.002 17.48-1.791l55.554-98.016c3.392-5.984 3.471-13.292.208-19.348z" fill="#7c5577"/></g><g><path d="m279.022 473.021 20.673-144.14h-43.695-43.695l20.673 144.14z" fill="#dad9dd"/></g><g><path d="m264.099 511.861c1.252-.039 2.5-.095 3.747-.152 1.572-.074 3.14-.16 4.705-.26.323-.021.646-.043.969-.065l5.502-38.363-8.169-64.74-14.853-22.553-14.852 22.554-8.169 64.74 5.502 38.363c.323.022.646.045.969.065 1.565.1 3.133.186 4.705.26 1.248.057 2.495.113 3.747.152.738.024 1.478.042 2.218.059 1.956.044 3.914.08 5.881.08s3.925-.035 5.881-.08c.739-.018 1.479-.036 2.217-.06z" fill="#f44040"/></g><g><path d="m271.632 411.728h-31.265c-2.278 0-4.267-1.539-4.84-3.744l-12.527-48.256h66l-12.528 48.256c-.572 2.205-2.562 3.744-4.84 3.744z" fill="#ff5252"/></g><g><path d="m255.528 407.984-12.528-48.256h-20l12.528 48.257c.572 2.204 2.562 3.743 4.84 3.743h20c-2.278 0-4.268-1.54-4.84-3.744z" fill="#f44040"/></g><g><path d="m212.305 216.812v112.07c0 17.036 19.563 30.846 43.695 30.846s43.695-13.81 43.695-30.846v-112.07z" fill="#f9bd91"/></g><g><path d="m212.305 216.812v112.07c46.932 0 73.247-36.019 73.247-36.019l14.143-76.05h-87.39z" fill="#e5a876"/></g><g><path d="m321.834 146.816c-1.472-7.997-9.42-13.046-17.231-10.785-11.56 3.345-28.68 6.97-48.604 6.97s-37.044-3.624-48.604-6.97c-7.811-2.26-15.759 2.788-17.231 10.785-3.272 17.775-11.078 30.887-15.063 36.682 3.811 57.296 38.572 119.723 80.897 119.723s77.086-62.427 80.897-119.723c-3.983-5.796-11.788-18.907-15.061-36.682z" fill="#fcd2ae"/></g><g><path d="m202.691 173.222c0-13.287 1.797-25.743 5.08-37.084-.112-.032-.224-.064-.336-.097-7.826-2.263-15.795 2.763-17.27 10.775-3.272 17.775-11.078 30.886-15.063 36.681 3.811 57.296 38.572 119.723 80.897 119.723 4.764 0 9.431-.798 13.97-2.284-38.214-12.505-67.278-74.236-67.278-127.714z" fill="#f9bd91"/></g><g><path d="m212.305 315 43.695 44.728s-17 30.744-28 30.744-30.007-59.011-30.007-59.011z" fill="#ebeaec"/></g><g><path d="m299.695 315-43.695 44.728s17 30.744 28 30.744 30.007-59.011 30.007-59.011z" fill="#ebeaec"/></g><g><path d="m399.18 436.247-11.516 39.331c7.351-4.417 14.467-9.186 21.314-14.296v-23.629c0-5.78-8.174-6.953-9.798-1.406z" fill="#4f2649"/></g><g><path d="m103.022 437.651v23.629c6.847 5.111 13.963 9.879 21.314 14.296l-11.516-39.331c-1.624-5.545-9.798-4.372-9.798 1.406z" fill="#441f41"/></g><g><path d="m172.67 178.028-26.37 4.768-5.383-29.767c-1.317-7.282 3.519-14.252 10.801-15.569 7.282-1.317 14.252 3.519 15.569 10.801z" fill="#4f2649"/></g><g><path d="m339.33 178.028 26.37 4.768 5.383-29.767c1.317-7.282-3.519-14.252-10.801-15.569-7.282-1.317-14.252 3.519-15.569 10.801z" fill="#4f2649"/></g><g><path d="m331.83 220.625v25c0 11.046-8.954 20-20 20h-48.33c-4.142 0-7.5 3.358-7.5 7.5 0 4.142 3.358 7.5 7.5 7.5h48.331c19.33 0 35-15.67 35-35v-25z" fill="#4f2649"/></g><g><path d="m184.609 240.602-19.681 3.559c-10.869 1.965-21.274-5.253-23.24-16.122l-7.118-39.362c-1.965-10.869 5.253-21.274 16.122-23.24l19.681-3.559z" fill="#603256"/></g><g><path d="m136.35 198.518 5.338 29.521c1.966 10.87 12.37 18.087 23.24 16.122l19.681-3.559-5.338-29.521-19.681 3.559c-10.87 1.966-21.274-5.252-23.24-16.122z" fill="#4f2649"/></g><g><path d="m328.391 240.602 19.681 3.559c10.869 1.965 21.274-5.253 23.24-16.122l7.118-39.362c1.966-10.869-5.253-21.274-16.122-23.24l-19.681-3.559z" fill="#603256"/></g><g><path d="m376.65 198.518-5.338 29.521c-1.966 10.87-12.37 18.087-23.24 16.122l-19.681-3.559 5.338-29.521 19.681 3.559c10.87 1.966 21.274-5.252 23.24-16.122z" fill="#4f2649"/></g><g><path d="m185.499 245.523c-4.076.737-7.978-1.97-8.715-6.046l-13.346-73.803c-.737-4.076 1.97-7.978 6.046-8.715 4.076-.737 7.978 1.97 8.715 6.046l13.346 73.803c.736 4.076-1.97 7.978-6.046 8.715z" fill="#7c5577"/></g><g><path d="m327.501 245.523c-4.076-.737-6.783-4.639-6.046-8.715l13.346-73.803c.737-4.076 4.639-6.783 8.715-6.046 4.076.737 6.783 4.639 6.046 8.715l-13.346 73.803c-.737 4.076-4.639 6.783-8.715 6.046z" fill="#7c5577"/></g></g></g></svg>