<svg id="Capa_1" enable-background="new 0 0 512 512" height="512" viewBox="0 0 512 512" width="512" xmlns="http://www.w3.org/2000/svg"><g><g><path d="m446.662 426.814c40.621-45.31 65.338-105.172 65.338-170.814 0-141.385-114.615-256-256-256s-256 114.615-256 256c0 65.642 24.717 125.504 65.338 170.814z" fill="#603256"/></g><g><g><path d="m349.831 167.035-91.47 49.777-96.193-49.777s-13.169-43.368-6.169-69.368 28.708-28.667 28.708-28.667 7.293-40 75.293-40 96 62.26 96 77.797-5 21.795-5 21.795 5.662 16.478-1.169 38.443z" fill="#ffcb37"/></g><g><path d="m156 97.667c-7 26 6.169 69.368 6.169 69.368l47.751 24.709 4.099-4.245v-68.025c-16.002-12.411-34.519-33.974-29.312-50.474 0 0-21.707 2.667-28.707 28.667z" fill="#fcac1f"/></g><g><path d="m417 364c-22-19.425-117.305-35.119-117.305-35.119h-43.695-43.695s-95.305 15.694-117.305 35.119c-9.048 7.989-19.954 34.439-29.662 62.814 15.731 17.548 33.858 32.899 53.851 45.569h55.562l37.548 35.881c14.203 2.444 28.8 3.736 43.701 3.736s29.499-1.292 43.701-3.736l37.548-35.881h55.562c19.993-12.67 38.12-28.022 53.851-45.569-9.708-28.375-20.614-54.825-29.662-62.814z" fill="#dad9dd"/></g><g><path d="m299.695 508.27 34.17-32.653c-84.734-8.802-157.177-58.944-196.841-129.899-18.117 5.323-34.434 11.58-42.024 18.282-9.048 7.989-19.954 34.439-29.662 62.814 15.731 17.548 33.858 32.899 53.851 45.569h55.562l37.548 35.881c14.203 2.444 28.8 3.736 43.701 3.736 14.918 0 29.536-1.28 43.754-3.73z" fill="#cbcbcf"/></g><g><path d="m137.663 455.003c0 9.566-7.755 17.321-17.321 17.321-.398 0-.789.033-1.18.06 27.865 17.658 59.371 30.078 93.143 35.887v-179.39c-.002 0-40.382 6.651-74.642 16.651z" fill="#ff5252"/></g><g><path d="m137.663 346.84v108.163c0 9.566-7.755 17.321-17.321 17.321-.398 0-.789.033-1.18.06 27.865 17.658 59.371 30.078 93.143 35.887v-78.606c-30.54-21.752-56.098-50.041-74.642-82.825z" fill="#f44040"/></g><g><path d="m299.695 328.881v179.389c33.771-5.808 65.278-18.229 93.143-35.887-.392-.026-.782-.06-1.18-.06-9.566 0-17.321-7.755-17.321-17.321v-109.47c-34.261-9.999-74.642-16.651-74.642-16.651z" fill="#ff5252"/></g><g><path d="m387.688 475.563c-8.895.94-17.922 1.436-27.067 1.436-20.995 0-41.4-2.529-60.926-7.297v38.567c31.707-5.452 61.418-16.733 87.993-32.706z" fill="#f44040"/></g><g><path d="m212.305 216.812v112.07c0 17.036 19.563 30.846 43.695 30.846s43.695-13.81 43.695-30.846v-112.07z" fill="#f9bd91"/></g><g><path d="m212.305 216.812v112.07c46.932 0 73.247-36.019 73.247-36.019l14.143-76.05h-87.39z" fill="#e5a876"/></g><g><path d="m325.075 183.668s8.897-21.662 24.756-16.633-.383 51.97-31.332 54.928z" fill="#f9bd91"/></g><g><path d="m186.925 183.668s-8.897-21.662-24.756-16.633.383 51.97 31.332 54.928z" fill="#e5a876"/></g><g><path d="m196.467 124.655c-6.74 26.449-20.484 42.496-21.634 43.804-.052 1.576-.083 3.161-.083 4.762 0 59.83 36.377 129.999 81.25 129.999s81.25-70.169 81.25-129.999c0-1.569-.031-3.123-.08-4.668-56.639.39-101.766-30.868-123.457-49.339-5.99-5.099-15.303-2.18-17.246 5.441z" fill="#fcd2ae"/></g><g><path d="m202.691 173.222c0-20.16 4.134-38.408 11.328-53.747-.093-.079-.185-.157-.277-.235-6.002-5.109-15.328-2.223-17.275 5.416-6.74 26.449-20.485 42.496-21.634 43.805-.052 1.576-.083 3.161-.083 4.762 0 59.83 36.377 129.999 81.25 129.999 4.764 0 9.431-.798 13.97-2.284-38.215-12.507-67.279-74.238-67.279-127.716z" fill="#f9bd91"/></g><g><path d="m212.305 315 43.695 44.728s-17 30.744-28 30.744-30.007-59.011-30.007-59.011z" fill="#ebeaec"/></g><g><path d="m299.695 315-43.695 44.728s17 30.744 28 30.744 30.007-59.011 30.007-59.011z" fill="#ebeaec"/></g></g></g></svg>