<svg id="Capa_1" enable-background="new 0 0 512 512" height="512" viewBox="0 0 512 512" width="512" xmlns="http://www.w3.org/2000/svg"><g><g><path d="m472 0h-432c-22.09 0-40 17.91-40 40v216c0 43.503 10.866 84.464 30.011 120.34h105.649v105.649c35.876 19.145 76.837 30.011 120.34 30.011s84.464-10.866 120.34-30.011v-105.649h105.649c19.145-35.876 30.011-76.837 30.011-120.34v-216c0-22.09-17.91-40-40-40z" fill="#ebeaec"/></g><g><path d="m256 0h-216c-22.09 0-40 17.91-40 40v216c0 43.503 10.866 84.464 30.011 120.34h105.649v105.649c35.876 19.145 76.837 30.011 120.34 30.011-8.28 0-15-6.72-15-15s6.72-15 15-15v-452c-8.28 0-15-6.72-15-15s6.72-15 15-15z" fill="#dad9dd"/></g><g><path d="m200.667 30h110.667c5.523 0 10 4.477 10 10v432c0 5.523-4.477 10-10 10h-110.667c-5.523 0-10-4.477-10-10v-432c0-5.523 4.477-10 10-10z" fill="#cbcbcf"/></g><g><path d="m228.167 472v-432c0-5.523 4.477-10 10-10h-37.5c-5.523 0-10 4.477-10 10v432c0 5.523 4.477 10 10 10h37.5c-5.523 0-10-4.477-10-10z" fill="#bcbcc1"/></g><g><circle cx="281.333" cy="256" fill="#dad9dd" r="20"/></g><g><path d="m281.333 296c-4.142 0-7.5-3.358-7.5-7.5v-65c0-4.142 3.358-7.5 7.5-7.5 4.142 0 7.5 3.358 7.5 7.5v65c0 4.142-3.358 7.5-7.5 7.5z" fill="#ebeaec"/></g><g><path d="m220.667 354.5c0-4.142 3.358-7.5 7.5-7.5h55.667c4.142 0 7.5 3.358 7.5 7.5 0 4.142-3.358 7.5-7.5 7.5h-55.667c-4.142 0-7.5-3.358-7.5-7.5z" fill="#ebeaec"/></g><g><path d="m220.667 399.5c0-4.142 3.358-7.5 7.5-7.5h55.667c4.142 0 7.5 3.358 7.5 7.5 0 4.142-3.358 7.5-7.5 7.5h-55.667c-4.142 0-7.5-3.358-7.5-7.5z" fill="#ebeaec"/></g><g><path d="m220.667 444.5c0-4.142 3.358-7.5 7.5-7.5h55.667c4.142 0 7.5 3.358 7.5 7.5 0 4.142-3.358 7.5-7.5 7.5h-55.667c-4.142 0-7.5-3.358-7.5-7.5z" fill="#ebeaec"/></g><g><path d="m220.667 157.5c0-4.142 3.358-7.5 7.5-7.5h55.667c4.142 0 7.5 3.358 7.5 7.5 0 4.142-3.358 7.5-7.5 7.5h-55.667c-4.142 0-7.5-3.358-7.5-7.5z" fill="#bcbcc1"/></g><g><path d="m283.833 120h-55.667c-4.142 0-7.5-3.358-7.5-7.5v-45c0-4.142 3.358-7.5 7.5-7.5h55.667c4.142 0 7.5 3.358 7.5 7.5v45c0 4.142-3.358 7.5-7.5 7.5z" fill="#bcbcc1"/></g><g><path d="m150.67 30h-110.67c-5.52 0-10 4.48-10 10v336.34c11.956 22.417 27.152 42.846 44.964 60.661l20.37 7.499-3.997 7.5-.008.002c13.638 11.469 28.485 21.547 44.332 29.998h15.01c5.52 0 10-4.48 10-10v-432c-.001-5.52-4.481-10-10.001-10z" fill="#cbcbcf"/></g><g><path d="m77.5 30c-5.52 0-10 4.48-10 10v389.22c-14.62-15.9-27.25-33.66-37.5-52.88v-336.34c0-5.52 4.48-10 10-10z" fill="#bcbcc1"/></g><g><circle cx="120.667" cy="256" fill="#dad9dd" r="20"/></g><g><path d="m120.667 296c-4.142 0-7.5-3.358-7.5-7.5v-65c0-4.142 3.358-7.5 7.5-7.5 4.142 0 7.5 3.358 7.5 7.5v65c0 4.142-3.358 7.5-7.5 7.5z" fill="#ebeaec"/></g><g><path d="m60 354.5c0-4.142 3.358-7.5 7.5-7.5h55.667c4.142 0 7.5 3.358 7.5 7.5 0 4.142-3.358 7.5-7.5 7.5h-55.667c-4.142 0-7.5-3.358-7.5-7.5z" fill="#ebeaec"/></g><g><path d="m60 399.5c0-4.142 3.358-7.5 7.5-7.5h55.667c4.142 0 7.5 3.358 7.5 7.5 0 4.142-3.358 7.5-7.5 7.5h-55.667c-4.142 0-7.5-3.358-7.5-7.5z" fill="#ebeaec"/></g><g><path d="m123.167 437h-48.205c5.234 5.235 10.705 10.232 16.375 15h31.83c4.142 0 7.5-3.358 7.5-7.5s-3.358-7.5-7.5-7.5z" fill="#ebeaec"/></g><g><path d="m60 157.5c0-4.142 3.358-7.5 7.5-7.5h55.667c4.142 0 7.5 3.358 7.5 7.5 0 4.142-3.358 7.5-7.5 7.5h-55.667c-4.142 0-7.5-3.358-7.5-7.5z" fill="#bcbcc1"/></g><g><path d="m123.167 120h-55.667c-4.142 0-7.5-3.358-7.5-7.5v-45c0-4.142 3.358-7.5 7.5-7.5h55.667c4.142 0 7.5 3.358 7.5 7.5v45c0 4.142-3.358 7.5-7.5 7.5z" fill="#bcbcc1"/></g><g><path d="m472 30h-110.67c-5.52 0-10 4.48-10 10v432c0 5.52 4.48 10 10 10h15.01c15.847-8.451 30.693-18.529 44.332-29.998l-.008-.002-3.997-7.5 20.37-7.499c17.811-17.815 33.008-38.243 44.964-60.661v-336.34c-.001-5.52-4.481-10-10.001-10z" fill="#cbcbcf"/></g><g><path d="m388.83 40v432c0 .92.12 1.81.36 2.66-4.21 2.57-8.49 5.02-12.85 7.34h-15.01c-5.52 0-10-4.48-10-10v-432c0-5.52 4.48-10 10-10h37.5c-5.52 0-10 4.48-10 10z" fill="#bcbcc1"/></g><g><circle cx="442" cy="256" fill="#dad9dd" r="20"/></g><g><path d="m442 296c-4.142 0-7.5-3.358-7.5-7.5v-65c0-4.142 3.358-7.5 7.5-7.5 4.142 0 7.5 3.358 7.5 7.5v65c0 4.142-3.358 7.5-7.5 7.5z" fill="#ebeaec"/></g><g><path d="m381.333 354.5c0-4.142 3.358-7.5 7.5-7.5h55.667c4.142 0 7.5 3.358 7.5 7.5 0 4.142-3.358 7.5-7.5 7.5h-55.667c-4.142 0-7.5-3.358-7.5-7.5z" fill="#ebeaec"/></g><g><path d="m381.333 399.5c0-4.142 3.358-7.5 7.5-7.5h55.667c4.142 0 7.5 3.358 7.5 7.5 0 4.142-3.358 7.5-7.5 7.5h-55.667c-4.142 0-7.5-3.358-7.5-7.5z" fill="#ebeaec"/></g><g><path d="m388.833 437c-4.142 0-7.5 3.358-7.5 7.5s3.358 7.5 7.5 7.5h31.826c5.67-4.768 11.141-9.765 16.375-15z" fill="#ebeaec"/></g><g><path d="m381.333 157.5c0-4.142 3.358-7.5 7.5-7.5h55.667c4.142 0 7.5 3.358 7.5 7.5 0 4.142-3.358 7.5-7.5 7.5h-55.667c-4.142 0-7.5-3.358-7.5-7.5z" fill="#bcbcc1"/></g><g><path d="m444.5 120h-55.667c-4.142 0-7.5-3.358-7.5-7.5v-45c0-4.142 3.358-7.5 7.5-7.5h55.667c4.142 0 7.5 3.358 7.5 7.5v45c0 4.142-3.358 7.5-7.5 7.5z" fill="#bcbcc1"/></g></g></svg>