<svg id="Capa_1" enable-background="new 0 0 512 512" height="512" viewBox="0 0 512 512" width="512" xmlns="http://www.w3.org/2000/svg"><g><g><path d="m256 0c-141.385 0-256 114.615-256 256 0 30.37 5.302 59.498 15.007 86.526h16.97v37.43c43.661 78.738 127.611 132.044 224.023 132.044 141.385 0 256-114.615 256-256s-114.615-256-256-256z" fill="#603256"/></g><g><path d="m31.977 379.957 148.791-359.213c3.17-7.654-.464-16.428-8.118-19.598-7.654-3.17-16.428.464-19.598 8.118l-138.042 333.262c4.667 12.997 10.354 25.505 16.967 37.431z" fill="#7c5577"/></g><g><path d="m203.594 354.595 258.113-43.235c16.535-39.919 33.07-79.837 49.605-119.756 2.31-5.576-1.445-11.777-7.453-12.346-73.085-6.922-131.659-48.601-191.508-87.223l-229.115 62.048-49.605 119.756c-2.31 5.576 1.445 11.777 7.453 12.346 61.268 5.803 112.337 36.033 162.51 68.41z" fill="#ff5252"/></g><g><path d="m83.236 154.083-49.605 119.756c-2.31 5.576 1.445 11.777 7.453 12.346 23.435 2.219 45.374 8.021 66.345 16.141l72.22-174.354z" fill="#f44040"/></g><g><path d="m412.265 430.722c16.481-39.787 32.961-79.575 49.442-119.363-79.122-3-140.218-45.364-203.592-88.39l-54.521 131.625c59.54 38.422 117.818 79.87 190.376 87.113 7.847.785 15.277-3.699 18.295-10.985z" fill="#f9d987"/></g><g><path d="m258.115 222.97 54.235-130.935c-49.872-32.184-100.63-62.245-161.41-68.303-7.835-.781-15.249 3.713-18.262 10.987l-49.442 119.364c66.987 2.567 120.368 32.435 174.879 68.887z" fill="#f9d987"/></g><g><path d="m150.94 23.731c-7.835-.781-15.249 3.713-18.262 10.988l-49.442 119.364c28.339 1.086 54.237 7.071 78.821 16.361l54.13-130.681c-20.643-7.994-42.225-13.737-65.247-16.032z" fill="#ffcb37"/></g></g></svg>