<svg id="Capa_1" enable-background="new 0 0 512 512" height="512" viewBox="0 0 512 512" width="512" xmlns="http://www.w3.org/2000/svg"><g><g><path d="m256 0c-141.385 0-256 114.615-256 256 0 55.521 17.681 106.908 47.711 148.853l97.322 81.911c33.57 16.173 71.21 25.236 110.967 25.236 141.385 0 256-114.615 256-256s-114.615-256-256-256z" fill="#69d173"/></g><g><g><path d="m47.711 404.853c24.938 34.833 58.39 63.156 97.322 81.911l56.287-56.287-89.617-89.617z" fill="#fcd2ae"/></g><g><path d="m89.984 362.58c-19.495-19.495-19.495-51.216 0-70.711l.067-.067c-23.357-41.868-17.265-95.872 18.274-131.411l63.64-63.64c18.417-18.417 47.79-19.442 67.393-3.039l76.534-76.534c22.906-22.906 60.176-22.905 83.081 0s22.906 60.176 0 83.081l-14.836 14.836c6.899 7.196 11.61 15.732 14.129 24.755 9.4 2.624 18.27 7.626 25.649 15.005s12.381 16.25 15.005 25.649c9.4 2.625 18.271 7.627 25.65 15.006 22.906 22.906 22.906 60.175 0 83.081l-136.311 136.313c-18.497 18.497-43.566 28.685-69.356 28.701l-8.592 8.592c-19.495 19.495-51.216 19.495-70.711 0z" fill="#ebeaec"/></g><g><path d="m116.672 368.055c5.858-5.858 15.355-5.858 21.213 0l239.874-329.662c-5.858-5.858-5.858-15.355 0-21.213s15.355-5.858 21.213 0c-22.906-22.906-60.175-22.906-83.081 0l-76.534 76.534c-19.603-16.403-48.975-15.378-67.393 3.039l-63.64 63.64c-35.538 35.538-41.63 89.542-18.274 131.411l-.067.067c-19.495 19.495-19.495 51.216 0 70.711l26.688 26.688c-5.857-5.86-5.857-15.358.001-21.215z" fill="#dad9dd"/></g><g><g><path d="m352.277 268.093-81.782-81.782 107.264-107.264c11.227-11.227 11.227-29.428 0-40.655-11.227-11.227-29.428-11.227-40.655 0l-186.385 186.385 35.737 126.883-32.483 32.483 46.84 46.84c7.81 7.81 20.474 7.81 28.284 0l18.341-18.341c21.016 3.574 43.385-2.73 59.607-18.952l85.415-85.415z" fill="#f44040"/></g><g><path d="m191.764 204.232 29.698-29.699c15.643-15.643 15.621-41.019-.067-56.635-7.801-7.765-20.434-7.717-28.218.066l-63.64 63.64c-31.242 31.242-31.242 81.895 0 113.137l-18.341 18.341c-7.81 7.81-7.81 20.474 0 28.284l56.569 56.569 52.282-52.282c31.242-31.242 31.242-81.895 0-113.137z" fill="#ff5252"/></g><g><path d="m362.047 135.415c-11.227-11.227-29.428-11.227-40.655 0l-50.896 50.896c-11.227 11.227-11.227 29.428 0 40.655 11.227 11.227 29.428 11.227 40.655 0l50.896-50.896c11.226-11.226 11.226-29.428 0-40.655z" fill="#ff5252"/></g><g><path d="m402.702 176.07c-11.227-11.227-29.428-11.227-40.655 0l-50.896 50.896c-11.227 11.227-11.227 29.428 0 40.655 11.227 11.227 29.428 11.227 40.655 0l50.896-50.896c11.226-11.226 11.226-29.428 0-40.655z" fill="#ff5252"/></g><g><path d="m443.357 216.725c-11.227-11.227-29.428-11.227-40.655 0l-50.896 50.896c-11.227 11.227-11.227 29.428 0 40.655 11.227 11.227 29.428 11.227 40.655 0l50.896-50.896c11.226-11.226 11.226-29.428 0-40.655z" fill="#ff5252"/></g></g></g></g></svg>