<svg id="Capa_1" enable-background="new 0 0 512 512" height="512" viewBox="0 0 512 512" width="512" xmlns="http://www.w3.org/2000/svg"><g><g><path d="m512 256c0 141.385-114.615 256-256 256s-256-114.615-256-256l256-42.667z" fill="#5e73dd"/></g><g><g><path d="m329.001 192h128v220h-128z" fill="#ffcb37"/></g><g><path d="m329.001 192v149.333c0-11.782 9.551-21.333 21.333-21.333s21.333 9.551 21.333 21.333h42.667c0-11.782 9.551-21.333 21.333-21.333s21.333 9.551 21.333 21.333v-149.333z" fill="#fcac1f"/></g><g><path d="m371.667 192h42.667v220h-42.667z" fill="#f44040"/></g><g><path d="m371.667 192v106.666c0-11.782 9.551-21.333 21.333-21.333s21.333 9.551 21.333 21.333v-106.666z" fill="#d62b2b"/></g><g><g><g><path d="m320.5 512c-4.143 0-7.5-3.357-7.5-7.5 0-22.927 5.446-34.501 10.714-45.693 4.775-10.149 9.286-19.734 9.286-39.307 0-4.143 3.357-7.5 7.5-7.5s7.5 3.357 7.5 7.5c0 22.927-5.446 34.501-10.714 45.693-4.775 10.149-9.286 19.734-9.286 39.307 0 4.143-3.357 7.5-7.5 7.5z" fill="#ebeaec"/></g></g><g><g><path d="m347.5 512c-4.143 0-7.5-3.357-7.5-7.5 0-22.927 5.446-34.501 10.714-45.693 4.775-10.149 9.286-19.734 9.286-39.307 0-4.143 3.357-7.5 7.5-7.5s7.5 3.357 7.5 7.5c0 22.927-5.446 34.501-10.714 45.693-4.775 10.149-9.286 19.734-9.286 39.307 0 4.143-3.357 7.5-7.5 7.5z" fill="#ebeaec"/></g></g><g><g><path d="m374.5 512c-4.143 0-7.5-3.357-7.5-7.5 0-22.927 5.446-34.501 10.714-45.693 4.775-10.149 9.286-19.734 9.286-39.307 0-4.143 3.357-7.5 7.5-7.5s7.5 3.357 7.5 7.5c0 22.927-5.446 34.501-10.714 45.693-4.775 10.149-9.286 19.734-9.286 39.307 0 4.143-3.357 7.5-7.5 7.5z" fill="#ebeaec"/></g></g><g><g><path d="m401.5 512c-4.143 0-7.5-3.357-7.5-7.5 0-22.927 5.446-34.501 10.714-45.693 4.775-10.149 9.286-19.734 9.286-39.307 0-4.143 3.357-7.5 7.5-7.5s7.5 3.357 7.5 7.5c0 22.927-5.446 34.501-10.714 45.693-4.775 10.149-9.286 19.734-9.286 39.307 0 4.143-3.357 7.5-7.5 7.5z" fill="#ebeaec"/></g></g><g><g><path d="m428.5 512c-4.143 0-7.5-3.357-7.5-7.5 0-22.927 5.446-34.501 10.714-45.693 4.775-10.149 9.286-19.734 9.286-39.307 0-4.143 3.357-7.5 7.5-7.5s7.5 3.357 7.5 7.5c0 22.927-5.446 34.501-10.714 45.693-4.775 10.149-9.286 19.734-9.286 39.307 0 4.143-3.357 7.5-7.5 7.5z" fill="#ebeaec"/></g></g></g><g><path d="m457 427h-128c-8.284 0-15-6.716-15-15 0-8.284 6.716-15 15-15h128c8.284 0 15 6.716 15 15 0 8.284-6.716 15-15 15z" fill="#ff5252"/></g><g><path d="m357.5 412c0-8.284 6.716-15 15-15h-43.5c-8.284 0-15 6.716-15 15s6.716 15 15 15h43.5c-8.284 0-15-6.716-15-15z" fill="#f44040"/></g><g><path d="m34.257 128c-21.784 37.655-34.257 81.37-34.257 128h512c0-46.63-12.473-90.345-34.257-128l-221.743-64z" fill="#f9d987"/></g><g><path d="m350.334 234.667c0-11.782 9.551-21.333 21.333-21.333v-42.667c-11.782 0-21.333-9.551-21.333-21.333s9.551-21.334 21.333-21.334v-30.616l-115.667-33.384-221.743 64c-21.784 37.655-34.257 81.37-34.257 128h371.667c-11.782 0-21.333-9.551-21.333-21.333z" fill="#ffcb37"/></g><g><path d="m3.542 213.333h504.916c-2.465-14.685-6.187-28.943-11.039-42.667h-482.838c-4.852 13.725-8.574 27.982-11.039 42.667z" fill="#ff5252"/></g><g><path d="m414.334 213.333c-11.782 0-21.333-9.551-21.333-21.333s9.551-21.333 21.333-21.333h-399.753c-4.852 13.724-8.574 27.982-11.039 42.667z" fill="#f44040"/></g><g><path d="m170 64h128v263.191h-128z" fill="#f44040"/></g><g><path d="m170 64v149.333c0-11.782 9.551-21.333 21.333-21.333s21.333 9.551 21.333 21.333h42.667c0-11.782 9.551-21.333 21.333-21.333s21.333 9.551 21.333 21.333v-149.333z" fill="#d62b2b"/></g><g><path d="m212.667 64h42.667v263.191h-42.667z" fill="#ffcb37"/></g><g><path d="m212.667 64v106.666c0-11.782 9.551-21.333 21.333-21.333s21.333 9.551 21.333 21.333v-106.666z" fill="#fcac1f"/></g><g><g><g><path d="m161.5 427.191c-4.143 0-7.5-3.357-7.5-7.5 0-22.927 5.446-34.501 10.714-45.693 4.775-10.148 9.286-19.733 9.286-39.307 0-4.143 3.357-7.5 7.5-7.5s7.5 3.357 7.5 7.5c0 22.927-5.446 34.501-10.714 45.693-4.775 10.148-9.286 19.733-9.286 39.307 0 4.142-3.357 7.5-7.5 7.5z" fill="#ebeaec"/></g></g><g><g><path d="m188.5 427.191c-4.143 0-7.5-3.357-7.5-7.5 0-22.927 5.446-34.501 10.714-45.693 4.775-10.148 9.286-19.733 9.286-39.307 0-4.143 3.357-7.5 7.5-7.5s7.5 3.357 7.5 7.5c0 22.927-5.446 34.501-10.714 45.693-4.775 10.148-9.286 19.733-9.286 39.307 0 4.142-3.357 7.5-7.5 7.5z" fill="#ebeaec"/></g></g><g><g><path d="m215.5 427.191c-4.143 0-7.5-3.357-7.5-7.5 0-22.927 5.446-34.501 10.714-45.693 4.775-10.148 9.286-19.733 9.286-39.307 0-4.143 3.357-7.5 7.5-7.5s7.5 3.357 7.5 7.5c0 22.927-5.446 34.501-10.714 45.693-4.775 10.148-9.286 19.733-9.286 39.307 0 4.142-3.357 7.5-7.5 7.5z" fill="#ebeaec"/></g></g><g><g><path d="m242.5 427.191c-4.143 0-7.5-3.357-7.5-7.5 0-22.927 5.446-34.501 10.714-45.693 4.775-10.148 9.286-19.733 9.286-39.307 0-4.143 3.357-7.5 7.5-7.5s7.5 3.357 7.5 7.5c0 22.927-5.446 34.501-10.714 45.693-4.775 10.148-9.286 19.733-9.286 39.307 0 4.142-3.357 7.5-7.5 7.5z" fill="#ebeaec"/></g></g><g><g><path d="m269.5 427.191c-4.143 0-7.5-3.357-7.5-7.5 0-22.927 5.446-34.501 10.714-45.693 4.775-10.148 9.286-19.733 9.286-39.307 0-4.143 3.357-7.5 7.5-7.5s7.5 3.357 7.5 7.5c0 22.927-5.446 34.501-10.714 45.693-4.775 10.148-9.286 19.733-9.286 39.307 0 4.142-3.357 7.5-7.5 7.5z" fill="#ebeaec"/></g></g></g><g><path d="m298 342.191h-128c-8.284 0-15-6.716-15-15 0-8.284 6.716-15 15-15h128c8.284 0 15 6.716 15 15 0 8.284-6.716 15-15 15z" fill="#ff5252"/></g><g><path d="m198.5 327.191c0-8.284 6.716-15 15-15h-43.5c-8.284 0-15 6.716-15 15s6.716 15 15 15h43.5c-8.284 0-15-6.716-15-15z" fill="#f44040"/></g><g><path d="m163.009 128h314.734c-8.885-15.359-19.32-29.71-31.091-42.838-6.884-7.677-24.224-14.936-31.979-21.735-8.502-7.453-7.501-14.352-16.942-20.641-40.579-27.031-89.314-42.786-141.731-42.786-94.755 0-48.727 51.484-92.991 128z" fill="#ff5252"/></g><g><path d="m276.667 106.667c0-11.782 9.551-21.333 21.333-21.333v-42.667c-11.782 0-21.333-9.551-21.333-21.333 0-8.494 4.976-15.806 12.161-19.238-10.749-1.378-21.704-2.096-32.828-2.096-52.333 0-100.996 15.704-141.537 42.656-9.803 6.517-1.91 16.07-10.7 23.839-7.535 6.66-31.895 11.377-38.6 18.871-11.695 13.073-22.067 27.355-30.906 42.634h263.743c-11.782 0-21.333-9.551-21.333-21.333z" fill="#f44040"/></g><g><path d="m65.201 85.333h381.597c-14.517-16.219-31.071-30.573-49.26-42.667h-283.077c-18.189 12.094-34.743 26.448-49.26 42.667z" fill="#f9d987"/></g><g><path d="m256 42.667h-141.539c-18.189 12.093-34.743 26.447-49.26 42.666h190.799c-11.782 0-21.333-9.551-21.333-21.333s9.551-21.333 21.333-21.333z" fill="#ffcb37"/></g></g></g></svg>