<svg id="Capa_1" enable-background="new 0 0 512 512" height="512" viewBox="0 0 512 512" width="512" xmlns="http://www.w3.org/2000/svg"><g><g><path d="m491.433 356.674c13.232-30.903 20.567-64.93 20.567-100.674 0-141.385-114.615-256-256-256s-256 114.615-256 256c0 35.744 7.335 69.771 20.567 100.674l235.433 74.05z" fill="#5e73dd"/></g><g><g><path d="m301.604 48.5h-70v-41h70c5.523 0 10 4.477 10 10v21c0 5.523-4.477 10-10 10z" fill="#ffcb37"/></g><g><path d="m269.104 38.5v-21c0-5.523 4.477-10 10-10h-47.5v41h47.5c-5.523 0-10-4.477-10-10z" fill="#fcac1f"/></g><g><path d="m461.125 48.5h-70v-41h70c5.523 0 10 4.477 10 10v21c0 5.523-4.477 10-10 10z" fill="#7cdd83"/></g><g><path d="m428.625 38.5v-21c0-5.523 4.477-10 10-10h-47.5v41h47.5c-5.523 0-10-4.477-10-10z" fill="#69d173"/></g><g><path d="m142.083 48.5h-70v-41h70c5.523 0 10 4.477 10 10v21c0 5.523-4.477 10-10 10z" fill="#ff5252"/></g><g><path d="m109.583 38.5v-21c0-5.523 4.477-10 10-10h-47.5v41h47.5c-5.523 0-10-4.477-10-10z" fill="#f44040"/></g><g><path d="m391.125 117.224c-4.142 0-7.5-3.358-7.5-7.5v-102.224c0-4.142 3.358-7.5 7.5-7.5 4.142 0 7.5 3.358 7.5 7.5v102.224c0 4.142-3.358 7.5-7.5 7.5z" fill="#7c5577"/></g><g><path d="m231.604 117.224c-4.142 0-7.5-3.358-7.5-7.5v-102.224c0-4.142 3.358-7.5 7.5-7.5 4.142 0 7.5 3.358 7.5 7.5v102.224c0 4.142-3.358 7.5-7.5 7.5z" fill="#7c5577"/></g><g><path d="m72.083 117.224c-4.142 0-7.5-3.358-7.5-7.5v-102.224c0-4.142 3.358-7.5 7.5-7.5 4.142 0 7.5 3.358 7.5 7.5v102.224c0 4.142-3.358 7.5-7.5 7.5z" fill="#7c5577"/></g><g><path d="m497.42 104.16-7.09 48.61-39.27 269.02c-2.58 3.04-5.23 6.02-7.95 8.93l-187.11 40.642-187.11-40.642c-2.72-2.91-5.37-5.89-7.95-8.93l-39.27-269.02-7.09-48.61c-1.76-12.06 7.6-22.88 19.79-22.88h443.26c12.19 0 21.55 10.82 19.79 22.88z" fill="#ebeaec"/></g><g><path d="m165.115 451.621-96.225-20.901c-2.72-2.91-5.37-5.89-7.95-8.93l-39.27-269.02v-.01l-7.09-48.6c-1.76-12.06 7.6-22.88 19.8-22.88h99.72c-12.19 0-21.55 10.82-19.79 22.88z" fill="#dad9dd"/></g><g><path d="m85 386.37c-2.179 0-4.31.201-6.385.566.003-.189.014-.376.014-.566 0-20.23-16.4-36.63-36.63-36.63-8.006 0-15.406 2.576-21.433 6.933 17.007 39.721 43.764 74.274 77.272 100.636 13.896-5.203 23.79-18.599 23.79-34.311.002-20.228-16.398-36.628-36.628-36.628z" fill="#5fc16a"/></g><g><path d="m491.433 356.674c-6.027-4.358-13.427-6.933-21.433-6.933-20.23 0-36.63 16.399-36.63 36.63 0 .19.011.377.014.566-2.075-.365-4.206-.566-6.385-.566-20.23 0-36.63 16.4-36.63 36.63 0 15.712 9.895 29.108 23.79 34.311 33.51-26.364 60.266-60.917 77.274-100.638z" fill="#5fc16a"/></g><g><path d="m146 306.276h220v124.449h-220z" fill="#dad9dd"/></g><g><path d="m366 321.276h-220c-8.284 0-15-6.716-15-15 0-8.284 6.716-15 15-15h220c8.284 0 15 6.716 15 15 0 8.284-6.716 15-15 15z" fill="#fff"/></g><g><path d="m226.33 306.276c0-8.284 6.716-15 15-15h-95.33c-8.284 0-15 6.716-15 15s6.716 15 15 15h95.33c-8.284 0-15-6.716-15-15z" fill="#ebeaec"/></g><g><path d="m487 251.276h-462c-8.284 0-15-6.716-15-15 0-8.284 6.716-15 15-15h462c8.284 0 15 6.716 15 15 0 8.284-6.716 15-15 15z" fill="#fff"/></g><g><path d="m487 181.276h-462c-8.284 0-15-6.716-15-15 0-8.284 6.716-15 15-15h462c8.284 0 15 6.716 15 15 0 8.284-6.716 15-15 15z" fill="#fff"/></g><g><path d="m105.33 236.276c0-8.284 6.716-15 15-15h-95.33c-8.284 0-15 6.716-15 15s6.716 15 15 15h95.33c-8.284 0-15-6.716-15-15z" fill="#ebeaec"/></g><g><path d="m105.33 166.276c0-8.284 6.716-15 15-15h-95.33c-8.284 0-15 6.716-15 15s6.716 15 15 15h95.33c-8.284 0-15-6.716-15-15z" fill="#ebeaec"/></g><g><path d="m208.5 351.275c17.949 0 32.5 14.551 32.5 32.5v46.949h-65v-46.949c0-17.949 14.551-32.5 32.5-32.5z" fill="#bcbcc1"/></g><g><path d="m303.5 351.275c17.949 0 32.5 14.551 32.5 32.5v46.949h-65v-46.949c0-17.949 14.551-32.5 32.5-32.5z" fill="#bcbcc1"/></g><g><path d="m143.37 430.724c46.723 50.005 38.795 81.276 112.63 81.276s140.357-31.271 187.079-81.276z" fill="#69d173"/></g><g><path d="m296.548 479.649c-56.26 0-108.27-18.163-150.517-48.924h-77.11c46.722 50.004 113.244 81.275 187.079 81.275 69.63 0 132.748-27.818 178.898-72.924-39.895 25.674-87.382 40.573-138.35 40.573z" fill="#5fc16a"/></g></g></g></svg>