<svg id="Capa_1" enable-background="new 0 0 512 512" height="512" viewBox="0 0 512 512" width="512" xmlns="http://www.w3.org/2000/svg"><g><g><circle cx="256" cy="256" fill="#ffcb37" r="256"/></g><g><g><path d="m324.102.515c-8.002-2.144-16.227 2.605-18.371 10.607l-16.823 62.785 28.978 7.765 16.823-62.785c2.144-8.003-2.605-16.228-10.607-18.372z" fill="#ff5252"/></g><g><path d="m511.485 187.898c2.144 8.002-2.605 16.227-10.607 18.371l-62.785 16.823-7.765-28.978 62.785-16.823c8.003-2.144 16.228 2.605 18.372 10.607z" fill="#ff5252"/></g><g><g><path d="m395.431 46.568h80v60.001h-80z" fill="#603256" transform="matrix(.707 -.707 .707 .707 73.393 330.323)"/></g><g><path d="m477.858 90.711-56.569-56.569c-7.81-7.81-7.81-20.474 0-28.284 7.81-7.81 20.474-7.81 28.284 0l56.569 56.569c7.81 7.81 7.81 20.474 0 28.284-7.81 7.81-20.474 7.81-28.284 0z" fill="#7c5577"/></g><g><path d="m463.716 48.284c7.81-7.81 20.474-7.811 28.284 0l-42.426-42.426c-7.81-7.811-20.474-7.81-28.284 0-7.81 7.81-7.81 20.474 0 28.284l42.426 42.426c-7.811-7.81-7.811-20.473 0-28.284z" fill="#603256"/></g></g><g><circle cx="255.515" cy="256.485" fill="#7c5577" r="225"/></g><g><path d="m96.416 394.371c5.858-5.858 15.355-5.858 21.213 0l275.772-275.772c-5.858-5.858-5.858-15.355 0-21.213s15.355-5.858 21.213 0c-87.868-87.868-230.33-87.868-318.198 0-87.868 87.868-87.868 230.33 0 318.198-5.858-5.858-5.858-15.355 0-21.213z" fill="#603256"/></g><g><circle cx="255.515" cy="256.485" fill="#ebeaec" r="195"/></g><g><path d="m208.014 394.371c-76.031-76.031-76.031-199.741 0-275.772 26.462-26.462 58.701-43.702 92.693-51.745-63.676-15.065-133.509 2.176-183.078 51.745-76.031 76.031-76.031 199.741 0 275.772 49.569 49.569 119.402 66.81 183.078 51.745-33.992-8.043-66.231-25.283-92.693-51.745z" fill="#dad9dd"/></g><g><path d="m294.462 401.307c24.605-6.573 47.852-19.489 67.119-38.756 58.485-58.485 58.485-153.647 0-212.132l-106.066 106.066z" fill="#ff5252"/></g><g><path d="m275.353 338.041c-3.312 0-6.342-2.21-7.24-5.561l-19.843-74.054c-.693-2.589.047-5.35 1.941-7.245l74.246-74.246c2.929-2.928 7.678-2.928 10.606 0 2.929 2.93 2.929 7.678 0 10.607l-71.184 71.184 18.722 69.871c1.072 4.001-1.302 8.114-5.304 9.186-.649.175-1.302.258-1.944.258z" fill="#fff"/></g><g><g><circle cx="361.581" cy="150.419" fill="#603256" r="15"/></g><g><circle cx="149.449" cy="362.551" fill="#603256" r="15"/></g><g><circle cx="294.338" cy="111.596" fill="#603256" r="15"/></g><g><circle cx="216.692" cy="401.374" fill="#603256" r="15"/></g><g><circle cx="216.692" cy="111.596" fill="#603256" r="15"/></g><g><circle cx="294.338" cy="401.374" fill="#603256" r="15"/></g><g><circle cx="149.449" cy="150.419" fill="#603256" r="15"/></g><g><circle cx="361.581" cy="362.551" fill="#603256" r="15"/></g><g><circle cx="110.626" cy="217.662" fill="#603256" r="15"/></g><g><circle cx="400.404" cy="295.308" fill="#603256" r="15"/></g><g><circle cx="110.626" cy="295.308" fill="#603256" r="15"/></g><g><circle cx="400.404" cy="217.662" fill="#603256" r="15"/></g></g><g><circle cx="255.515" cy="256.485" fill="#ffcb37" r="20"/></g><g><g><path d="m201.303 318.196c-1.919 0-3.839-.732-5.303-2.197-2.929-2.929-2.929-7.678 0-10.606l9.857-9.856c2.929-2.929 7.678-2.928 10.606.001 2.929 2.929 2.929 7.678 0 10.606l-9.857 9.856c-1.464 1.464-3.384 2.196-5.303 2.196z" fill="#fff"/></g><g><path d="m271.755 203.397c-.643 0-1.295-.083-1.946-.258-4.001-1.071-6.375-5.184-5.304-9.185l3.607-13.465c1.072-4.003 5.188-6.376 9.186-5.304 4.001 1.071 6.375 5.184 5.304 9.185l-3.607 13.465c-.898 3.353-3.929 5.562-7.24 5.562z" fill="#fff"/></g><g><path d="m235.677 338.041c-.643 0-1.296-.083-1.946-.258-4.001-1.072-6.375-5.185-5.303-9.186l3.608-13.464c1.073-4.001 5.187-6.376 9.186-5.303 4.001 1.072 6.375 5.185 5.303 9.186l-3.608 13.464c-.898 3.351-3.929 5.561-7.24 5.561z" fill="#fff"/></g><g><path d="m239.275 203.397c-3.312 0-6.342-2.21-7.24-5.561l-3.608-13.465c-1.072-4.001 1.302-8.114 5.304-9.186 4-1.077 8.113 1.302 9.186 5.303l3.608 13.465c1.072 4.001-1.302 8.114-5.304 9.186-.65.175-1.304.258-1.946.258z" fill="#fff"/></g><g><path d="m211.16 219.63c-1.919 0-3.839-.732-5.303-2.196l-9.857-9.857c-2.929-2.929-2.929-7.678 0-10.606 2.929-2.93 7.678-2.929 10.606-.001l9.857 9.856c2.929 2.929 2.929 7.678 0 10.606-1.464 1.465-3.383 2.198-5.303 2.198z" fill="#fff"/></g><g><path d="m309.726 318.196c-1.919 0-3.839-.732-5.303-2.196l-9.856-9.856c-2.929-2.93-2.929-7.678 0-10.607 2.929-2.928 7.678-2.928 10.606 0l9.856 9.856c2.929 2.93 2.929 7.678 0 10.607-1.464 1.464-3.383 2.196-5.303 2.196z" fill="#fff"/></g><g><path d="m194.93 247.752c-.643 0-1.295-.083-1.946-.258l-13.464-3.607c-4.001-1.071-6.375-5.185-5.304-9.186 1.073-4.001 5.187-6.376 9.186-5.303l13.464 3.607c4.001 1.071 6.375 5.185 5.304 9.186-.899 3.351-3.929 5.561-7.24 5.561z" fill="#fff"/></g><g><path d="m329.574 283.83c-.643 0-1.296-.083-1.946-.258l-13.465-3.608c-4.001-1.072-6.375-5.185-5.303-9.186s5.186-6.377 9.186-5.303l13.465 3.608c4.001 1.072 6.375 5.185 5.303 9.186-.898 3.351-3.929 5.561-7.24 5.561z" fill="#fff"/></g><g><path d="m181.456 283.83c-3.312 0-6.341-2.21-7.239-5.561-1.072-4.001 1.302-8.113 5.303-9.186l13.464-3.608c3.998-1.077 8.113 1.302 9.186 5.303s-1.302 8.113-5.303 9.186l-13.464 3.608c-.651.175-1.305.258-1.947.258z" fill="#fff"/></g><g><path d="m316.1 247.752c-3.312 0-6.342-2.21-7.24-5.562-1.072-4.001 1.303-8.113 5.304-9.185l13.465-3.607c4-1.073 8.113 1.302 9.186 5.304 1.072 4.001-1.303 8.113-5.304 9.185l-13.465 3.607c-.65.175-1.304.258-1.946.258z" fill="#fff"/></g></g></g></g></svg>