<svg id="Capa_1" enable-background="new 0 0 512 512" height="512" viewBox="0 0 512 512" width="512" xmlns="http://www.w3.org/2000/svg"><g><g><path d="m503.923 191.957c-28.434-110.393-128.653-191.957-247.923-191.957-141.385 0-256 114.615-256 256 0 8.273.406 16.45 1.174 24.521l254.826 143.812 242.327-85.595c8.859-25.955 13.673-53.783 13.673-82.738l-8.077-31.88z" fill="#603256"/></g><g><path d="m288.576 299.281-57.279-35.847c-10.532-6.591-24.202.98-24.202 13.405v3.683h-205.921c1.92 20.179 6.171 39.678 12.499 58.217l17.3 6.111h176.122v3.683c0 12.425 13.67 19.996 24.202 13.405l57.279-35.847c9.899-6.196 9.899-20.615 0-26.81z" fill="#7cdd83"/></g><g><path d="m314.905 188.273c0-12.424-13.67-19.996-24.202-13.404l-57.279 35.847c-9.899 6.195-9.899 20.614 0 26.809l57.279 35.847c10.532 6.591 24.202-.98 24.202-13.405v-3.683h197.092c0-.095.003-.189.003-.284 0-22.115-2.805-43.575-8.077-64.043h-189.018z" fill="#ff5252"/></g><g><g><path d="m200.856 167.035-91.47 49.777-96.193-49.777s-13.169-43.368-6.169-69.368 28.709-28.667 28.709-28.667 7.293-40 75.293-40 96 62.26 96 77.797-5 21.795-5 21.795 5.661 16.478-1.17 38.443z" fill="#bc4c2e"/></g><g><path d="m7.025 97.667c-7 26 6.169 69.368 6.169 69.368l47.751 24.709 4.099-4.245v-68.025c-16.002-12.411-34.519-33.974-29.312-50.474 0 0-21.707 2.667-28.707 28.667z" fill="#a0391e"/></g><g><path d="m34.707 359.728 11.293 42.692-.008.004c11.539 16.52 24.981 31.611 40.003 44.965l.005-.004h20l20 29.176-.016.009c12.674 7.488 26.052 13.91 40.007 19.153l.009-.009h21.249l6.686 4.061 62.065-142.687c-12.759-6.263-31.673-11.921-50.025-16.497-28.835-7.19-166.449-7.958-192.303-1.854l.001.001z" fill="#d62b2b"/></g><g><path d="m86 328.881v118.503c12.327 10.957 25.717 20.74 40 29.176v-147.68h-20-20z" fill="#ffcb37"/></g><g><path d="m46 402.42v-70.577c-8.742 1.683-20.194 4.031-32.327 6.896 7.802 22.856 18.754 44.251 32.327 63.681z" fill="#ffcb37"/></g><g><path d="m166 495.714c12.873 4.835 26.237 8.665 40 11.39v-166.505c-14.905-3.717-29.432-6.721-40-8.756z" fill="#ffcb37"/></g><g><path d="m106 359.728c43.839 0 63.836-16.837 71.293-25.632-16.015-3.306-27.598-5.214-27.598-5.214h-43.695-43.695s-11.582 1.908-27.598 5.214c7.457 8.795 27.454 25.632 71.293 25.632z" fill="#fcac1f"/></g><g><path d="m175.075 183.668s8.897-21.662 24.756-16.633-.383 51.97-31.332 54.928z" fill="#f9bd91"/></g><g><path d="m36.925 183.668s-8.897-21.662-24.756-16.633.383 51.97 31.332 54.928z" fill="#e5a876"/></g><g><path d="m62.305 216.812v112.07c0 17.036 19.563 30.846 43.695 30.846s43.695-13.81 43.695-30.846v-112.07z" fill="#f9bd91"/></g><g><path d="m62.305 216.812v112.07c46.932 0 73.247-36.019 73.247-36.019l14.143-76.05h-87.39z" fill="#e5a876"/></g><g><path d="m177.293 156.333c-4.374-10.667-4.69-43.347-16.293-48s-21.333 8-55 8-43.397-12.653-55-8-11.919 37.333-16.293 48c-4.075 9.938-9.195 11.963-9.876 12.194-.05 1.554-.081 3.117-.081 4.694 0 59.83 36.377 129.999 81.249 129.999 44.873 0 81.249-70.169 81.249-129.999 0-1.578-.031-3.141-.081-4.694-.68-.23-5.799-2.256-9.874-12.194z" fill="#fcd2ae"/></g><g><path d="m52.691 173.222c0-24.408 6.068-46.002 16.284-63.034-7.399-2.378-12.479-4.058-17.975-1.854-11.603 4.653-11.919 37.333-16.293 48-4.075 9.938-9.195 11.963-9.876 12.194-.05 1.554-.081 3.117-.081 4.694 0 59.83 36.377 129.999 81.249 129.999 4.764 0 9.431-.798 13.97-2.284-38.214-12.506-67.278-74.237-67.278-127.715z" fill="#f9bd91"/></g></g><g><g><path d="m493 112s4.821-35.964-12.497-56.045c-2.594-3.008-7.524-.96-7.207 2.999l.204 2.546s-9.939-19.391-35.518-27.005c-3.552-1.057-6.538 2.849-4.648 6.037l1.166 1.968s-15.419-15.419-66.52-16.484c-3.753-.078-5.613 4.533-2.871 7.097l2.927 2.736c-.002 0-19.242 3.394-44.735 18.827-3.146 1.904-2.361 6.681 1.224 7.5l2.087.477c-9.866 11.347-15.322 23.162-18.103 30.775-1.208 3.308 2.031 6.498 5.32 5.238s-7.83 36.333 1.655 67.683l90.516 20.448 90.515-20.447s5.485-26.35-3.515-54.35z" fill="#ffcb37"/></g><g><path d="m368.975 110.187c-26.668-5.719-45.642-16.187-55.145-11.52 0 0-7.83 36.333 1.655 67.683l55.871 12.621z" fill="#fcac1f"/></g><g><path d="m306 507.108 20-20.775 20 9.39.001.006c13.956-5.242 27.333-11.668 40.008-19.156l-.009-.012 20-25.895 20-3.282.004.007c15.023-13.355 28.457-28.454 39.997-44.976l14.665-44.083 17.66-19.595.001-.001c-25.854-6.104-163.457-5.338-192.285 1.85-24.902 6.21-50.846 14.411-61.042 23.414-18.668 16.483-45.253 111.546-52.878 139.965 20.419 5.245 41.823 8.035 63.878 8.035 17.112 0 33.829-1.688 50.001-4.891z" fill="#ff5252"/></g><g><path d="m326 486.333 20 9.39c13.956-5.243 27.327-11.677 40.002-19.166l17.689-22.903c-49.376-22.737-90.278-60.728-116.667-107.936-18.117 5.323-34.434 11.58-42.024 18.282-18.668 16.483-45.253 111.546-52.878 139.965 20.419 5.245 41.823 8.035 63.878 8.035 17.112 0 33.829-1.689 50-4.892z" fill="#f44040"/></g><g><path d="m262.82 436.247c-1.624-5.546-9.799-4.374-9.799 1.405v74.311c.993.011 1.983.038 2.978.038 9.647 0 19.164-.552 28.534-1.591z" fill="#d62b2b"/></g><g><path d="m386 328.881v147.68c14.283-8.437 27.673-18.219 40-29.176v-118.504h-20z" fill="#f9d987"/></g><g><path d="m306 507.104c13.763-2.725 27.127-6.555 40-11.39v-163.871c-10.568 2.035-25.095 5.039-40 8.756z" fill="#f9d987"/></g><g><path d="m306 374.81v132.298c13.762-2.726 27.128-6.549 40-11.385v-78.699c-14.873-12.505-28.299-26.671-40-42.214z" fill="#ffcb37"/></g><g><path d="m498.327 338.738c-12.132-2.865-23.585-5.212-32.327-6.896v70.577c13.573-19.429 24.525-40.824 32.327-63.681z" fill="#f9d987"/></g><g><path d="m406 359.728c43.839 0 63.836-16.837 71.293-25.632-16.015-3.306-27.598-5.214-27.598-5.214h-43.695-43.695s-11.582 1.908-27.598 5.214c7.457 8.795 27.454 25.632 71.293 25.632z" fill="#ffcb37"/></g><g><path d="m475.075 183.668s8.897-21.662 24.756-16.633-.383 51.97-31.332 54.928z" fill="#f9bd91"/></g><g><path d="m336.925 183.668s-8.897-21.662-24.756-16.633.383 51.97 31.332 54.928z" fill="#e5a876"/></g><g><path d="m362.305 216.812v112.07c0 17.036 19.563 30.846 43.695 30.846s43.695-13.81 43.695-30.846v-112.07z" fill="#f9bd91"/></g><g><path d="m362.305 216.812v112.07c46.932 0 73.247-36.019 73.247-36.019l14.143-76.05h-87.39z" fill="#e5a876"/></g><g><path d="m477.293 156.333c-4.374-10.667-4.69-43.347-16.293-48s-21.333 8-55 8-43.397-12.653-55-8-11.919 37.333-16.293 48c-4.075 9.938-9.195 11.963-9.876 12.194-.05 1.554-.081 3.117-.081 4.694 0 59.83 36.377 129.999 81.249 129.999 44.873 0 81.249-70.169 81.249-129.999 0-1.578-.031-3.141-.081-4.694-.68-.23-5.799-2.256-9.874-12.194z" fill="#fcd2ae"/></g><g><path d="m352.691 173.222c0-24.408 6.068-46.002 16.284-63.034-7.399-2.378-12.479-4.058-17.975-1.854-11.603 4.653-11.919 37.333-16.293 48-4.075 9.938-9.195 11.963-9.876 12.194-.05 1.554-.081 3.117-.081 4.694 0 59.83 36.377 129.999 81.249 129.999 4.764 0 9.431-.798 13.97-2.284-38.214-12.506-67.278-74.237-67.278-127.715z" fill="#f9bd91"/></g></g></g></svg>