<svg id="Capa_1" enable-background="new 0 0 512 512" height="512" viewBox="0 0 512 512" width="512" xmlns="http://www.w3.org/2000/svg"><g><g><path d="m285.191 510.333 152.387-73.886c45.995-46.281 74.422-110.042 74.422-180.447 0-92.671-49.243-173.838-122.988-218.771l-.002.001-272.01 3.771c-70.408 45.614-117 124.861-117 214.999 0 141.385 114.615 256 256 256 9.873 0 19.609-.579 29.191-1.667z" fill="#603256"/></g><g><g><path d="m300.431 299.3c-15.003-15.003-23.431-35.351-23.431-56.568v-55.51l-15-15 15-15v-30l-15-15 15-15v-96.36c-6.927-.562-13.928-.862-21-.862-51.247 0-98.97 15.068-139 41.001v56.221l15 15-15 15v30l15 15-15 15v75.843l61.665 140.743 106.525 106.525c59.307-6.733 112.467-33.717 152.388-73.886z" fill="#d62b2b"/></g><g><path d="m117 97.222h160v30h-160z" fill="#fcac1f"/></g><g><path d="m117 157.222h160v30h-160z" fill="#fcac1f"/></g><g><path d="m488.57 375.43-76.13-76.13c-15.01-15-23.43-35.35-23.43-56.57v-55.512l-.004.004-15-15 15-15 .004.004v-30.009l-.004.004-15-15 15-15 .004.004v-59.995c-38.76-23.62-84.3-37.23-133.01-37.23-9.12 0-18.12.48-26.99 1.41v95.816l14.996 14.996-14.996 14.996v30.009l14.996 14.996-14.996 14.996v75.852l-.001.002 61.662 140.736-.002.002h.001l84.76 84.76c31.24 31.24 81.9 31.24 113.14 0 15.62-15.621 23.43-36.091 23.43-56.571s-7.81-40.95-23.43-56.57z" fill="#ff5252"/></g><g><path d="m488.57 375.43-76.13-76.13c-15.01-15-23.43-35.35-23.43-56.57v-55.512l-.004.004-.01-.01c-.225 43.991-35.946 79.585-79.99 79.585s-79.765-35.594-79.989-79.585l-.007.007v75.852l-.001.002 61.662 140.736-.002.002h.001l84.76 84.76c31.24 31.24 81.9 31.24 113.14 0 15.62-15.621 23.43-36.091 23.43-56.571s-7.81-40.95-23.43-56.57z" fill="#f44040"/></g><g><path d="m229.006 263.065c-12.103 14.871-19.367 33.837-19.367 54.505 0 45.918 35.816 83.453 81.032 86.238v-79.078c0-34.056-27.608-61.665-61.665-61.665z" fill="#ffcb37"/></g><g><path d="m117 263.065c-12.103 14.871-19.367 33.837-19.367 54.505 0 45.918 35.816 83.453 81.032 86.238v-79.078c0-34.056-27.608-61.665-61.665-61.665z" fill="#fcac1f"/></g><g><path d="m229.006 97.222h160v30h-160z" fill="#f9d987"/></g><g><path d="m229.006 157.222h160v30h-160z" fill="#f9d987"/></g><g><path d="m309.006 187.222c-8.284 0-15-6.716-15-15s6.716-15 15-15h-80v30z" fill="#ffcb37"/></g><g><path d="m309.006 127.222c-8.284 0-15-6.716-15-15s6.716-15 15-15h-80v30z" fill="#ffcb37"/></g></g></g></svg>